<!--
  1. On LucidChart: File -> Export -> SVG
  2. Crop: Crop to content
  3. Copy file into https://www.freeformatter.com/xml-formatter.html
  4. Indentaiton level: 2 spaces per indent level
  5. Replace code below with new version
 -->
<?xml version="1.0" encoding="UTF-8"?>
<svg xmlns="http://www.w3.org/2000/svg" xmlns:lucid="lucid" xmlns:xlink="http://www.w3.org/1999/xlink" width="1580" height="911.07">
  <g transform="translate(-40 -140)" lucid:page-tab-id="HWEp-vi-RSFO">
    <path d="M0 0h1760v1360H0z" fill="#fff" />
    <path d="M720 448.16h360v478H720z" stroke="#333" stroke-width="2" fill="#fff" />
    <path d="M720 485.76h360m-360 166.1h360" stroke="#333" stroke-width="2" fill="none" />
    <use xlink:href="#a" transform="matrix(1,0,0,1,728,456.15522395661526) translate(152.2 14.6)" />
    <use xlink:href="#b" transform="matrix(1,0,0,1,732,493.7552239566153) translate(0 25.1)" />
    <use xlink:href="#c" transform="matrix(1,0,0,1,732,493.7552239566153) translate(60.9 25.1)" />
    <use xlink:href="#d" transform="matrix(1,0,0,1,732,493.7552239566153) translate(0 46.7)" />
    <use xlink:href="#c" transform="matrix(1,0,0,1,732,493.7552239566153) translate(102.80000000000001 46.7)" />
    <use xlink:href="#e" transform="matrix(1,0,0,1,732,493.7552239566153) translate(0 68.30000000000001)" />
    <use xlink:href="#f" transform="matrix(1,0,0,1,732,493.7552239566153) translate(69.75 68.30000000000001)" />
    <use xlink:href="#g" transform="matrix(1,0,0,1,732,493.7552239566153) translate(0 89.90000000000002)" />
    <use xlink:href="#c" transform="matrix(1,0,0,1,732,493.7552239566153) translate(117.75000000000001 89.90000000000002)" />
    <use xlink:href="#h" transform="matrix(1,0,0,1,732,493.7552239566153) translate(0 111.50000000000001)" />
    <use xlink:href="#c" transform="matrix(1,0,0,1,732,493.7552239566153) translate(83.9 111.50000000000001)" />
    <use xlink:href="#i" transform="matrix(1,0,0,1,732,493.7552239566153) translate(0 133.1)" />
    <use xlink:href="#j" transform="matrix(1,0,0,1,732,493.7552239566153) translate(80.85 133.1)" />
    <use xlink:href="#k" transform="matrix(1,0,0,1,732,659.8552239566153) translate(0 25.100000000000016)" />
    <use xlink:href="#l" transform="matrix(1,0,0,1,732,659.8552239566153) translate(104.30000000000001 25.100000000000016)" />
    <use xlink:href="#m" transform="matrix(1,0,0,1,732,659.8552239566153) translate(0 46.70000000000002)" />
    <use xlink:href="#l" transform="matrix(1,0,0,1,732,659.8552239566153) translate(146.2 46.70000000000002)" />
    <use xlink:href="#n" transform="matrix(1,0,0,1,732,659.8552239566153) translate(0 68.30000000000003)" />
    <use xlink:href="#l" transform="matrix(1,0,0,1,732,659.8552239566153) translate(112.20000000000002 68.30000000000003)" />
    <use xlink:href="#o" transform="matrix(1,0,0,1,732,659.8552239566153) translate(0 89.90000000000003)" />
    <use xlink:href="#l" transform="matrix(1,0,0,1,732,659.8552239566153) translate(124.25000000000001 89.90000000000003)" />
    <use xlink:href="#p" transform="matrix(1,0,0,1,732,659.8552239566153) translate(0 111.50000000000003)" />
    <use xlink:href="#l" transform="matrix(1,0,0,1,732,659.8552239566153) translate(132.3 111.50000000000003)" />
    <use xlink:href="#q" transform="matrix(1,0,0,1,732,659.8552239566153) translate(0 133.10000000000002)" />
    <use xlink:href="#l" transform="matrix(1,0,0,1,732,659.8552239566153) translate(162.14999999999998 133.10000000000002)" />
    <use xlink:href="#r" transform="matrix(1,0,0,1,732,659.8552239566153) translate(0 154.70000000000002)" />
    <use xlink:href="#c" transform="matrix(1,0,0,1,732,659.8552239566153) translate(105.30000000000001 154.70000000000002)" />
    <use xlink:href="#s" transform="matrix(1,0,0,1,732,659.8552239566153) translate(0 176.3)" />
    <use xlink:href="#c" transform="matrix(1,0,0,1,732,659.8552239566153) translate(135.3 176.3)" />
    <use xlink:href="#t" transform="matrix(1,0,0,1,732,659.8552239566153) translate(0 197.9)" />
    <use xlink:href="#f" transform="matrix(1,0,0,1,732,659.8552239566153) translate(113.20000000000002 197.9)" />
    <use xlink:href="#u" transform="matrix(1,0,0,1,732,659.8552239566153) translate(0 219.5)" />
    <use xlink:href="#v" transform="matrix(1,0,0,1,732,659.8552239566153) translate(59.4 219.5)" />
    <use xlink:href="#c" transform="matrix(1,0,0,1,732,659.8552239566153) translate(212.04999999999998 219.5)" />
    <use xlink:href="#w" transform="matrix(1,0,0,1,732,659.8552239566153) translate(0 241.1)" />
    <use xlink:href="#j" transform="matrix(1,0,0,1,732,659.8552239566153) translate(125.25000000000001 241.1)" />
    <path d="M720 160h360v177H720z" stroke="#333" stroke-width="2" fill="#fff" />
    <path d="M720 197.6h360m-360 80.7h360" stroke="#333" stroke-width="2" fill="none" />
    <use xlink:href="#x" transform="matrix(1,0,0,1,728,168) translate(136.25 14.6)" />
    <use xlink:href="#y" transform="matrix(1,0,0,1,732,205.6) translate(0 25.299999999999997)" />
    <use xlink:href="#z" transform="matrix(1,0,0,1,732,205.6) translate(85.75 25.299999999999997)" />
    <use xlink:href="#A" transform="matrix(1,0,0,1,732,205.6) translate(0 46.9)" />
    <use xlink:href="#B" transform="matrix(1,0,0,1,732,205.6) translate(76.9 46.9)" />
    <use xlink:href="#C" transform="matrix(1,0,0,1,732,286.3) translate(0 25.6)" />
    <use xlink:href="#D" transform="matrix(1,0,0,1,732,286.3) translate(127.25000000000001 25.6)" />
    <use xlink:href="#E" transform="matrix(1,0,0,1,732,286.3) translate(137.25 25.6)" />
    <path d="M200 360h360v118H200z" stroke="#333" stroke-width="2" fill="#fff" />
    <path d="M200 397.6h360" stroke="#333" stroke-width="2" fill="none" />
    <use xlink:href="#F" transform="matrix(1,0,0,1,208,368) translate(151.55 14.6)" />
    <use xlink:href="#G" transform="matrix(1,0,0,1,212,405.6) translate(117.875 36.1)" />
    <use xlink:href="#H" transform="matrix(1,0,0,1,212,405.6) translate(185.175 36.1)" />
    <path d="M100 160h260v118H100z" stroke="#333" stroke-width="2" fill="#fff" />
    <path d="M100 197.6h260" stroke="#333" stroke-width="2" fill="none" />
    <use xlink:href="#I" transform="matrix(1,0,0,1,108,168) translate(81.39999999999999 14.6)" />
    <use xlink:href="#G" transform="matrix(1,0,0,1,112,205.6) translate(67.875 36.1)" />
    <use xlink:href="#H" transform="matrix(1,0,0,1,112,205.6) translate(135.175 36.1)" />
    <path d="M440 160h260v118H440z" stroke="#333" stroke-width="2" fill="#fff" />
    <path d="M440 197.6h260" stroke="#333" stroke-width="2" fill="none" />
    <use xlink:href="#J" transform="matrix(1,0,0,1,448,168) translate(65.44999999999999 14.6)" />
    <use xlink:href="#G" transform="matrix(1,0,0,1,452,205.6) translate(67.875 36.1)" />
    <use xlink:href="#K" transform="matrix(1,0,0,1,452,205.6) translate(135.175 36.1)" />
    <path d="M1240 560h360v118h-360z" stroke="#333" stroke-width="2" fill="#fff" />
    <path d="M1240 597.6h360" stroke="#333" stroke-width="2" fill="none" />
    <use xlink:href="#L" transform="matrix(1,0,0,1,1248,568) translate(145.05 14.6)" />
    <use xlink:href="#M" transform="matrix(1,0,0,1,1252,605.6) translate(110.85 36.1)" />
    <use xlink:href="#N" transform="matrix(1,0,0,1,1252,605.6) translate(192.2 36.1)" />
    <path d="M1290 746h260v118h-260z" stroke="#333" stroke-width="2" fill="#fff" />
    <path d="M1290 783.6h260" stroke="#333" stroke-width="2" fill="none" />
    <use xlink:href="#O" transform="matrix(1,0,0,1,1298,753.9999999999088) translate(74.9 14.6)" />
    <use xlink:href="#P" transform="matrix(1,0,0,1,1302,791.5999999999088) translate(60.849999999999994 36.1)" />
    <use xlink:href="#H" transform="matrix(1,0,0,1,1302,791.5999999999088) translate(142.2 36.1)" />
    <path d="M1290 374h260v118h-260z" stroke="#333" stroke-width="2" fill="#fff" />
    <path d="M1290 411.6h260" stroke="#333" stroke-width="2" fill="none" />
    <use xlink:href="#Q" transform="matrix(1,0,0,1,1298,382.0000000000911) translate(58.949999999999996 14.6)" />
    <use xlink:href="#R" transform="matrix(1,0,0,1,1302,419.60000000009114) translate(60.849999999999994 36.1)" />
    <use xlink:href="#N" transform="matrix(1,0,0,1,1302,419.60000000009114) translate(142.2 36.1)" />
    <path d="M200 560h360v118H200z" stroke="#333" stroke-width="2" fill="#fff" />
    <path d="M200 597.6h360" stroke="#333" stroke-width="2" fill="none" />
    <use xlink:href="#S" transform="matrix(1,0,0,1,208,568) translate(155.05 14.6)" />
    <use xlink:href="#T" transform="matrix(1,0,0,1,212,605.6) translate(120.85 36.1)" />
    <use xlink:href="#H" transform="matrix(1,0,0,1,212,605.6) translate(182.2 36.1)" />
    <path d="M60 753.5h260v118H60z" stroke="#333" stroke-width="2" fill="#fff" />
    <path d="M60 791.1h260" stroke="#333" stroke-width="2" fill="none" />
    <use xlink:href="#U" transform="matrix(1,0,0,1,68,761.4873617001817) translate(84.89999999999999 14.6)" />
    <use xlink:href="#T" transform="matrix(1,0,0,1,72,799.0873617001818) translate(70.85 36.1)" />
    <use xlink:href="#H" transform="matrix(1,0,0,1,72,799.0873617001818) translate(132.2 36.1)" />
    <path d="M440 753.5h260v118H440z" stroke="#333" stroke-width="2" fill="#fff" />
    <path d="M440 791.1h260" stroke="#333" stroke-width="2" fill="none" />
    <use xlink:href="#V" transform="matrix(1,0,0,1,448,761.4873617001817) translate(69.94999999999999 14.6)" />
    <use xlink:href="#T" transform="matrix(1,0,0,1,452,799.0873617001818) translate(70.85 36.1)" />
    <use xlink:href="#H" transform="matrix(1,0,0,1,452,799.0873617001818) translate(132.2 36.1)" />
    <path d="M280 911.07h240v120H280z" fill="#fff" />
    <path d="M281 911.07c0 .56-.45 1-1 1s-1-.44-1-1c0-.55.45-1 1-1s1 .45 1 1zm4 0c0 .56-.45 1-1 1s-1-.44-1-1c0-.55.45-1 1-1s1 .45 1 1zm4 0c0 .56-.45 1-1 1s-1-.44-1-1c0-.55.45-1 1-1s1 .45 1 1zm4 0c0 .56-.45 1-1 1s-1-.44-1-1c0-.55.45-1 1-1s1 .45 1 1zm4 0c0 .56-.45 1-1 1s-1-.44-1-1c0-.55.45-1 1-1s1 .45 1 1zm4 0c0 .56-.45 1-1 1s-1-.44-1-1c0-.55.45-1 1-1s1 .45 1 1zm4 0c0 .56-.45 1-1 1s-1-.44-1-1c0-.55.45-1 1-1s1 .45 1 1zm4 0c0 .56-.45 1-1 1s-1-.44-1-1c0-.55.45-1 1-1s1 .45 1 1zm4 0c0 .56-.45 1-1 1s-1-.44-1-1c0-.55.45-1 1-1s1 .45 1 1zm4 0c0 .56-.45 1-1 1s-1-.44-1-1c0-.55.45-1 1-1s1 .45 1 1zm4 0c0 .56-.45 1-1 1s-1-.44-1-1c0-.55.45-1 1-1s1 .45 1 1zm4 0c0 .56-.45 1-1 1s-1-.44-1-1c0-.55.45-1 1-1s1 .45 1 1zm4 0c0 .56-.45 1-1 1s-1-.44-1-1c0-.55.45-1 1-1s1 .45 1 1zm4 0c0 .56-.45 1-1 1s-1-.44-1-1c0-.55.45-1 1-1s1 .45 1 1zm4 0c0 .56-.45 1-1 1s-1-.44-1-1c0-.55.45-1 1-1s1 .45 1 1zm4 0c0 .56-.45 1-1 1s-1-.44-1-1c0-.55.45-1 1-1s1 .45 1 1zm4 0c0 .56-.45 1-1 1s-1-.44-1-1c0-.55.45-1 1-1s1 .45 1 1zm4 0c0 .56-.45 1-1 1s-1-.44-1-1c0-.55.45-1 1-1s1 .45 1 1zm4 0c0 .56-.45 1-1 1s-1-.44-1-1c0-.55.45-1 1-1s1 .45 1 1zm4 0c0 .56-.45 1-1 1s-1-.44-1-1c0-.55.45-1 1-1s1 .45 1 1zm4 0c0 .56-.45 1-1 1s-1-.44-1-1c0-.55.45-1 1-1s1 .45 1 1zm4 0c0 .56-.45 1-1 1s-1-.44-1-1c0-.55.45-1 1-1s1 .45 1 1zm4 0c0 .56-.45 1-1 1s-1-.44-1-1c0-.55.45-1 1-1s1 .45 1 1zm4 0c0 .56-.45 1-1 1s-1-.44-1-1c0-.55.45-1 1-1s1 .45 1 1zm4 0c0 .56-.45 1-1 1s-1-.44-1-1c0-.55.45-1 1-1s1 .45 1 1zm4 0c0 .56-.45 1-1 1s-1-.44-1-1c0-.55.45-1 1-1s1 .45 1 1zm4 0c0 .56-.45 1-1 1s-1-.44-1-1c0-.55.45-1 1-1s1 .45 1 1zm4 0c0 .56-.45 1-1 1s-1-.44-1-1c0-.55.45-1 1-1s1 .45 1 1zm4 0c0 .56-.45 1-1 1s-1-.44-1-1c0-.55.45-1 1-1s1 .45 1 1zm4 0c0 .56-.45 1-1 1s-1-.44-1-1c0-.55.45-1 1-1s1 .45 1 1zm4 0c0 .56-.45 1-1 1s-1-.44-1-1c0-.55.45-1 1-1s1 .45 1 1zm4 0c0 .56-.45 1-1 1s-1-.44-1-1c0-.55.45-1 1-1s1 .45 1 1zm4 0c0 .56-.45 1-1 1s-1-.44-1-1c0-.55.45-1 1-1s1 .45 1 1zm4 0c0 .56-.45 1-1 1s-1-.44-1-1c0-.55.45-1 1-1s1 .45 1 1zm4 0c0 .56-.45 1-1 1s-1-.44-1-1c0-.55.45-1 1-1s1 .45 1 1zm4 0c0 .56-.45 1-1 1s-1-.44-1-1c0-.55.45-1 1-1s1 .45 1 1zm4 0c0 .56-.45 1-1 1s-1-.44-1-1c0-.55.45-1 1-1s1 .45 1 1zm4 0c0 .56-.45 1-1 1s-1-.44-1-1c0-.55.45-1 1-1s1 .45 1 1zm4 0c0 .56-.45 1-1 1s-1-.44-1-1c0-.55.45-1 1-1s1 .45 1 1zm4 0c0 .56-.45 1-1 1s-1-.44-1-1c0-.55.45-1 1-1s1 .45 1 1zm4 0c0 .56-.45 1-1 1s-1-.44-1-1c0-.55.45-1 1-1s1 .45 1 1zm4 0c0 .56-.45 1-1 1s-1-.44-1-1c0-.55.45-1 1-1s1 .45 1 1zm4 0c0 .56-.45 1-1 1s-1-.44-1-1c0-.55.45-1 1-1s1 .45 1 1zm4 0c0 .56-.45 1-1 1s-1-.44-1-1c0-.55.45-1 1-1s1 .45 1 1zm4 0c0 .56-.45 1-1 1s-1-.44-1-1c0-.55.45-1 1-1s1 .45 1 1zm4 0c0 .56-.45 1-1 1s-1-.44-1-1c0-.55.45-1 1-1s1 .45 1 1zm4 0c0 .56-.45 1-1 1s-1-.44-1-1c0-.55.45-1 1-1s1 .45 1 1zm4 0c0 .56-.45 1-1 1s-1-.44-1-1c0-.55.45-1 1-1s1 .45 1 1zm4 0c0 .56-.45 1-1 1s-1-.44-1-1c0-.55.45-1 1-1s1 .45 1 1zm4 0c0 .56-.45 1-1 1s-1-.44-1-1c0-.55.45-1 1-1s1 .45 1 1zm4 0c0 .56-.45 1-1 1s-1-.44-1-1c0-.55.45-1 1-1s1 .45 1 1zm4 0c0 .56-.45 1-1 1s-1-.44-1-1c0-.55.45-1 1-1s1 .45 1 1zm4 0c0 .56-.45 1-1 1s-1-.44-1-1c0-.55.45-1 1-1s1 .45 1 1zm4 0c0 .56-.45 1-1 1s-1-.44-1-1c0-.55.45-1 1-1s1 .45 1 1zm4 0c0 .56-.45 1-1 1s-1-.44-1-1c0-.55.45-1 1-1s1 .45 1 1zm4 0c0 .56-.45 1-1 1s-1-.44-1-1c0-.55.45-1 1-1s1 .45 1 1zm4 0c0 .56-.45 1-1 1s-1-.44-1-1c0-.55.45-1 1-1s1 .45 1 1zm4 0c0 .56-.45 1-1 1s-1-.44-1-1c0-.55.45-1 1-1s1 .45 1 1zm4 0c0 .56-.45 1-1 1s-1-.44-1-1c0-.55.45-1 1-1s1 .45 1 1zm4 0c0 .56-.45 1-1 1s-1-.44-1-1c0-.55.45-1 1-1s1 .45 1 1zm4 0c0 .56-.45 1-1 1s-1-.44-1-1c0-.55.45-1 1-1s1 .45 1 1zm0 4c0 .56-.45 1-1 1s-1-.44-1-1c0-.55.45-1 1-1s1 .45 1 1zm0 4c0 .56-.45 1-1 1s-1-.44-1-1c0-.55.45-1 1-1s1 .45 1 1zm0 4c0 .56-.45 1-1 1s-1-.44-1-1c0-.55.45-1 1-1s1 .45 1 1zm0 4c0 .56-.45 1-1 1s-1-.44-1-1c0-.55.45-1 1-1s1 .45 1 1zm0 4c0 .56-.45 1-1 1s-1-.44-1-1c0-.55.45-1 1-1s1 .45 1 1zm0 4c0 .56-.45 1-1 1s-1-.44-1-1c0-.55.45-1 1-1s1 .45 1 1zm0 4c0 .56-.45 1-1 1s-1-.44-1-1c0-.55.45-1 1-1s1 .45 1 1zm0 4c0 .56-.45 1-1 1s-1-.44-1-1c0-.55.45-1 1-1s1 .45 1 1zm0 4c0 .56-.45 1-1 1s-1-.44-1-1c0-.55.45-1 1-1s1 .45 1 1zm0 4c0 .56-.45 1-1 1s-1-.44-1-1c0-.55.45-1 1-1s1 .45 1 1zm0 4c0 .56-.45 1-1 1s-1-.44-1-1c0-.55.45-1 1-1s1 .45 1 1zm0 4c0 .56-.45 1-1 1s-1-.44-1-1c0-.55.45-1 1-1s1 .45 1 1zm0 4c0 .56-.45 1-1 1s-1-.44-1-1c0-.55.45-1 1-1s1 .45 1 1zm0 4c0 .56-.45 1-1 1s-1-.44-1-1c0-.55.45-1 1-1s1 .45 1 1zm0 4c0 .56-.45 1-1 1s-1-.44-1-1c0-.55.45-1 1-1s1 .45 1 1zm0 4c0 .56-.45 1-1 1s-1-.44-1-1c0-.55.45-1 1-1s1 .45 1 1zm0 4c0 .56-.45 1-1 1s-1-.44-1-1c0-.55.45-1 1-1s1 .45 1 1zm0 4c0 .56-.45 1-1 1s-1-.44-1-1c0-.55.45-1 1-1s1 .45 1 1zm0 4c0 .56-.45 1-1 1s-1-.44-1-1c0-.55.45-1 1-1s1 .45 1 1zm0 4c0 .56-.45 1-1 1s-1-.44-1-1c0-.55.45-1 1-1s1 .45 1 1zm0 4c0 .56-.45 1-1 1s-1-.44-1-1c0-.55.45-1 1-1s1 .45 1 1zm0 4c0 .56-.45 1-1 1s-1-.44-1-1c0-.55.45-1 1-1s1 .45 1 1zm0 4c0 .56-.45 1-1 1s-1-.44-1-1c0-.55.45-1 1-1s1 .45 1 1zm0 4c0 .56-.45 1-1 1s-1-.44-1-1c0-.55.45-1 1-1s1 .45 1 1zm0 4c0 .56-.45 1-1 1s-1-.44-1-1c0-.55.45-1 1-1s1 .45 1 1zm0 4c0 .56-.45 1-1 1s-1-.44-1-1c0-.55.45-1 1-1s1 .45 1 1zm0 4c0 .56-.45 1-1 1s-1-.44-1-1c0-.55.45-1 1-1s1 .45 1 1zm0 4c0 .56-.45 1-1 1s-1-.44-1-1c0-.55.45-1 1-1s1 .45 1 1zm0 4c0 .56-.45 1-1 1s-1-.44-1-1c0-.55.45-1 1-1s1 .45 1 1zm0 4c0 .56-.45 1-1 1s-1-.44-1-1c0-.55.45-1 1-1s1 .45 1 1zm-4 0c0 .56-.45 1-1 1s-1-.44-1-1c0-.55.45-1 1-1s1 .45 1 1zm-4 0c0 .56-.45 1-1 1s-1-.44-1-1c0-.55.45-1 1-1s1 .45 1 1zm-4 0c0 .56-.45 1-1 1s-1-.44-1-1c0-.55.45-1 1-1s1 .45 1 1zm-4 0c0 .56-.45 1-1 1s-1-.44-1-1c0-.55.45-1 1-1s1 .45 1 1zm-4 0c0 .56-.45 1-1 1s-1-.44-1-1c0-.55.45-1 1-1s1 .45 1 1zm-4 0c0 .56-.45 1-1 1s-1-.44-1-1c0-.55.45-1 1-1s1 .45 1 1zm-4 0c0 .56-.45 1-1 1s-1-.44-1-1c0-.55.45-1 1-1s1 .45 1 1zm-4 0c0 .56-.45 1-1 1s-1-.44-1-1c0-.55.45-1 1-1s1 .45 1 1zm-4 0c0 .56-.45 1-1 1s-1-.44-1-1c0-.55.45-1 1-1s1 .45 1 1zm-4 0c0 .56-.45 1-1 1s-1-.44-1-1c0-.55.45-1 1-1s1 .45 1 1zm-4 0c0 .56-.45 1-1 1s-1-.44-1-1c0-.55.45-1 1-1s1 .45 1 1zm-4 0c0 .56-.45 1-1 1s-1-.44-1-1c0-.55.45-1 1-1s1 .45 1 1zm-4 0c0 .56-.45 1-1 1s-1-.44-1-1c0-.55.45-1 1-1s1 .45 1 1zm-4 0c0 .56-.45 1-1 1s-1-.44-1-1c0-.55.45-1 1-1s1 .45 1 1zm-4 0c0 .56-.45 1-1 1s-1-.44-1-1c0-.55.45-1 1-1s1 .45 1 1zm-4 0c0 .56-.45 1-1 1s-1-.44-1-1c0-.55.45-1 1-1s1 .45 1 1zm-4 0c0 .56-.45 1-1 1s-1-.44-1-1c0-.55.45-1 1-1s1 .45 1 1zm-4 0c0 .56-.45 1-1 1s-1-.44-1-1c0-.55.45-1 1-1s1 .45 1 1zm-4 0c0 .56-.45 1-1 1s-1-.44-1-1c0-.55.45-1 1-1s1 .45 1 1zm-4 0c0 .56-.45 1-1 1s-1-.44-1-1c0-.55.45-1 1-1s1 .45 1 1zm-4 0c0 .56-.45 1-1 1s-1-.44-1-1c0-.55.45-1 1-1s1 .45 1 1zm-4 0c0 .56-.45 1-1 1s-1-.44-1-1c0-.55.45-1 1-1s1 .45 1 1zm-4 0c0 .56-.45 1-1 1s-1-.44-1-1c0-.55.45-1 1-1s1 .45 1 1zm-4 0c0 .56-.45 1-1 1s-1-.44-1-1c0-.55.45-1 1-1s1 .45 1 1zm-4 0c0 .56-.45 1-1 1s-1-.44-1-1c0-.55.45-1 1-1s1 .45 1 1zm-4 0c0 .56-.45 1-1 1s-1-.44-1-1c0-.55.45-1 1-1s1 .45 1 1zm-4 0c0 .56-.45 1-1 1s-1-.44-1-1c0-.55.45-1 1-1s1 .45 1 1zm-4 0c0 .56-.45 1-1 1s-1-.44-1-1c0-.55.45-1 1-1s1 .45 1 1zm-4 0c0 .56-.45 1-1 1s-1-.44-1-1c0-.55.45-1 1-1s1 .45 1 1zm-4 0c0 .56-.45 1-1 1s-1-.44-1-1c0-.55.45-1 1-1s1 .45 1 1zm-4 0c0 .56-.45 1-1 1s-1-.44-1-1c0-.55.45-1 1-1s1 .45 1 1zm-4 0c0 .56-.45 1-1 1s-1-.44-1-1c0-.55.45-1 1-1s1 .45 1 1zm-4 0c0 .56-.45 1-1 1s-1-.44-1-1c0-.55.45-1 1-1s1 .45 1 1zm-4 0c0 .56-.45 1-1 1s-1-.44-1-1c0-.55.45-1 1-1s1 .45 1 1zm-4 0c0 .56-.45 1-1 1s-1-.44-1-1c0-.55.45-1 1-1s1 .45 1 1zm-4 0c0 .56-.45 1-1 1s-1-.44-1-1c0-.55.45-1 1-1s1 .45 1 1zm-4 0c0 .56-.45 1-1 1s-1-.44-1-1c0-.55.45-1 1-1s1 .45 1 1zm-4 0c0 .56-.45 1-1 1s-1-.44-1-1c0-.55.45-1 1-1s1 .45 1 1zm-4 0c0 .56-.45 1-1 1s-1-.44-1-1c0-.55.45-1 1-1s1 .45 1 1zm-4 0c0 .56-.45 1-1 1s-1-.44-1-1c0-.55.45-1 1-1s1 .45 1 1zm-4 0c0 .56-.45 1-1 1s-1-.44-1-1c0-.55.45-1 1-1s1 .45 1 1zm-4 0c0 .56-.45 1-1 1s-1-.44-1-1c0-.55.45-1 1-1s1 .45 1 1zm-4 0c0 .56-.45 1-1 1s-1-.44-1-1c0-.55.45-1 1-1s1 .45 1 1zm-4 0c0 .56-.45 1-1 1s-1-.44-1-1c0-.55.45-1 1-1s1 .45 1 1zm-4 0c0 .56-.45 1-1 1s-1-.44-1-1c0-.55.45-1 1-1s1 .45 1 1zm-4 0c0 .56-.45 1-1 1s-1-.44-1-1c0-.55.45-1 1-1s1 .45 1 1zm-4 0c0 .56-.45 1-1 1s-1-.44-1-1c0-.55.45-1 1-1s1 .45 1 1zm-4 0c0 .56-.45 1-1 1s-1-.44-1-1c0-.55.45-1 1-1s1 .45 1 1zm-4 0c0 .56-.45 1-1 1s-1-.44-1-1c0-.55.45-1 1-1s1 .45 1 1zm-4 0c0 .56-.45 1-1 1s-1-.44-1-1c0-.55.45-1 1-1s1 .45 1 1zm-4 0c0 .56-.45 1-1 1s-1-.44-1-1c0-.55.45-1 1-1s1 .45 1 1zm-4 0c0 .56-.45 1-1 1s-1-.44-1-1c0-.55.45-1 1-1s1 .45 1 1zm-4 0c0 .56-.45 1-1 1s-1-.44-1-1c0-.55.45-1 1-1s1 .45 1 1zm-4 0c0 .56-.45 1-1 1s-1-.44-1-1c0-.55.45-1 1-1s1 .45 1 1zm-4 0c0 .56-.45 1-1 1s-1-.44-1-1c0-.55.45-1 1-1s1 .45 1 1zm-4 0c0 .56-.45 1-1 1s-1-.44-1-1c0-.55.45-1 1-1s1 .45 1 1zm-4 0c0 .56-.45 1-1 1s-1-.44-1-1c0-.55.45-1 1-1s1 .45 1 1zm-4 0c0 .56-.45 1-1 1s-1-.44-1-1c0-.55.45-1 1-1s1 .45 1 1zm-4 0c0 .56-.45 1-1 1s-1-.44-1-1c0-.55.45-1 1-1s1 .45 1 1zm-4 0c0 .56-.45 1-1 1s-1-.44-1-1c0-.55.45-1 1-1s1 .45 1 1zm0-4c0 .56-.45 1-1 1s-1-.44-1-1c0-.55.45-1 1-1s1 .45 1 1zm0-4c0 .56-.45 1-1 1s-1-.44-1-1c0-.55.45-1 1-1s1 .45 1 1zm0-4c0 .56-.45 1-1 1s-1-.44-1-1c0-.55.45-1 1-1s1 .45 1 1zm0-4c0 .56-.45 1-1 1s-1-.44-1-1c0-.55.45-1 1-1s1 .45 1 1zm0-4c0 .56-.45 1-1 1s-1-.44-1-1c0-.55.45-1 1-1s1 .45 1 1zm0-4c0 .56-.45 1-1 1s-1-.44-1-1c0-.55.45-1 1-1s1 .45 1 1zm0-4c0 .56-.45 1-1 1s-1-.44-1-1c0-.55.45-1 1-1s1 .45 1 1zm0-4c0 .56-.45 1-1 1s-1-.44-1-1c0-.55.45-1 1-1s1 .45 1 1zm0-4c0 .56-.45 1-1 1s-1-.44-1-1c0-.55.45-1 1-1s1 .45 1 1zm0-4c0 .56-.45 1-1 1s-1-.44-1-1c0-.55.45-1 1-1s1 .45 1 1zm0-4c0 .56-.45 1-1 1s-1-.44-1-1c0-.55.45-1 1-1s1 .45 1 1zm0-4c0 .56-.45 1-1 1s-1-.44-1-1c0-.55.45-1 1-1s1 .45 1 1zm0-4c0 .56-.45 1-1 1s-1-.44-1-1c0-.55.45-1 1-1s1 .45 1 1zm0-4c0 .56-.45 1-1 1s-1-.44-1-1c0-.55.45-1 1-1s1 .45 1 1zm0-4c0 .56-.45 1-1 1s-1-.44-1-1c0-.55.45-1 1-1s1 .45 1 1zm0-4c0 .56-.45 1-1 1s-1-.44-1-1c0-.55.45-1 1-1s1 .45 1 1zm0-4c0 .56-.45 1-1 1s-1-.44-1-1c0-.55.45-1 1-1s1 .45 1 1zm0-4c0 .56-.45 1-1 1s-1-.44-1-1c0-.55.45-1 1-1s1 .45 1 1zm0-4c0 .56-.45 1-1 1s-1-.44-1-1c0-.55.45-1 1-1s1 .45 1 1zm0-4c0 .56-.45 1-1 1s-1-.44-1-1c0-.55.45-1 1-1s1 .45 1 1zm0-4c0 .56-.45 1-1 1s-1-.44-1-1c0-.55.45-1 1-1s1 .45 1 1zm0-4c0 .56-.45 1-1 1s-1-.44-1-1c0-.55.45-1 1-1s1 .45 1 1zm0-4c0 .56-.45 1-1 1s-1-.44-1-1c0-.55.45-1 1-1s1 .45 1 1zm0-4c0 .56-.45 1-1 1s-1-.44-1-1c0-.55.45-1 1-1s1 .45 1 1zm0-4c0 .56-.45 1-1 1s-1-.44-1-1c0-.55.45-1 1-1s1 .45 1 1zm0-4c0 .56-.45 1-1 1s-1-.44-1-1c0-.55.45-1 1-1s1 .45 1 1zm0-4c0 .56-.45 1-1 1s-1-.44-1-1c0-.55.45-1 1-1s1 .45 1 1zm0-4c0 .56-.45 1-1 1s-1-.44-1-1c0-.55.45-1 1-1s1 .45 1 1zm0-4c0 .56-.45 1-1 1s-1-.44-1-1c0-.55.45-1 1-1s1 .45 1 1z" fill="#333" />
    <use xlink:href="#W" transform="matrix(1,0,0,1,288,919.0733333332169) translate(20.599999999999994 34)" />
    <use xlink:href="#X" transform="matrix(1,0,0,1,288,919.0733333332169) translate(67.55 34)" />
    <use xlink:href="#Y" transform="matrix(1,0,0,1,288,919.0733333332169) translate(87.55 34)" />
    <use xlink:href="#Z" transform="matrix(1,0,0,1,288,919.0733333332169) translate(122.55 34)" />
    <use xlink:href="#aa" transform="matrix(1,0,0,1,288,919.0733333332169) translate(143.5 34)" />
    <use xlink:href="#ab" transform="matrix(1,0,0,1,288,919.0733333332169) translate(9.099999999999994 55.6)" />
    <use xlink:href="#ac" transform="matrix(1,0,0,1,288,919.0733333332169) translate(56.099999999999994 55.6)" />
    <use xlink:href="#ad" transform="matrix(1,0,0,1,288,919.0733333332169) translate(105.05 55.6)" />
    <use xlink:href="#ae" transform="matrix(1,0,0,1,288,919.0733333332169) translate(141.95000000000002 55.6)" />
    <use xlink:href="#af" transform="matrix(1,0,0,1,288,919.0733333332169) translate(36.075 77.2)" />
    <use xlink:href="#ag" transform="matrix(1,0,0,1,288,919.0733333332169) translate(66.075 77.2)" />
    <use xlink:href="#ah" transform="matrix(1,0,0,1,288,919.0733333332169) translate(116.025 77.2)" />
    <use xlink:href="#af" transform="matrix(1,0,0,1,288,919.0733333332169) translate(136.025 77.2)" />
    <use xlink:href="#ai" transform="matrix(1,0,0,1,288,919.0733333332169) translate(166.02499999999998 77.2)" />
    <path d="M522 971.07c0 .28-.22.5-.5.5s-.5-.22-.5-.5c0-.27.22-.5.5-.5s.5.23.5.5zm2.03 0c0 .28-.23.5-.5.5-.28 0-.5-.22-.5-.5 0-.27.22-.5.5-.5.27 0 .5.23.5.5zm2.03 0c0 .28-.23.5-.5.5-.28 0-.5-.22-.5-.5 0-.27.22-.5.5-.5.27 0 .5.23.5.5zm2.02 0c0 .28-.22.5-.5.5-.27 0-.5-.22-.5-.5 0-.27.23-.5.5-.5.28 0 .5.23.5.5zm2.03 0c0 .28-.2.5-.5.5-.27 0-.5-.22-.5-.5 0-.27.23-.5.5-.5.3 0 .5.23.5.5zm2.04 0c0 .28-.22.5-.5.5s-.5-.22-.5-.5c0-.27.22-.5.5-.5s.5.23.5.5zm2.03 0c0 .28-.23.5-.5.5-.28 0-.5-.22-.5-.5 0-.27.22-.5.5-.5.27 0 .5.23.5.5zm2.02 0c0 .28-.23.5-.5.5-.28 0-.5-.22-.5-.5 0-.27.22-.5.5-.5.27 0 .5.23.5.5zm2.02 0c0 .28-.22.5-.5.5-.27 0-.5-.22-.5-.5 0-.27.23-.5.5-.5.28 0 .5.23.5.5zm2.03 0c0 .28-.22.5-.5.5s-.5-.22-.5-.5c0-.27.22-.5.5-.5s.5.23.5.5zm2.03 0c0 .28-.23.5-.5.5-.28 0-.5-.22-.5-.5 0-.27.22-.5.5-.5.27 0 .5.23.5.5zm2.03 0c0 .28-.22.5-.5.5-.27 0-.5-.22-.5-.5 0-.27.23-.5.5-.5.28 0 .5.23.5.5zm2.03 0c0 .28-.22.5-.5.5-.27 0-.5-.22-.5-.5 0-.27.23-.5.5-.5.28 0 .5.23.5.5zm2.03 0c0 .28-.22.5-.5.5s-.5-.22-.5-.5c0-.27.22-.5.5-.5s.5.23.5.5zm2.03 0c0 .28-.23.5-.5.5-.3 0-.5-.22-.5-.5 0-.27.2-.5.5-.5.27 0 .5.23.5.5zm2.02 0c0 .28-.23.5-.5.5-.28 0-.5-.22-.5-.5 0-.27.22-.5.5-.5.27 0 .5.23.5.5zm2.02 0c0 .28-.22.5-.5.5-.27 0-.5-.22-.5-.5 0-.27.23-.5.5-.5.28 0 .5.23.5.5zm2.03 0c0 .28-.22.5-.5.5-.27 0-.5-.22-.5-.5 0-.27.23-.5.5-.5.28 0 .5.23.5.5zm2.03 0c0 .28-.22.5-.5.5s-.5-.22-.5-.5c0-.27.22-.5.5-.5s.5.23.5.5zm2.07-.27c0 .28-.22.5-.5.5s-.5-.22-.5-.5c0-.27.22-.5.5-.5s.5.23.5.5zm2-.53c0 .27-.22.5-.5.5-.27 0-.5-.23-.5-.5 0-.28.23-.5.5-.5.28 0 .5.22.5.5zm1.93-.8c0 .27-.22.5-.5.5s-.5-.23-.5-.5c0-.28.22-.5.5-.5s.5.22.5.5zm1.66-1.28c0 .27-.23.5-.5.5-.28 0-.5-.23-.5-.5 0-.28.22-.5.5-.5.27 0 .5.22.5.5zm1.46-1.47c0 .28-.22.5-.5.5-.27 0-.5-.22-.5-.5s.23-.5.5-.5c.28 0 .5.22.5.5zm1.27-1.66c0 .28-.23.5-.5.5-.28 0-.5-.22-.5-.5 0-.27.22-.5.5-.5.27 0 .5.23.5.5zm.8-1.92c0 .27-.23.5-.5.5-.28 0-.5-.23-.5-.5 0-.28.22-.5.5-.5.27 0 .5.22.5.5zm.53-2c0 .27-.23.5-.5.5-.28 0-.5-.23-.5-.5 0-.28.22-.5.5-.5.27 0 .5.22.5.5zm.27-2.08c0 .28-.22.5-.5.5s-.5-.22-.5-.5c0-.27.22-.5.5-.5s.5.23.5.5zm0-2c0 .28-.22.5-.5.5s-.5-.22-.5-.5c0-.27.22-.5.5-.5s.5.23.5.5zm0-2c0 .28-.22.5-.5.5s-.5-.22-.5-.5.22-.5.5-.5.5.22.5.5zm0-2c0 .27-.22.5-.5.5s-.5-.23-.5-.5c0-.28.22-.5.5-.5s.5.22.5.5zm0-2c0 .27-.22.5-.5.5s-.5-.23-.5-.5c0-.28.22-.5.5-.5s.5.22.5.5zm0-2c0 .27-.22.5-.5.5s-.5-.23-.5-.5c0-.28.22-.5.5-.5s.5.22.5.5zm0-2c0 .27-.22.5-.5.5s-.5-.23-.5-.5c0-.28.22-.5.5-.5s.5.22.5.5zm0-2c0 .27-.22.5-.5.5s-.5-.23-.5-.5c0-.3.22-.5.5-.5s.5.2.5.5zm0-2c0 .26-.22.5-.5.5s-.5-.24-.5-.5c0-.3.22-.5.5-.5s.5.2.5.5zm0-2c0 .26-.22.5-.5.5s-.5-.24-.5-.5c0-.3.22-.5.5-.5s.5.2.5.5zm0-2.02c0 .28-.22.5-.5.5s-.5-.22-.5-.5c0-.27.22-.5.5-.5s.5.23.5.5zm0-2c0 .28-.22.5-.5.5s-.5-.22-.5-.5c0-.27.22-.5.5-.5s.5.23.5.5zm0-2c0 .28-.22.5-.5.5s-.5-.22-.5-.5.22-.5.5-.5.5.22.5.5zm0-2c0 .27-.22.5-.5.5s-.5-.23-.5-.5c0-.28.22-.5.5-.5s.5.22.5.5zm0-2c0 .27-.22.5-.5.5s-.5-.23-.5-.5c0-.28.22-.5.5-.5s.5.22.5.5zm0-2c0 .27-.22.5-.5.5s-.5-.23-.5-.5c0-.28.22-.5.5-.5s.5.22.5.5zm0-2c0 .27-.22.5-.5.5s-.5-.23-.5-.5c0-.28.22-.5.5-.5s.5.22.5.5zm0-2c0 .27-.22.5-.5.5s-.5-.23-.5-.5c0-.3.22-.5.5-.5s.5.2.5.5zm0-2c0 .26-.22.5-.5.5s-.5-.24-.5-.5c0-.3.22-.5.5-.5s.5.2.5.5zm0-2c0 .26-.22.5-.5.5s-.5-.24-.5-.5c0-.3.22-.5.5-.5s.5.2.5.5zm0-2.02c0 .28-.22.5-.5.5s-.5-.22-.5-.5c0-.27.22-.5.5-.5s.5.23.5.5zm0-2c0 .28-.22.5-.5.5s-.5-.22-.5-.5c0-.27.22-.5.5-.5s.5.23.5.5zm0-2c0 .28-.22.5-.5.5s-.5-.22-.5-.5.22-.5.5-.5.5.22.5.5zm0-2c0 .27-.22.5-.5.5s-.5-.23-.5-.5c0-.28.22-.5.5-.5s.5.22.5.5zm0-2c0 .27-.22.5-.5.5s-.5-.23-.5-.5c0-.28.22-.5.5-.5s.5.22.5.5zm0-2c0 .27-.22.5-.5.5s-.5-.23-.5-.5c0-.28.22-.5.5-.5s.5.22.5.5zm0-2c0 .27-.22.5-.5.5s-.5-.23-.5-.5c0-.28.22-.5.5-.5s.5.22.5.5zm0-2c0 .27-.22.5-.5.5s-.5-.23-.5-.5c0-.3.22-.5.5-.5s.5.2.5.5zm0-2c0 .26-.22.5-.5.5s-.5-.24-.5-.5c0-.3.22-.5.5-.5s.5.2.5.5zm0-2c0 .26-.22.5-.5.5s-.5-.24-.5-.5c0-.3.22-.5.5-.5s.5.2.5.5zm0-2.02c0 .3-.22.5-.5.5s-.5-.2-.5-.5c0-.26.22-.5.5-.5s.5.24.5.5zm0-2c0 .3-.22.5-.5.5s-.5-.2-.5-.5c0-.26.22-.5.5-.5s.5.24.5.5zm0-2c0 .3-.22.5-.5.5s-.5-.2-.5-.5c0-.27.22-.5.5-.5s.5.23.5.5zm0-2c0 .28-.22.5-.5.5s-.5-.22-.5-.5c0-.27.22-.5.5-.5s.5.23.5.5zm0-2c0 .28-.22.5-.5.5s-.5-.22-.5-.5c0-.27.22-.5.5-.5s.5.23.5.5zm0-2c0 .28-.22.5-.5.5s-.5-.22-.5-.5c0-.27.22-.5.5-.5s.5.23.5.5zm0-2c0 .28-.22.5-.5.5s-.5-.22-.5-.5c0-.27.22-.5.5-.5s.5.23.5.5zm0-2c0 .28-.22.5-.5.5s-.5-.22-.5-.5.22-.5.5-.5.5.22.5.5zm0-2c0 .27-.22.5-.5.5s-.5-.23-.5-.5c0-.28.22-.5.5-.5s.5.22.5.5zm0-2c0 .27-.22.5-.5.5s-.5-.23-.5-.5c0-.28.22-.5.5-.5s.5.22.5.5zm0-2c0 .27-.22.5-.5.5s-.5-.23-.5-.5c0-.28.22-.5.5-.5s.5.22.5.5zm0-2c0 .27-.22.5-.5.5s-.5-.23-.5-.5c0-.28.22-.5.5-.5s.5.22.5.5zm0-2c0 .27-.22.5-.5.5s-.5-.23-.5-.5c0-.3.22-.5.5-.5s.5.2.5.5z" fill="#333" />
    <path d="M521.5 971.57h-.5v-1h.5M570.5 873h-1v-.5h1" fill="#333" />
    <path d="M1420 493.5V536" stroke="#333" fill="none" />
    <path d="M1420.5 493.5h-1v-.5h1" fill="#333" />
    <path d="M1420 558.02l-12.73-21.52h25.46z" stroke="#333" fill="#fff" />
    <path d="M1420 744.5V702" stroke="#333" fill="none" />
    <path d="M1420.5 745h-1v-.5h1" fill="#333" />
    <path d="M1420 679.98l12.73 21.52h-25.46z" stroke="#333" fill="#fff" />
    <path d="M230 279.5V307c0 6.63 5.37 12 12 12h126c6.63 0 12 5.37 12 12v5" stroke="#333" fill="none" />
    <path d="M230.5 279.5h-1v-.5h1" fill="#333" />
    <path d="M380 358.02l-12.73-21.52h25.46z" stroke="#333" fill="#fff" />
    <path d="M570 279.5V307c0 6.63-5.37 12-12 12H392c-6.63 0-12 5.37-12 12v5" stroke="#333" fill="none" />
    <path d="M570.5 279.5h-1v-.5h1" fill="#333" />
    <path d="M380 358.02l-12.73-21.52h25.46z" stroke="#333" fill="#fff" />
    <path d="M190 752v-24.26c0-6.62 5.37-12 12-12h166c6.63 0 12-5.37 12-12V702" stroke="#333" fill="none" />
    <path d="M190.5 752.5h-1v-.53h1" fill="#333" />
    <path d="M380 679.98l12.73 21.52h-25.46z" stroke="#333" fill="#fff" />
    <path d="M570 752v-24.26c0-6.62-5.37-12-12-12H392c-6.63 0-12-5.37-12-12V702" stroke="#333" fill="none" />
    <path d="M570.5 752.5h-1v-.53h1" fill="#333" />
    <path d="M380 679.98l12.73 21.52h-25.46z" stroke="#333" fill="#fff" />
    <path d="M900 446.66v-78.3" stroke="#333" fill="none" />
    <path d="M900.5 447.16h-1v-.52h1" fill="#333" />
    <path d="M900 338.7l14.85 14.86L900 368.7l-14.85-15.14z" stroke="#333" fill="#fff" />
    <path d="M1238.5 619H1172c-6.63 0-12-5.37-12-12V260.5c0-6.63-5.37-12-12-12h-66.5" stroke="#333" fill="none" />
    <path d="M1239 619.5h-.5v-1h.5M1081.5 249h-.5v-1h.5" fill="#333" />
    <path d="M1081.5 687.16h66.5c6.63 0 12-5.38 12-12V631c0-6.63 5.37-12 12-12h66.5" stroke="#333" fill="none" />
    <path d="M1081.5 687.66h-.5v-1h.5M1239 619.5h-.5v-1h.5" fill="#333" />
    <path d="M561.5 619H628c6.63 0 12 5.37 12 12v44.16c0 6.62 5.37 12 12 12h66.5" stroke="#333" fill="none" />
    <path d="M561.5 619.5h-.5v-1h.5M719 687.66h-.5v-1h.5" fill="#333" />
    <path d="M561.5 419H628c6.63 0 12-5.37 12-12v-94.66c0-6.62 5.37-12 12-12h66.5" stroke="#333" fill="none" />
    <path d="M561.5 419.5h-.5v-1h.5M719 300.84h-.5v-1h.5" fill="#333" />
    <path d="M561.5 619h27c6.63 0 12-5.37 12-12V423.53c0-6.62 5.37-12 12-12h27" stroke="#333" fill="none" />
    <path d="M561.5 619.5h-.5v-1h.5" fill="#333" />
    <path d="M639.5 411.53h.5M561.5 419h70.72" stroke="#333" fill="none" />
    <path d="M561.5 419.5h-.5v-1h.5" fill="#333" />
    <path d="M632.2 419h.52" stroke="#333" fill="none" />
    <path d="M1240 173.5h360v91h-360z" stroke="#333" stroke-width="2" fill="#fff" />
    <path d="M1240 211.1h360" stroke="#333" stroke-width="2" fill="none" />
    <g>
      <use xlink:href="#aj" transform="matrix(1,0,0,1,1248,181.5) translate(133.275 14.6)" />
    </g>
    <g>
      <use xlink:href="#ak" transform="matrix(1,0,0,1,1252,219.1) translate(100.375 22.6)" />
      <use xlink:href="#al" transform="matrix(1,0,0,1,1252,219.1) translate(198.675 22.6)" />
    </g>
    <path d="M1238.5 219H1172c-6.63 0-12 5.37-12 12v5.5c0 6.63-5.37 12-12 12h-66.5" stroke="#333" fill="none" />
    <path d="M1239 219.5h-.5v-1h.5M1081.5 249h-.5v-1h.5" fill="#333" />
    <defs>
      <path d="M136-208V0H84v-208H4v-40h212v40h-80" id="am" />
      <path d="M133-34C117-15 103 5 69 4 32 3 11-16 11-54c-1-60 55-63 116-61 1-26-3-47-28-47-18 1-26 9-28 27l-52-2c7-38 36-58 82-57s74 22 75 68l1 82c-1 14 12 18 25 15v27c-30 8-71 5-69-32zm-48 3c29 0 43-24 42-57-32 0-66-3-65 30 0 17 8 27 23 27" id="an" />
      <path d="M137-138c1-29-70-34-71-4 15 46 118 7 119 86 1 83-164 76-172 9l43-7c4 19 20 25 44 25 33 8 57-30 24-41C81-84 22-81 20-136c-2-80 154-74 161-7" id="ao" />
      <path d="M147 0L96-86 75-71V0H25v-261h50v150l67-79h53l-66 74L201 0h-54" id="ap" />
      <g id="a">
        <use transform="matrix(0.05,0,0,0.05,0,0)" xlink:href="#am" />
        <use transform="matrix(0.05,0,0,0.05,9.600000000000001,0)" xlink:href="#an" />
        <use transform="matrix(0.05,0,0,0.05,19.6,0)" xlink:href="#ao" />
        <use transform="matrix(0.05,0,0,0.05,29.6,0)" xlink:href="#ap" />
      </g>
      <path fill="#333" d="M16-82v-28h88v28H16" id="aq" />
      <path fill="#333" d="M117-194c89-4 53 116 60 194h-32v-121c0-31-8-49-39-48C34-167 62-67 57 0H25l-1-190h30c1 10-1 24 2 32 11-22 29-35 61-36" id="ar" />
      <path fill="#333" d="M141-36C126-15 110 5 73 4 37 3 15-17 15-53c-1-64 63-63 125-63 3-35-9-54-41-54-24 1-41 7-42 31l-33-3c5-37 33-52 76-52 45 0 72 20 72 64v82c-1 20 7 32 28 27v20c-31 9-61-2-59-35zM48-53c0 20 12 33 32 33 41-3 63-29 60-74-43 2-92-5-92 41" id="as" />
      <path fill="#333" d="M210-169c-67 3-38 105-44 169h-31v-121c0-29-5-50-35-48C34-165 62-65 56 0H25l-1-190h30c1 10-1 24 2 32 10-44 99-50 107 0 11-21 27-35 58-36 85-2 47 119 55 194h-31v-121c0-29-5-49-35-48" id="at" />
      <path fill="#333" d="M100-194c63 0 86 42 84 106H49c0 40 14 67 53 68 26 1 43-12 49-29l28 8c-11 28-37 45-77 45C44 4 14-33 15-96c1-61 26-98 85-98zm52 81c6-60-76-77-97-28-3 7-6 17-6 28h103" id="au" />
      <path fill="#333" d="M33-154v-36h34v36H33zM33 0v-36h34V0H33" id="av" />
      <g id="b">
        <use transform="matrix(0.05,0,0,0.05,0,0)" xlink:href="#aq" />
        <use transform="matrix(0.05,0,0,0.05,5.95,0)" xlink:href="#ar" />
        <use transform="matrix(0.05,0,0,0.05,15.949999999999998,0)" xlink:href="#as" />
        <use transform="matrix(0.05,0,0,0.05,25.950000000000003,0)" xlink:href="#at" />
        <use transform="matrix(0.05,0,0,0.05,40.9,0)" xlink:href="#au" />
        <use transform="matrix(0.05,0,0,0.05,50.9,0)" xlink:href="#av" />
      </g>
      <path fill="#333" d="M135-143c-3-34-86-38-87 0 15 53 115 12 119 90S17 21 10-45l28-5c4 36 97 45 98 0-10-56-113-15-118-90-4-57 82-63 122-42 12 7 21 19 24 35" id="aw" />
      <path fill="#333" d="M59-47c-2 24 18 29 38 22v24C64 9 27 4 27-40v-127H5v-23h24l9-43h21v43h35v23H59v120" id="ax" />
      <path fill="#333" d="M114-163C36-179 61-72 57 0H25l-1-190h30c1 12-1 29 2 39 6-27 23-49 58-41v29" id="ay" />
      <path fill="#333" d="M24-231v-30h32v30H24zM24 0v-190h32V0H24" id="az" />
      <path fill="#333" d="M177-190C167-65 218 103 67 71c-23-6-38-20-44-43l32-5c15 47 100 32 89-28v-30C133-14 115 1 83 1 29 1 15-40 15-95c0-56 16-97 71-98 29-1 48 16 59 35 1-10 0-23 2-32h30zM94-22c36 0 50-32 50-73 0-42-14-75-50-75-39 0-46 34-46 75s6 73 46 73" id="aA" />
      <g id="c">
        <use transform="matrix(0.05,0,0,0.05,0,0)" xlink:href="#aw" />
        <use transform="matrix(0.05,0,0,0.05,9,0)" xlink:href="#ax" />
        <use transform="matrix(0.05,0,0,0.05,14,0)" xlink:href="#ay" />
        <use transform="matrix(0.05,0,0,0.05,19.95,0)" xlink:href="#az" />
        <use transform="matrix(0.05,0,0,0.05,23.9,0)" xlink:href="#ar" />
        <use transform="matrix(0.05,0,0,0.05,33.9,0)" xlink:href="#aA" />
      </g>
      <path fill="#333" d="M85-194c31 0 48 13 60 33l-1-100h32l1 261h-30c-2-10 0-23-3-31C134-8 116 4 85 4 32 4 16-35 15-94c0-66 23-100 70-100zm9 24c-40 0-46 34-46 75 0 40 6 74 45 74 42 0 51-32 51-76 0-42-9-74-50-73" id="aB" />
      <path fill="#333" d="M96-169c-40 0-48 33-48 73s9 75 48 75c24 0 41-14 43-38l32 2c-6 37-31 61-74 61-59 0-76-41-82-99-10-93 101-131 147-64 4 7 5 14 7 22l-32 3c-4-21-16-35-41-35" id="aC" />
      <path fill="#333" d="M115-194c55 1 70 41 70 98S169 2 115 4C84 4 66-9 55-30l1 105H24l-1-265h31l2 30c10-21 28-34 59-34zm-8 174c40 0 45-34 45-75s-6-73-45-74c-42 0-51 32-51 76 0 43 10 73 51 73" id="aD" />
      <path fill="#333" d="M100-194c62-1 85 37 85 99 1 63-27 99-86 99S16-35 15-95c0-66 28-99 85-99zM99-20c44 1 53-31 53-75 0-43-8-75-51-75s-53 32-53 75 10 74 51 75" id="aE" />
      <g id="d">
        <use transform="matrix(0.05,0,0,0.05,0,0)" xlink:href="#aq" />
        <use transform="matrix(0.05,0,0,0.05,5.95,0)" xlink:href="#aB" />
        <use transform="matrix(0.05,0,0,0.05,15.949999999999998,0)" xlink:href="#au" />
        <use transform="matrix(0.05,0,0,0.05,25.950000000000003,0)" xlink:href="#aw" />
        <use transform="matrix(0.05,0,0,0.05,34.95,0)" xlink:href="#aC" />
        <use transform="matrix(0.05,0,0,0.05,43.95,0)" xlink:href="#ay" />
        <use transform="matrix(0.05,0,0,0.05,49.900000000000006,0)" xlink:href="#az" />
        <use transform="matrix(0.05,0,0,0.05,53.85,0)" xlink:href="#aD" />
        <use transform="matrix(0.05,0,0,0.05,63.85,0)" xlink:href="#ax" />
        <use transform="matrix(0.05,0,0,0.05,68.85000000000001,0)" xlink:href="#az" />
        <use transform="matrix(0.05,0,0,0.05,72.80000000000001,0)" xlink:href="#aE" />
        <use transform="matrix(0.05,0,0,0.05,82.80000000000001,0)" xlink:href="#ar" />
        <use transform="matrix(0.05,0,0,0.05,92.80000000000001,0)" xlink:href="#av" />
      </g>
      <path fill="#333" d="M179-190L93 31C79 59 56 82 12 73V49c39 6 53-20 64-50L1-190h34L92-34l54-156h33" id="aF" />
      <g id="e">
        <use transform="matrix(0.05,0,0,0.05,0,0)" xlink:href="#aq" />
        <use transform="matrix(0.05,0,0,0.05,5.95,0)" xlink:href="#aD" />
        <use transform="matrix(0.05,0,0,0.05,15.949999999999998,0)" xlink:href="#ay" />
        <use transform="matrix(0.05,0,0,0.05,21.9,0)" xlink:href="#az" />
        <use transform="matrix(0.05,0,0,0.05,25.849999999999994,0)" xlink:href="#aE" />
        <use transform="matrix(0.05,0,0,0.05,35.849999999999994,0)" xlink:href="#ay" />
        <use transform="matrix(0.05,0,0,0.05,41.8,0)" xlink:href="#az" />
        <use transform="matrix(0.05,0,0,0.05,45.75,0)" xlink:href="#ax" />
        <use transform="matrix(0.05,0,0,0.05,50.75,0)" xlink:href="#aF" />
        <use transform="matrix(0.05,0,0,0.05,59.75,0)" xlink:href="#av" />
      </g>
      <g id="f">
        <use transform="matrix(0.05,0,0,0.05,0,0)" xlink:href="#az" />
        <use transform="matrix(0.05,0,0,0.05,3.95,0)" xlink:href="#ar" />
        <use transform="matrix(0.05,0,0,0.05,13.949999999999998,0)" xlink:href="#ax" />
      </g>
      <path fill="#333" d="M24 0v-261h32V0H24" id="aG" />
      <path fill="#333" d="M101-234c-31-9-42 10-38 44h38v23H63V0H32v-167H5v-23h27c-7-52 17-82 69-68v24" id="aH" />
      <g id="g">
        <use transform="matrix(0.05,0,0,0.05,0,0)" xlink:href="#aq" />
        <use transform="matrix(0.05,0,0,0.05,5.95,0)" xlink:href="#aC" />
        <use transform="matrix(0.05,0,0,0.05,14.949999999999998,0)" xlink:href="#aG" />
        <use transform="matrix(0.05,0,0,0.05,18.9,0)" xlink:href="#as" />
        <use transform="matrix(0.05,0,0,0.05,28.899999999999995,0)" xlink:href="#aw" />
        <use transform="matrix(0.05,0,0,0.05,37.9,0)" xlink:href="#aw" />
        <use transform="matrix(0.05,0,0,0.05,46.9,0)" xlink:href="#az" />
        <use transform="matrix(0.05,0,0,0.05,50.85,0)" xlink:href="#aH" />
        <use transform="matrix(0.05,0,0,0.05,55.85,0)" xlink:href="#az" />
        <use transform="matrix(0.05,0,0,0.05,59.800000000000004,0)" xlink:href="#aC" />
        <use transform="matrix(0.05,0,0,0.05,68.80000000000001,0)" xlink:href="#as" />
        <use transform="matrix(0.05,0,0,0.05,78.80000000000001,0)" xlink:href="#ax" />
        <use transform="matrix(0.05,0,0,0.05,83.80000000000001,0)" xlink:href="#az" />
        <use transform="matrix(0.05,0,0,0.05,87.75000000000001,0)" xlink:href="#aE" />
        <use transform="matrix(0.05,0,0,0.05,97.75000000000001,0)" xlink:href="#ar" />
        <use transform="matrix(0.05,0,0,0.05,107.75,0)" xlink:href="#av" />
      </g>
      <path fill="#333" d="M84 4C-5 8 30-112 23-190h32v120c0 31 7 50 39 49 72-2 45-101 50-169h31l1 190h-30c-1-10 1-25-2-33-11 22-28 36-60 37" id="aI" />
      <path fill="#333" d="M30-248c118-7 216 8 213 122C240-48 200 0 122 0H30v-248zM63-27c89 8 146-16 146-99s-60-101-146-95v194" id="aJ" />
      <g id="h">
        <use transform="matrix(0.05,0,0,0.05,0,0)" xlink:href="#aq" />
        <use transform="matrix(0.05,0,0,0.05,5.95,0)" xlink:href="#aB" />
        <use transform="matrix(0.05,0,0,0.05,15.949999999999998,0)" xlink:href="#aI" />
        <use transform="matrix(0.05,0,0,0.05,25.950000000000003,0)" xlink:href="#au" />
        <use transform="matrix(0.05,0,0,0.05,35.95,0)" xlink:href="#aJ" />
        <use transform="matrix(0.05,0,0,0.05,48.900000000000006,0)" xlink:href="#as" />
        <use transform="matrix(0.05,0,0,0.05,58.900000000000006,0)" xlink:href="#ax" />
        <use transform="matrix(0.05,0,0,0.05,63.900000000000006,0)" xlink:href="#au" />
        <use transform="matrix(0.05,0,0,0.05,73.9,0)" xlink:href="#av" />
      </g>
      <g id="i">
        <use transform="matrix(0.05,0,0,0.05,0,0)" xlink:href="#aq" />
        <use transform="matrix(0.05,0,0,0.05,5.95,0)" xlink:href="#aB" />
        <use transform="matrix(0.05,0,0,0.05,15.949999999999998,0)" xlink:href="#aI" />
        <use transform="matrix(0.05,0,0,0.05,25.950000000000003,0)" xlink:href="#ay" />
        <use transform="matrix(0.05,0,0,0.05,31.899999999999995,0)" xlink:href="#as" />
        <use transform="matrix(0.05,0,0,0.05,41.9,0)" xlink:href="#ax" />
        <use transform="matrix(0.05,0,0,0.05,46.9,0)" xlink:href="#az" />
        <use transform="matrix(0.05,0,0,0.05,50.85,0)" xlink:href="#aE" />
        <use transform="matrix(0.05,0,0,0.05,60.85,0)" xlink:href="#ar" />
        <use transform="matrix(0.05,0,0,0.05,70.85,0)" xlink:href="#av" />
      </g>
      <g id="j">
        <use transform="matrix(0.05,0,0,0.05,0,0)" xlink:href="#az" />
        <use transform="matrix(0.05,0,0,0.05,3.95,0)" xlink:href="#ar" />
        <use transform="matrix(0.05,0,0,0.05,13.949999999999998,0)" xlink:href="#ax" />
      </g>
      <path fill="#333" d="M118-107v75H92v-75H18v-26h74v-75h26v75h74v26h-74" id="aK" />
      <path fill="#333" d="M190 0L58-211 59 0H30v-248h39L202-35l-2-213h31V0h-41" id="aL" />
      <path fill="#333" d="M87 75C49 33 22-17 22-94c0-76 28-126 65-167h31c-38 41-64 92-64 168S80 34 118 75H87" id="aM" />
      <path fill="#333" d="M33-261c38 41 65 92 65 168S71 34 33 75H2C39 34 66-17 66-93S39-220 2-261h31" id="aN" />
      <g id="k">
        <use transform="matrix(0.05,0,0,0.05,0,0)" xlink:href="#aK" />
        <use transform="matrix(0.05,0,0,0.05,10.5,0)" xlink:href="#aw" />
        <use transform="matrix(0.05,0,0,0.05,19.5,0)" xlink:href="#au" />
        <use transform="matrix(0.05,0,0,0.05,29.5,0)" xlink:href="#ax" />
        <use transform="matrix(0.05,0,0,0.05,34.5,0)" xlink:href="#aL" />
        <use transform="matrix(0.05,0,0,0.05,47.45,0)" xlink:href="#as" />
        <use transform="matrix(0.05,0,0,0.05,57.45,0)" xlink:href="#at" />
        <use transform="matrix(0.05,0,0,0.05,72.4,0)" xlink:href="#au" />
        <use transform="matrix(0.05,0,0,0.05,82.4,0)" xlink:href="#aM" />
        <use transform="matrix(0.05,0,0,0.05,88.35000000000001,0)" xlink:href="#aN" />
        <use transform="matrix(0.05,0,0,0.05,94.30000000000001,0)" xlink:href="#av" />
      </g>
      <path fill="#333" d="M108 0H70L1-190h34L89-25l56-165h34" id="aO" />
      <g id="l">
        <use transform="matrix(0.05,0,0,0.05,0,0)" xlink:href="#aO" />
        <use transform="matrix(0.05,0,0,0.05,9,0)" xlink:href="#aE" />
        <use transform="matrix(0.05,0,0,0.05,19,0)" xlink:href="#az" />
        <use transform="matrix(0.05,0,0,0.05,22.95,0)" xlink:href="#aB" />
      </g>
      <g id="m">
        <use transform="matrix(0.05,0,0,0.05,0,0)" xlink:href="#aK" />
        <use transform="matrix(0.05,0,0,0.05,10.5,0)" xlink:href="#aw" />
        <use transform="matrix(0.05,0,0,0.05,19.5,0)" xlink:href="#au" />
        <use transform="matrix(0.05,0,0,0.05,29.5,0)" xlink:href="#ax" />
        <use transform="matrix(0.05,0,0,0.05,34.5,0)" xlink:href="#aJ" />
        <use transform="matrix(0.05,0,0,0.05,47.45,0)" xlink:href="#au" />
        <use transform="matrix(0.05,0,0,0.05,57.45,0)" xlink:href="#aw" />
        <use transform="matrix(0.05,0,0,0.05,66.45,0)" xlink:href="#aC" />
        <use transform="matrix(0.05,0,0,0.05,75.45,0)" xlink:href="#ay" />
        <use transform="matrix(0.05,0,0,0.05,81.4,0)" xlink:href="#az" />
        <use transform="matrix(0.05,0,0,0.05,85.35000000000001,0)" xlink:href="#aD" />
        <use transform="matrix(0.05,0,0,0.05,95.35000000000001,0)" xlink:href="#ax" />
        <use transform="matrix(0.05,0,0,0.05,100.35000000000001,0)" xlink:href="#az" />
        <use transform="matrix(0.05,0,0,0.05,104.30000000000001,0)" xlink:href="#aE" />
        <use transform="matrix(0.05,0,0,0.05,114.30000000000001,0)" xlink:href="#ar" />
        <use transform="matrix(0.05,0,0,0.05,124.30000000000001,0)" xlink:href="#aM" />
        <use transform="matrix(0.05,0,0,0.05,130.25,0)" xlink:href="#aN" />
        <use transform="matrix(0.05,0,0,0.05,136.2,0)" xlink:href="#av" />
      </g>
      <path fill="#333" d="M30-248c87 1 191-15 191 75 0 78-77 80-158 76V0H30v-248zm33 125c57 0 124 11 124-50 0-59-68-47-124-48v98" id="aP" />
      <g id="n">
        <use transform="matrix(0.05,0,0,0.05,0,0)" xlink:href="#aK" />
        <use transform="matrix(0.05,0,0,0.05,10.5,0)" xlink:href="#aw" />
        <use transform="matrix(0.05,0,0,0.05,19.5,0)" xlink:href="#au" />
        <use transform="matrix(0.05,0,0,0.05,29.5,0)" xlink:href="#ax" />
        <use transform="matrix(0.05,0,0,0.05,34.5,0)" xlink:href="#aP" />
        <use transform="matrix(0.05,0,0,0.05,46.5,0)" xlink:href="#ay" />
        <use transform="matrix(0.05,0,0,0.05,52.45,0)" xlink:href="#az" />
        <use transform="matrix(0.05,0,0,0.05,56.400000000000006,0)" xlink:href="#aE" />
        <use transform="matrix(0.05,0,0,0.05,66.4,0)" xlink:href="#ay" />
        <use transform="matrix(0.05,0,0,0.05,72.35000000000001,0)" xlink:href="#az" />
        <use transform="matrix(0.05,0,0,0.05,76.30000000000001,0)" xlink:href="#ax" />
        <use transform="matrix(0.05,0,0,0.05,81.30000000000001,0)" xlink:href="#aF" />
        <use transform="matrix(0.05,0,0,0.05,90.30000000000001,0)" xlink:href="#aM" />
        <use transform="matrix(0.05,0,0,0.05,96.25000000000001,0)" xlink:href="#aN" />
        <use transform="matrix(0.05,0,0,0.05,102.20000000000002,0)" xlink:href="#av" />
      </g>
      <g id="o">
        <use transform="matrix(0.05,0,0,0.05,0,0)" xlink:href="#aK" />
        <use transform="matrix(0.05,0,0,0.05,10.5,0)" xlink:href="#aw" />
        <use transform="matrix(0.05,0,0,0.05,19.5,0)" xlink:href="#au" />
        <use transform="matrix(0.05,0,0,0.05,29.5,0)" xlink:href="#ax" />
        <use transform="matrix(0.05,0,0,0.05,34.5,0)" xlink:href="#aJ" />
        <use transform="matrix(0.05,0,0,0.05,47.45,0)" xlink:href="#aI" />
        <use transform="matrix(0.05,0,0,0.05,57.45,0)" xlink:href="#ay" />
        <use transform="matrix(0.05,0,0,0.05,63.400000000000006,0)" xlink:href="#as" />
        <use transform="matrix(0.05,0,0,0.05,73.4,0)" xlink:href="#ax" />
        <use transform="matrix(0.05,0,0,0.05,78.4,0)" xlink:href="#az" />
        <use transform="matrix(0.05,0,0,0.05,82.35000000000001,0)" xlink:href="#aE" />
        <use transform="matrix(0.05,0,0,0.05,92.35000000000001,0)" xlink:href="#ar" />
        <use transform="matrix(0.05,0,0,0.05,102.35000000000001,0)" xlink:href="#aM" />
        <use transform="matrix(0.05,0,0,0.05,108.30000000000001,0)" xlink:href="#aN" />
        <use transform="matrix(0.05,0,0,0.05,114.25,0)" xlink:href="#av" />
      </g>
      <path fill="#333" d="M68-36c1 33-1 63-14 82H32c9-13 17-26 17-46H33v-36h35zM33-154v-36h35v36H33" id="aQ" />
      <g id="p">
        <use transform="matrix(0.05,0,0,0.05,0,0)" xlink:href="#aK" />
        <use transform="matrix(0.05,0,0,0.05,10.5,0)" xlink:href="#aw" />
        <use transform="matrix(0.05,0,0,0.05,19.5,0)" xlink:href="#au" />
        <use transform="matrix(0.05,0,0,0.05,29.5,0)" xlink:href="#ax" />
        <use transform="matrix(0.05,0,0,0.05,34.5,0)" xlink:href="#aJ" />
        <use transform="matrix(0.05,0,0,0.05,47.45,0)" xlink:href="#aI" />
        <use transform="matrix(0.05,0,0,0.05,57.45,0)" xlink:href="#au" />
        <use transform="matrix(0.05,0,0,0.05,67.45,0)" xlink:href="#aJ" />
        <use transform="matrix(0.05,0,0,0.05,80.4,0)" xlink:href="#as" />
        <use transform="matrix(0.05,0,0,0.05,90.4,0)" xlink:href="#ax" />
        <use transform="matrix(0.05,0,0,0.05,95.4,0)" xlink:href="#au" />
        <use transform="matrix(0.05,0,0,0.05,105.4,0)" xlink:href="#aM" />
        <use transform="matrix(0.05,0,0,0.05,111.35000000000001,0)" xlink:href="#aN" />
        <use transform="matrix(0.05,0,0,0.05,117.30000000000001,0)" xlink:href="#aQ" />
        <use transform="matrix(0.05,0,0,0.05,122.30000000000001,0)" xlink:href="#av" />
      </g>
      <path fill="#333" d="M212-179c-10-28-35-45-73-45-59 0-87 40-87 99 0 60 29 101 89 101 43 0 62-24 78-52l27 14C228-24 195 4 139 4 59 4 22-46 18-125c-6-104 99-153 187-111 19 9 31 26 39 46" id="aR" />
      <g id="q">
        <use transform="matrix(0.05,0,0,0.05,0,0)" xlink:href="#aK" />
        <use transform="matrix(0.05,0,0,0.05,10.5,0)" xlink:href="#aw" />
        <use transform="matrix(0.05,0,0,0.05,19.5,0)" xlink:href="#au" />
        <use transform="matrix(0.05,0,0,0.05,29.5,0)" xlink:href="#ax" />
        <use transform="matrix(0.05,0,0,0.05,34.5,0)" xlink:href="#aR" />
        <use transform="matrix(0.05,0,0,0.05,47.45,0)" xlink:href="#aG" />
        <use transform="matrix(0.05,0,0,0.05,51.400000000000006,0)" xlink:href="#as" />
        <use transform="matrix(0.05,0,0,0.05,61.400000000000006,0)" xlink:href="#aw" />
        <use transform="matrix(0.05,0,0,0.05,70.4,0)" xlink:href="#aw" />
        <use transform="matrix(0.05,0,0,0.05,79.4,0)" xlink:href="#az" />
        <use transform="matrix(0.05,0,0,0.05,83.35000000000001,0)" xlink:href="#aH" />
        <use transform="matrix(0.05,0,0,0.05,88.35000000000001,0)" xlink:href="#az" />
        <use transform="matrix(0.05,0,0,0.05,92.30000000000001,0)" xlink:href="#aC" />
        <use transform="matrix(0.05,0,0,0.05,101.30000000000001,0)" xlink:href="#as" />
        <use transform="matrix(0.05,0,0,0.05,111.30000000000001,0)" xlink:href="#ax" />
        <use transform="matrix(0.05,0,0,0.05,116.30000000000001,0)" xlink:href="#az" />
        <use transform="matrix(0.05,0,0,0.05,120.25,0)" xlink:href="#aE" />
        <use transform="matrix(0.05,0,0,0.05,130.25,0)" xlink:href="#ar" />
        <use transform="matrix(0.05,0,0,0.05,140.25,0)" xlink:href="#aM" />
        <use transform="matrix(0.05,0,0,0.05,146.2,0)" xlink:href="#aN" />
        <use transform="matrix(0.05,0,0,0.05,152.14999999999998,0)" xlink:href="#av" />
      </g>
      <g id="r">
        <use transform="matrix(0.05,0,0,0.05,0,0)" xlink:href="#aK" />
        <use transform="matrix(0.05,0,0,0.05,10.5,0)" xlink:href="#aA" />
        <use transform="matrix(0.05,0,0,0.05,20.5,0)" xlink:href="#au" />
        <use transform="matrix(0.05,0,0,0.05,30.5,0)" xlink:href="#ax" />
        <use transform="matrix(0.05,0,0,0.05,35.5,0)" xlink:href="#aL" />
        <use transform="matrix(0.05,0,0,0.05,48.45,0)" xlink:href="#as" />
        <use transform="matrix(0.05,0,0,0.05,58.45,0)" xlink:href="#at" />
        <use transform="matrix(0.05,0,0,0.05,73.4,0)" xlink:href="#au" />
        <use transform="matrix(0.05,0,0,0.05,83.4,0)" xlink:href="#aM" />
        <use transform="matrix(0.05,0,0,0.05,89.35000000000001,0)" xlink:href="#aN" />
        <use transform="matrix(0.05,0,0,0.05,95.30000000000001,0)" xlink:href="#av" />
      </g>
      <g id="s">
        <use transform="matrix(0.05,0,0,0.05,0,0)" xlink:href="#aK" />
        <use transform="matrix(0.05,0,0,0.05,10.5,0)" xlink:href="#aA" />
        <use transform="matrix(0.05,0,0,0.05,20.5,0)" xlink:href="#au" />
        <use transform="matrix(0.05,0,0,0.05,30.5,0)" xlink:href="#ax" />
        <use transform="matrix(0.05,0,0,0.05,35.5,0)" xlink:href="#aJ" />
        <use transform="matrix(0.05,0,0,0.05,48.45,0)" xlink:href="#au" />
        <use transform="matrix(0.05,0,0,0.05,58.45,0)" xlink:href="#aw" />
        <use transform="matrix(0.05,0,0,0.05,67.45,0)" xlink:href="#aC" />
        <use transform="matrix(0.05,0,0,0.05,76.45,0)" xlink:href="#ay" />
        <use transform="matrix(0.05,0,0,0.05,82.4,0)" xlink:href="#az" />
        <use transform="matrix(0.05,0,0,0.05,86.35000000000001,0)" xlink:href="#aD" />
        <use transform="matrix(0.05,0,0,0.05,96.35000000000001,0)" xlink:href="#ax" />
        <use transform="matrix(0.05,0,0,0.05,101.35000000000001,0)" xlink:href="#az" />
        <use transform="matrix(0.05,0,0,0.05,105.30000000000001,0)" xlink:href="#aE" />
        <use transform="matrix(0.05,0,0,0.05,115.30000000000001,0)" xlink:href="#ar" />
        <use transform="matrix(0.05,0,0,0.05,125.30000000000001,0)" xlink:href="#av" />
      </g>
      <g id="t">
        <use transform="matrix(0.05,0,0,0.05,0,0)" xlink:href="#aK" />
        <use transform="matrix(0.05,0,0,0.05,10.5,0)" xlink:href="#aA" />
        <use transform="matrix(0.05,0,0,0.05,20.5,0)" xlink:href="#au" />
        <use transform="matrix(0.05,0,0,0.05,30.5,0)" xlink:href="#ax" />
        <use transform="matrix(0.05,0,0,0.05,35.5,0)" xlink:href="#aP" />
        <use transform="matrix(0.05,0,0,0.05,47.5,0)" xlink:href="#ay" />
        <use transform="matrix(0.05,0,0,0.05,53.45,0)" xlink:href="#az" />
        <use transform="matrix(0.05,0,0,0.05,57.400000000000006,0)" xlink:href="#aE" />
        <use transform="matrix(0.05,0,0,0.05,67.4,0)" xlink:href="#ay" />
        <use transform="matrix(0.05,0,0,0.05,73.35000000000001,0)" xlink:href="#az" />
        <use transform="matrix(0.05,0,0,0.05,77.30000000000001,0)" xlink:href="#ax" />
        <use transform="matrix(0.05,0,0,0.05,82.30000000000001,0)" xlink:href="#aF" />
        <use transform="matrix(0.05,0,0,0.05,91.30000000000001,0)" xlink:href="#aM" />
        <use transform="matrix(0.05,0,0,0.05,97.25000000000001,0)" xlink:href="#aN" />
        <use transform="matrix(0.05,0,0,0.05,103.2,0)" xlink:href="#av" />
      </g>
      <g id="u">
        <use transform="matrix(0.05,0,0,0.05,0,0)" xlink:href="#aK" />
        <use transform="matrix(0.05,0,0,0.05,10.5,0)" xlink:href="#aw" />
        <use transform="matrix(0.05,0,0,0.05,19.5,0)" xlink:href="#ax" />
        <use transform="matrix(0.05,0,0,0.05,24.5,0)" xlink:href="#ay" />
        <use transform="matrix(0.05,0,0,0.05,30.450000000000003,0)" xlink:href="#az" />
        <use transform="matrix(0.05,0,0,0.05,34.4,0)" xlink:href="#ar" />
        <use transform="matrix(0.05,0,0,0.05,44.4,0)" xlink:href="#aA" />
      </g>
      <g id="v">
        <use transform="matrix(0.05,0,0,0.05,0,0)" xlink:href="#aA" />
        <use transform="matrix(0.05,0,0,0.05,10,0)" xlink:href="#au" />
        <use transform="matrix(0.05,0,0,0.05,20,0)" xlink:href="#ax" />
        <use transform="matrix(0.05,0,0,0.05,25,0)" xlink:href="#aR" />
        <use transform="matrix(0.05,0,0,0.05,37.95,0)" xlink:href="#aG" />
        <use transform="matrix(0.05,0,0,0.05,41.900000000000006,0)" xlink:href="#as" />
        <use transform="matrix(0.05,0,0,0.05,51.900000000000006,0)" xlink:href="#aw" />
        <use transform="matrix(0.05,0,0,0.05,60.900000000000006,0)" xlink:href="#aw" />
        <use transform="matrix(0.05,0,0,0.05,69.9,0)" xlink:href="#az" />
        <use transform="matrix(0.05,0,0,0.05,73.85000000000001,0)" xlink:href="#aH" />
        <use transform="matrix(0.05,0,0,0.05,78.85000000000001,0)" xlink:href="#az" />
        <use transform="matrix(0.05,0,0,0.05,82.80000000000001,0)" xlink:href="#aC" />
        <use transform="matrix(0.05,0,0,0.05,91.80000000000001,0)" xlink:href="#as" />
        <use transform="matrix(0.05,0,0,0.05,101.80000000000001,0)" xlink:href="#ax" />
        <use transform="matrix(0.05,0,0,0.05,106.80000000000001,0)" xlink:href="#az" />
        <use transform="matrix(0.05,0,0,0.05,110.75,0)" xlink:href="#aE" />
        <use transform="matrix(0.05,0,0,0.05,120.75,0)" xlink:href="#ar" />
        <use transform="matrix(0.05,0,0,0.05,130.75,0)" xlink:href="#aM" />
        <use transform="matrix(0.05,0,0,0.05,136.7,0)" xlink:href="#aN" />
        <use transform="matrix(0.05,0,0,0.05,142.64999999999998,0)" xlink:href="#av" />
      </g>
      <g id="w">
        <use transform="matrix(0.05,0,0,0.05,0,0)" xlink:href="#aK" />
        <use transform="matrix(0.05,0,0,0.05,10.5,0)" xlink:href="#aA" />
        <use transform="matrix(0.05,0,0,0.05,20.5,0)" xlink:href="#au" />
        <use transform="matrix(0.05,0,0,0.05,30.5,0)" xlink:href="#ax" />
        <use transform="matrix(0.05,0,0,0.05,35.5,0)" xlink:href="#aJ" />
        <use transform="matrix(0.05,0,0,0.05,48.45,0)" xlink:href="#aI" />
        <use transform="matrix(0.05,0,0,0.05,58.45,0)" xlink:href="#ay" />
        <use transform="matrix(0.05,0,0,0.05,64.4,0)" xlink:href="#as" />
        <use transform="matrix(0.05,0,0,0.05,74.4,0)" xlink:href="#ax" />
        <use transform="matrix(0.05,0,0,0.05,79.4,0)" xlink:href="#az" />
        <use transform="matrix(0.05,0,0,0.05,83.35000000000001,0)" xlink:href="#aE" />
        <use transform="matrix(0.05,0,0,0.05,93.35000000000001,0)" xlink:href="#ar" />
        <use transform="matrix(0.05,0,0,0.05,103.35000000000001,0)" xlink:href="#aM" />
        <use transform="matrix(0.05,0,0,0.05,109.30000000000001,0)" xlink:href="#aN" />
        <use transform="matrix(0.05,0,0,0.05,115.25,0)" xlink:href="#av" />
      </g>
      <path d="M24 0v-248h52v208h133V0H24" id="aS" />
      <path d="M25-224v-37h50v37H25zM25 0v-190h50V0H25" id="aT" />
      <path d="M115-3C79 11 28 4 28-45v-112H4v-33h27l15-45h31v45h36v33H77v99c-1 23 16 31 38 25v30" id="aU" />
      <g id="x">
        <use transform="matrix(0.05,0,0,0.05,0,0)" xlink:href="#am" />
        <use transform="matrix(0.05,0,0,0.05,9.600000000000001,0)" xlink:href="#an" />
        <use transform="matrix(0.05,0,0,0.05,19.6,0)" xlink:href="#ao" />
        <use transform="matrix(0.05,0,0,0.05,29.6,0)" xlink:href="#ap" />
        <use transform="matrix(0.05,0,0,0.05,39.6,0)" xlink:href="#aS" />
        <use transform="matrix(0.05,0,0,0.05,50.550000000000004,0)" xlink:href="#aT" />
        <use transform="matrix(0.05,0,0,0.05,55.550000000000004,0)" xlink:href="#ao" />
        <use transform="matrix(0.05,0,0,0.05,65.55000000000001,0)" xlink:href="#aU" />
      </g>
      <g id="y">
        <use transform="matrix(0.05,0,0,0.05,0,0)" xlink:href="#aq" />
        <use transform="matrix(0.05,0,0,0.05,5.95,0)" xlink:href="#aG" />
        <use transform="matrix(0.05,0,0,0.05,9.9,0)" xlink:href="#az" />
        <use transform="matrix(0.05,0,0,0.05,13.850000000000001,0)" xlink:href="#aw" />
        <use transform="matrix(0.05,0,0,0.05,22.85,0)" xlink:href="#ax" />
        <use transform="matrix(0.05,0,0,0.05,27.85,0)" xlink:href="#aL" />
        <use transform="matrix(0.05,0,0,0.05,40.800000000000004,0)" xlink:href="#as" />
        <use transform="matrix(0.05,0,0,0.05,50.800000000000004,0)" xlink:href="#at" />
        <use transform="matrix(0.05,0,0,0.05,65.75,0)" xlink:href="#au" />
        <use transform="matrix(0.05,0,0,0.05,75.75,0)" xlink:href="#av" />
      </g>
      <g id="z">
        <use transform="matrix(0.05,0,0,0.05,0,0)" xlink:href="#aw" />
        <use transform="matrix(0.05,0,0,0.05,9,0)" xlink:href="#ax" />
        <use transform="matrix(0.05,0,0,0.05,14,0)" xlink:href="#ay" />
        <use transform="matrix(0.05,0,0,0.05,19.95,0)" xlink:href="#az" />
        <use transform="matrix(0.05,0,0,0.05,23.9,0)" xlink:href="#ar" />
        <use transform="matrix(0.05,0,0,0.05,33.9,0)" xlink:href="#aA" />
      </g>
      <path fill="#333" d="M143 0L79-87 56-68V0H24v-261h32v163l83-92h37l-77 82L181 0h-38" id="aV" />
      <path fill="#333" d="M30 0v-248h33v221h125V0H30" id="aW" />
      <g id="A">
        <use transform="matrix(0.05,0,0,0.05,0,0)" xlink:href="#aq" />
        <use transform="matrix(0.05,0,0,0.05,5.95,0)" xlink:href="#ax" />
        <use transform="matrix(0.05,0,0,0.05,10.95,0)" xlink:href="#as" />
        <use transform="matrix(0.05,0,0,0.05,20.95,0)" xlink:href="#aw" />
        <use transform="matrix(0.05,0,0,0.05,29.950000000000003,0)" xlink:href="#aV" />
        <use transform="matrix(0.05,0,0,0.05,38.95,0)" xlink:href="#aW" />
        <use transform="matrix(0.05,0,0,0.05,48.95,0)" xlink:href="#az" />
        <use transform="matrix(0.05,0,0,0.05,52.900000000000006,0)" xlink:href="#aw" />
        <use transform="matrix(0.05,0,0,0.05,61.900000000000006,0)" xlink:href="#ax" />
        <use transform="matrix(0.05,0,0,0.05,66.9,0)" xlink:href="#av" />
      </g>
      <path fill="#333" d="M18-100v-36l175-74v27L42-118l151 64v27" id="aX" />
      <path fill="#333" d="M127-220V0H93v-220H8v-28h204v28h-85" id="aY" />
      <path fill="#333" d="M18-27v-27l151-64-151-65v-27l175 74v36" id="aZ" />
      <g id="B">
        <use transform="matrix(0.05,0,0,0.05,0,0)" xlink:href="#aO" />
        <use transform="matrix(0.05,0,0,0.05,9,0)" xlink:href="#au" />
        <use transform="matrix(0.05,0,0,0.05,19,0)" xlink:href="#aC" />
        <use transform="matrix(0.05,0,0,0.05,28,0)" xlink:href="#ax" />
        <use transform="matrix(0.05,0,0,0.05,33,0)" xlink:href="#aE" />
        <use transform="matrix(0.05,0,0,0.05,43,0)" xlink:href="#ay" />
        <use transform="matrix(0.05,0,0,0.05,48.95,0)" xlink:href="#aX" />
        <use transform="matrix(0.05,0,0,0.05,59.45,0)" xlink:href="#aY" />
        <use transform="matrix(0.05,0,0,0.05,68.4,0)" xlink:href="#as" />
        <use transform="matrix(0.05,0,0,0.05,78.4,0)" xlink:href="#aw" />
        <use transform="matrix(0.05,0,0,0.05,87.4,0)" xlink:href="#aV" />
        <use transform="matrix(0.05,0,0,0.05,96.4,0)" xlink:href="#aZ" />
      </g>
      <g id="C">
        <use transform="matrix(0.05,0,0,0.05,0,0)" xlink:href="#aK" />
        <use transform="matrix(0.05,0,0,0.05,10.5,0)" xlink:href="#aw" />
        <use transform="matrix(0.05,0,0,0.05,19.5,0)" xlink:href="#au" />
        <use transform="matrix(0.05,0,0,0.05,29.5,0)" xlink:href="#ax" />
        <use transform="matrix(0.05,0,0,0.05,34.5,0)" xlink:href="#aW" />
        <use transform="matrix(0.05,0,0,0.05,44.5,0)" xlink:href="#az" />
        <use transform="matrix(0.05,0,0,0.05,48.45,0)" xlink:href="#aw" />
        <use transform="matrix(0.05,0,0,0.05,57.45,0)" xlink:href="#ax" />
        <use transform="matrix(0.05,0,0,0.05,62.45,0)" xlink:href="#aL" />
        <use transform="matrix(0.05,0,0,0.05,75.4,0)" xlink:href="#as" />
        <use transform="matrix(0.05,0,0,0.05,85.4,0)" xlink:href="#at" />
        <use transform="matrix(0.05,0,0,0.05,100.35000000000001,0)" xlink:href="#au" />
        <use transform="matrix(0.05,0,0,0.05,110.35000000000001,0)" xlink:href="#aM" />
        <use transform="matrix(0.05,0,0,0.05,116.30000000000001,0)" xlink:href="#aN" />
      </g>
      <use transform="matrix(0.05,0,0,0.05,0,0)" xlink:href="#av" id="D" />
      <g id="E">
        <use transform="matrix(0.05,0,0,0.05,0,0)" xlink:href="#aO" />
        <use transform="matrix(0.05,0,0,0.05,9,0)" xlink:href="#aE" />
        <use transform="matrix(0.05,0,0,0.05,19,0)" xlink:href="#az" />
        <use transform="matrix(0.05,0,0,0.05,22.95,0)" xlink:href="#aB" />
      </g>
      <path d="M241-173c-1 82-78 91-166 86L58 0H6l48-248c87 0 188-12 187 75zm-53 2c0-43-48-36-90-36l-15 80c50 0 105 7 105-44" id="ba" />
      <path d="M84-151c13-25 34-51 72-40l-8 41C67-170 71-64 56 0H6l36-190h47" id="bb" />
      <path d="M50-224l7-37h49l-7 37H50zM6 0l37-190h49L55 0H6" id="bc" />
      <path d="M151-194c95 0 34 128 28 194h-49l25-134c0-29-45-25-59-9C67-111 69-48 56 0H6l36-190h47l-4 32c15-20 33-36 66-36" id="bd" />
      <path d="M72-63c-8 23 5 39 32 30L98-1C54 14 12-6 23-64l18-93H15l7-33h28l24-45h31l-8 45h35l-6 33H90" id="be" />
      <g id="F">
        <use transform="matrix(0.05,0,0,0.05,0,0)" xlink:href="#ba" />
        <use transform="matrix(0.05,0,0,0.05,12,0)" xlink:href="#bb" />
        <use transform="matrix(0.05,0,0,0.05,19,0)" xlink:href="#bc" />
        <use transform="matrix(0.05,0,0,0.05,24,0)" xlink:href="#bd" />
        <use transform="matrix(0.05,0,0,0.05,34.95,0)" xlink:href="#be" />
      </g>
      <path fill="#333" d="M123-107v75H97v-75H23v-26h74v-75h26v75h75v26h-75" id="bf" />
      <path fill="#333" d="M67-162c32-53 139-36 121 50C175-51 163 2 97 4 68 4 52-11 42-31 38 6 28 39 22 75H-9l50-265h29c-1 10 0 20-3 28zm89 36c0-26-10-43-35-43-54 0-67 50-69 103-1 29 14 45 42 46 53 0 62-58 62-106" id="bg" />
      <path fill="#333" d="M66-151c12-25 30-51 66-40l-6 26C45-176 58-65 38 0H6l36-190h30" id="bh" />
      <path fill="#333" d="M50-231l6-30h32l-6 30H50zM6 0l37-190h31L37 0H6" id="bi" />
      <path fill="#333" d="M67-158c22-48 132-52 116 29L158 0h-32l25-140c3-38-53-32-70-12C52-117 51-52 38 0H6l36-190h30" id="bj" />
      <path fill="#333" d="M51-54c-9 22 5 41 31 30L79-1C43 14 10-4 19-52l22-115H19l5-23h22l19-43h21l-9 43h35l-4 23H73" id="bk" />
      <path fill="#333" d="M17-49c1-102 45-165 103-212h30C92-210 49-145 49-46 49 4 63 43 85 75H54C30 43 18 2 17-49" id="bl" />
      <path fill="#333" d="M98-137C97-35 54 29-4 75h-31C23 23 67-41 67-140c0-50-15-89-37-121h31c24 32 36 73 37 124" id="bm" />
      <path fill="#333" d="M44-154l7-36h35l-8 36H44zM14 0l7-36h35L49 0H14" id="bn" />
      <g id="G">
        <use transform="matrix(0.05,0,0,0.05,0,0)" xlink:href="#bf" />
        <use transform="matrix(0.05,0,0,0.05,10.5,0)" xlink:href="#bg" />
        <use transform="matrix(0.05,0,0,0.05,20.5,0)" xlink:href="#bh" />
        <use transform="matrix(0.05,0,0,0.05,26.450000000000003,0)" xlink:href="#bi" />
        <use transform="matrix(0.05,0,0,0.05,30.399999999999995,0)" xlink:href="#bj" />
        <use transform="matrix(0.05,0,0,0.05,40.4,0)" xlink:href="#bk" />
        <use transform="matrix(0.05,0,0,0.05,45.4,0)" xlink:href="#bl" />
        <use transform="matrix(0.05,0,0,0.05,51.35,0)" xlink:href="#bm" />
        <use transform="matrix(0.05,0,0,0.05,57.300000000000004,0)" xlink:href="#bn" />
      </g>
      <path fill="#333" d="M89 0H52L20-190h33L74-25l89-165h34" id="bo" />
      <path fill="#333" d="M30-147c31-64 166-65 159 27C183-49 158 1 86 4 9 8 1-88 30-147zM88-20c53 0 68-48 68-100 0-31-11-51-44-50-52 1-68 46-68 97 0 32 13 53 44 53" id="bp" />
      <path fill="#333" d="M133-28C103 26-5 8 13-77c13-62 24-115 90-117 29-1 46 15 56 35l19-102h32L160 0h-30zM45-64c-2 27 10 43 35 43 54-1 69-50 69-103 0-29-15-46-42-46-53-1-58 58-62 106" id="bq" />
      <g id="H">
        <use transform="matrix(0.05,0,0,0.05,0,0)" xlink:href="#bo" />
        <use transform="matrix(0.05,0,0,0.05,9,0)" xlink:href="#bp" />
        <use transform="matrix(0.05,0,0,0.05,19,0)" xlink:href="#bi" />
        <use transform="matrix(0.05,0,0,0.05,22.95,0)" xlink:href="#bq" />
      </g>
      <path d="M157-208L117 0H65l40-208H25l8-40h212l-8 40h-80" id="br" />
      <path d="M166-52c-4 17 5 29 24 23l-3 27c-30 11-74 1-67-34C105-15 91 4 56 4 23 4 3-15 2-49c0-64 63-67 128-67 10-22 3-53-29-45-13 3-22 10-25 24l-46-5c5-64 156-77 153 0-1 33-11 60-17 90zM97-88c-44-9-64 57-19 57 31 0 42-28 47-57H97" id="bs" />
      <path d="M144-137c-1-29-70-35-71-2 16 41 103 10 103 80C176 9 79 16 32-9 18-17 9-31 4-48l44-6c3 32 80 36 82 1-15-42-103-11-103-82 0-77 157-79 161-8" id="bt" />
      <path d="M128 0L95-87 70-74 55 0H6l51-261h49L77-111l82-79h56l-83 74L180 0h-52" id="bu" />
      <g id="I">
        <use transform="matrix(0.05,0,0,0.05,0,0)" xlink:href="#ba" />
        <use transform="matrix(0.05,0,0,0.05,12,0)" xlink:href="#bb" />
        <use transform="matrix(0.05,0,0,0.05,19,0)" xlink:href="#bc" />
        <use transform="matrix(0.05,0,0,0.05,24,0)" xlink:href="#bd" />
        <use transform="matrix(0.05,0,0,0.05,34.95,0)" xlink:href="#be" />
        <use transform="matrix(0.05,0,0,0.05,40.900000000000006,0)" xlink:href="#br" />
        <use transform="matrix(0.05,0,0,0.05,51.20000000000002,0)" xlink:href="#bs" />
        <use transform="matrix(0.05,0,0,0.05,61.20000000000002,0)" xlink:href="#bt" />
        <use transform="matrix(0.05,0,0,0.05,71.20000000000002,0)" xlink:href="#bu" />
      </g>
      <path d="M6 0l48-248h52L66-40h133l-8 40H6" id="bv" />
      <g id="J">
        <use transform="matrix(0.05,0,0,0.05,0,0)" xlink:href="#ba" />
        <use transform="matrix(0.05,0,0,0.05,12,0)" xlink:href="#bb" />
        <use transform="matrix(0.05,0,0,0.05,19,0)" xlink:href="#bc" />
        <use transform="matrix(0.05,0,0,0.05,24,0)" xlink:href="#bd" />
        <use transform="matrix(0.05,0,0,0.05,34.95,0)" xlink:href="#be" />
        <use transform="matrix(0.05,0,0,0.05,40.900000000000006,0)" xlink:href="#br" />
        <use transform="matrix(0.05,0,0,0.05,51.20000000000002,0)" xlink:href="#bs" />
        <use transform="matrix(0.05,0,0,0.05,61.20000000000002,0)" xlink:href="#bt" />
        <use transform="matrix(0.05,0,0,0.05,71.20000000000002,0)" xlink:href="#bu" />
        <use transform="matrix(0.05,0,0,0.05,81.20000000000002,0)" xlink:href="#bv" />
        <use transform="matrix(0.05,0,0,0.05,92.15000000000002,0)" xlink:href="#bc" />
        <use transform="matrix(0.05,0,0,0.05,97.15000000000002,0)" xlink:href="#bt" />
        <use transform="matrix(0.05,0,0,0.05,107.15000000000003,0)" xlink:href="#be" />
      </g>
      <g id="K">
        <use transform="matrix(0.05,0,0,0.05,0,0)" xlink:href="#bo" />
        <use transform="matrix(0.05,0,0,0.05,9,0)" xlink:href="#bp" />
        <use transform="matrix(0.05,0,0,0.05,19,0)" xlink:href="#bi" />
        <use transform="matrix(0.05,0,0,0.05,22.95,0)" xlink:href="#bq" />
      </g>
      <path d="M250-142C247-53 197 0 108 0H6l48-248c105-5 200 3 196 106zm-49 2c1-57-42-72-103-68L66-40c84 6 135-22 135-100" id="bw" />
      <path d="M114-194c63-2 87 48 72 110H63c-3 28 1 55 31 54 21-1 32-13 37-29l44 13C160-14 137 4 91 4 41 4 11-22 11-73c0-71 33-119 103-121zm30 77c14-47-50-61-67-22-3 6-6 13-8 22h75" id="bx" />
      <path d="M6 0l51-261h49L55 0H6" id="by" />
      <g id="L">
        <use transform="matrix(0.05,0,0,0.05,0,0)" xlink:href="#bw" />
        <use transform="matrix(0.05,0,0,0.05,12.950000000000001,0)" xlink:href="#bx" />
        <use transform="matrix(0.05,0,0,0.05,22.950000000000003,0)" xlink:href="#by" />
        <use transform="matrix(0.05,0,0,0.05,27.950000000000003,0)" xlink:href="#bx" />
        <use transform="matrix(0.05,0,0,0.05,37.95,0)" xlink:href="#be" />
        <use transform="matrix(0.05,0,0,0.05,43.900000000000006,0)" xlink:href="#bx" />
      </g>
      <path fill="#333" d="M111-194c62-3 86 47 72 106H45c-7 38 6 69 45 68 27-1 43-14 53-32l24 11C152-15 129 4 87 4 38 3 12-23 12-71c0-70 32-119 99-123zm44 81c14-66-71-72-95-28-4 8-8 17-11 28h106" id="bz" />
      <path fill="#333" d="M6 0l50-261h32L37 0H6" id="bA" />
      <g id="M">
        <use transform="matrix(0.05,0,0,0.05,0,0)" xlink:href="#aK" />
        <use transform="matrix(0.05,0,0,0.05,10.5,0)" xlink:href="#aB" />
        <use transform="matrix(0.05,0,0,0.05,20.5,0)" xlink:href="#bz" />
        <use transform="matrix(0.05,0,0,0.05,30.5,0)" xlink:href="#bA" />
        <use transform="matrix(0.05,0,0,0.05,34.45,0)" xlink:href="#bz" />
        <use transform="matrix(0.05,0,0,0.05,44.45,0)" xlink:href="#bk" />
        <use transform="matrix(0.05,0,0,0.05,49.45,0)" xlink:href="#bz" />
        <use transform="matrix(0.05,0,0,0.05,59.45,0)" xlink:href="#bl" />
        <use transform="matrix(0.05,0,0,0.05,65.4,0)" xlink:href="#bm" />
        <use transform="matrix(0.05,0,0,0.05,71.35000000000001,0)" xlink:href="#bn" />
      </g>
      <g id="N">
        <use transform="matrix(0.05,0,0,0.05,0,0)" xlink:href="#bo" />
        <use transform="matrix(0.05,0,0,0.05,9,0)" xlink:href="#bp" />
        <use transform="matrix(0.05,0,0,0.05,19,0)" xlink:href="#bi" />
        <use transform="matrix(0.05,0,0,0.05,22.95,0)" xlink:href="#bq" />
      </g>
      <g id="O">
        <use transform="matrix(0.05,0,0,0.05,0,0)" xlink:href="#bw" />
        <use transform="matrix(0.05,0,0,0.05,12.950000000000001,0)" xlink:href="#bx" />
        <use transform="matrix(0.05,0,0,0.05,22.950000000000003,0)" xlink:href="#by" />
        <use transform="matrix(0.05,0,0,0.05,27.950000000000003,0)" xlink:href="#bx" />
        <use transform="matrix(0.05,0,0,0.05,37.95,0)" xlink:href="#be" />
        <use transform="matrix(0.05,0,0,0.05,43.900000000000006,0)" xlink:href="#bx" />
        <use transform="matrix(0.05,0,0,0.05,53.900000000000006,0)" xlink:href="#br" />
        <use transform="matrix(0.05,0,0,0.05,64.2,0)" xlink:href="#bs" />
        <use transform="matrix(0.05,0,0,0.05,74.2,0)" xlink:href="#bt" />
        <use transform="matrix(0.05,0,0,0.05,84.2,0)" xlink:href="#bu" />
      </g>
      <g id="P">
        <use transform="matrix(0.05,0,0,0.05,0,0)" xlink:href="#bf" />
        <use transform="matrix(0.05,0,0,0.05,10.5,0)" xlink:href="#bq" />
        <use transform="matrix(0.05,0,0,0.05,20.5,0)" xlink:href="#bz" />
        <use transform="matrix(0.05,0,0,0.05,30.5,0)" xlink:href="#bA" />
        <use transform="matrix(0.05,0,0,0.05,34.45,0)" xlink:href="#bz" />
        <use transform="matrix(0.05,0,0,0.05,44.45,0)" xlink:href="#bk" />
        <use transform="matrix(0.05,0,0,0.05,49.45,0)" xlink:href="#bz" />
        <use transform="matrix(0.05,0,0,0.05,59.45,0)" xlink:href="#bl" />
        <use transform="matrix(0.05,0,0,0.05,65.4,0)" xlink:href="#bm" />
        <use transform="matrix(0.05,0,0,0.05,71.35000000000001,0)" xlink:href="#bn" />
      </g>
      <g id="Q">
        <use transform="matrix(0.05,0,0,0.05,0,0)" xlink:href="#bw" />
        <use transform="matrix(0.05,0,0,0.05,12.950000000000001,0)" xlink:href="#bx" />
        <use transform="matrix(0.05,0,0,0.05,22.950000000000003,0)" xlink:href="#by" />
        <use transform="matrix(0.05,0,0,0.05,27.950000000000003,0)" xlink:href="#bx" />
        <use transform="matrix(0.05,0,0,0.05,37.95,0)" xlink:href="#be" />
        <use transform="matrix(0.05,0,0,0.05,43.900000000000006,0)" xlink:href="#bx" />
        <use transform="matrix(0.05,0,0,0.05,53.900000000000006,0)" xlink:href="#br" />
        <use transform="matrix(0.05,0,0,0.05,64.2,0)" xlink:href="#bs" />
        <use transform="matrix(0.05,0,0,0.05,74.2,0)" xlink:href="#bt" />
        <use transform="matrix(0.05,0,0,0.05,84.2,0)" xlink:href="#bu" />
        <use transform="matrix(0.05,0,0,0.05,94.2,0)" xlink:href="#bv" />
        <use transform="matrix(0.05,0,0,0.05,105.15,0)" xlink:href="#bc" />
        <use transform="matrix(0.05,0,0,0.05,110.15,0)" xlink:href="#bt" />
        <use transform="matrix(0.05,0,0,0.05,120.15,0)" xlink:href="#be" />
      </g>
      <g id="R">
        <use transform="matrix(0.05,0,0,0.05,0,0)" xlink:href="#aK" />
        <use transform="matrix(0.05,0,0,0.05,10.5,0)" xlink:href="#bq" />
        <use transform="matrix(0.05,0,0,0.05,20.5,0)" xlink:href="#bz" />
        <use transform="matrix(0.05,0,0,0.05,30.5,0)" xlink:href="#bA" />
        <use transform="matrix(0.05,0,0,0.05,34.45,0)" xlink:href="#bz" />
        <use transform="matrix(0.05,0,0,0.05,44.45,0)" xlink:href="#bk" />
        <use transform="matrix(0.05,0,0,0.05,49.45,0)" xlink:href="#bz" />
        <use transform="matrix(0.05,0,0,0.05,59.45,0)" xlink:href="#bl" />
        <use transform="matrix(0.05,0,0,0.05,65.4,0)" xlink:href="#bm" />
        <use transform="matrix(0.05,0,0,0.05,71.35000000000001,0)" xlink:href="#bn" />
      </g>
      <path d="M6 0l48-248h195l-8 40H98l-12 63h132l-7 40H79L66-40h150l-8 40H6" id="bB" />
      <path d="M132-28C118-9 101 4 69 4 30 4 10-23 10-62c0-70 24-129 92-132 31-1 47 14 56 35l19-102h49L179 0h-49zM62-69c0 22 7 39 29 39 45-2 54-45 57-90 2-27-10-40-33-40-44 0-53 48-53 91" id="bC" />
      <g id="S">
        <use transform="matrix(0.05,0,0,0.05,0,0)" xlink:href="#bB" />
        <use transform="matrix(0.05,0,0,0.05,12,0)" xlink:href="#bC" />
        <use transform="matrix(0.05,0,0,0.05,22.950000000000003,0)" xlink:href="#bc" />
        <use transform="matrix(0.05,0,0,0.05,27.950000000000003,0)" xlink:href="#be" />
      </g>
      <g id="T">
        <use transform="matrix(0.05,0,0,0.05,0,0)" xlink:href="#bf" />
        <use transform="matrix(0.05,0,0,0.05,10.5,0)" xlink:href="#bz" />
        <use transform="matrix(0.05,0,0,0.05,20.5,0)" xlink:href="#bq" />
        <use transform="matrix(0.05,0,0,0.05,30.5,0)" xlink:href="#bi" />
        <use transform="matrix(0.05,0,0,0.05,34.45,0)" xlink:href="#bk" />
        <use transform="matrix(0.05,0,0,0.05,39.45,0)" xlink:href="#bl" />
        <use transform="matrix(0.05,0,0,0.05,45.400000000000006,0)" xlink:href="#bm" />
        <use transform="matrix(0.05,0,0,0.05,51.35,0)" xlink:href="#bn" />
      </g>
      <g id="U">
        <use transform="matrix(0.05,0,0,0.05,0,0)" xlink:href="#bB" />
        <use transform="matrix(0.05,0,0,0.05,12,0)" xlink:href="#bC" />
        <use transform="matrix(0.05,0,0,0.05,22.950000000000003,0)" xlink:href="#bc" />
        <use transform="matrix(0.05,0,0,0.05,27.950000000000003,0)" xlink:href="#be" />
        <use transform="matrix(0.05,0,0,0.05,33.900000000000006,0)" xlink:href="#br" />
        <use transform="matrix(0.05,0,0,0.05,44.20000000000001,0)" xlink:href="#bs" />
        <use transform="matrix(0.05,0,0,0.05,54.20000000000002,0)" xlink:href="#bt" />
        <use transform="matrix(0.05,0,0,0.05,64.20000000000002,0)" xlink:href="#bu" />
      </g>
      <g id="V">
        <use transform="matrix(0.05,0,0,0.05,0,0)" xlink:href="#bx" />
        <use transform="matrix(0.05,0,0,0.05,10,0)" xlink:href="#bC" />
        <use transform="matrix(0.05,0,0,0.05,20.950000000000003,0)" xlink:href="#bc" />
        <use transform="matrix(0.05,0,0,0.05,25.950000000000003,0)" xlink:href="#be" />
        <use transform="matrix(0.05,0,0,0.05,31.900000000000002,0)" xlink:href="#br" />
        <use transform="matrix(0.05,0,0,0.05,42.2,0)" xlink:href="#bs" />
        <use transform="matrix(0.05,0,0,0.05,52.2,0)" xlink:href="#bt" />
        <use transform="matrix(0.05,0,0,0.05,62.2,0)" xlink:href="#bu" />
        <use transform="matrix(0.05,0,0,0.05,72.2,0)" xlink:href="#bv" />
        <use transform="matrix(0.05,0,0,0.05,83.15,0)" xlink:href="#bc" />
        <use transform="matrix(0.05,0,0,0.05,88.15,0)" xlink:href="#bt" />
        <use transform="matrix(0.05,0,0,0.05,98.15,0)" xlink:href="#be" />
      </g>
      <path d="M232-93c-1 65-40 97-104 97C67 4 28-28 28-90v-158h33c8 89-33 224 67 224 102 0 64-133 71-224h33v155" id="bD" />
      <path d="M135-143c-3-34-86-38-87 0 15 53 115 12 119 90S17 21 10-45l28-5c4 36 97 45 98 0-10-56-113-15-118-90-4-57 82-63 122-42 12 7 21 19 24 35" id="bE" />
      <path d="M100-194c63 0 86 42 84 106H49c0 40 14 67 53 68 26 1 43-12 49-29l28 8c-11 28-37 45-77 45C44 4 14-33 15-96c1-61 26-98 85-98zm52 81c6-60-76-77-97-28-3 7-6 17-6 28h103" id="bF" />
      <path d="M85-194c31 0 48 13 60 33l-1-100h32l1 261h-30c-2-10 0-23-3-31C134-8 116 4 85 4 32 4 16-35 15-94c0-66 23-100 70-100zm9 24c-40 0-46 34-46 75 0 40 6 74 45 74 42 0 51-32 51-76 0-42-9-74-50-73" id="bG" />
      <g id="W">
        <use transform="matrix(0.05,0,0,0.05,0,0)" xlink:href="#bD" />
        <use transform="matrix(0.05,0,0,0.05,12.950000000000001,0)" xlink:href="#bE" />
        <use transform="matrix(0.05,0,0,0.05,21.950000000000003,0)" xlink:href="#bF" />
        <use transform="matrix(0.05,0,0,0.05,31.950000000000003,0)" xlink:href="#bG" />
      </g>
      <path d="M59-47c-2 24 18 29 38 22v24C64 9 27 4 27-40v-127H5v-23h24l9-43h21v43h35v23H59v120" id="bH" />
      <path d="M100-194c62-1 85 37 85 99 1 63-27 99-86 99S16-35 15-95c0-66 28-99 85-99zM99-20c44 1 53-31 53-75 0-43-8-75-51-75s-53 32-53 75 10 74 51 75" id="bI" />
      <g id="X">
        <use transform="matrix(0.05,0,0,0.05,0,0)" xlink:href="#bH" />
        <use transform="matrix(0.05,0,0,0.05,5,0)" xlink:href="#bI" />
      </g>
      <path d="M141-36C126-15 110 5 73 4 37 3 15-17 15-53c-1-64 63-63 125-63 3-35-9-54-41-54-24 1-41 7-42 31l-33-3c5-37 33-52 76-52 45 0 72 20 72 64v82c-1 20 7 32 28 27v20c-31 9-61-2-59-35zM48-53c0 20 12 33 32 33 41-3 63-29 60-74-43 2-92-5-92 41" id="bJ" />
      <g id="Y">
        <use transform="matrix(0.05,0,0,0.05,0,0)" xlink:href="#bJ" />
        <use transform="matrix(0.05,0,0,0.05,10,0)" xlink:href="#bG" />
        <use transform="matrix(0.05,0,0,0.05,20,0)" xlink:href="#bG" />
      </g>
      <path d="M114-163C36-179 61-72 57 0H25l-1-190h30c1 12-1 29 2 39 6-27 23-49 58-41v29" id="bK" />
      <g id="Z">
        <use transform="matrix(0.05,0,0,0.05,0,0)" xlink:href="#bI" />
        <use transform="matrix(0.05,0,0,0.05,10,0)" xlink:href="#bK" />
      </g>
      <path d="M210-169c-67 3-38 105-44 169h-31v-121c0-29-5-50-35-48C34-165 62-65 56 0H25l-1-190h30c1 10-1 24 2 32 10-44 99-50 107 0 11-21 27-35 58-36 85-2 47 119 55 194h-31v-121c0-29-5-49-35-48" id="bL" />
      <path d="M108 0H70L1-190h34L89-25l56-165h34" id="bM" />
      <g id="aa">
        <use transform="matrix(0.05,0,0,0.05,0,0)" xlink:href="#bK" />
        <use transform="matrix(0.05,0,0,0.05,5.95,0)" xlink:href="#bF" />
        <use transform="matrix(0.05,0,0,0.05,15.949999999999998,0)" xlink:href="#bL" />
        <use transform="matrix(0.05,0,0,0.05,30.899999999999995,0)" xlink:href="#bI" />
        <use transform="matrix(0.05,0,0,0.05,40.9,0)" xlink:href="#bM" />
        <use transform="matrix(0.05,0,0,0.05,49.9,0)" xlink:href="#bF" />
      </g>
      <path d="M143 0L79-87 56-68V0H24v-261h32v163l83-92h37l-77 82L181 0h-38" id="bN" />
      <g id="ab">
        <use transform="matrix(0.05,0,0,0.05,0,0)" xlink:href="#bH" />
        <use transform="matrix(0.05,0,0,0.05,5,0)" xlink:href="#bJ" />
        <use transform="matrix(0.05,0,0,0.05,15,0)" xlink:href="#bE" />
        <use transform="matrix(0.05,0,0,0.05,24,0)" xlink:href="#bN" />
        <use transform="matrix(0.05,0,0,0.05,33,0)" xlink:href="#bE" />
      </g>
      <path d="M24 0v-261h32V0H24" id="bO" />
      <path d="M117-194c89-4 53 116 60 194h-32v-121c0-31-8-49-39-48C34-167 62-67 57 0H25l-1-190h30c1 10-1 24 2 32 11-22 29-35 61-36" id="bP" />
      <path d="M177-190C167-65 218 103 67 71c-23-6-38-20-44-43l32-5c15 47 100 32 89-28v-30C133-14 115 1 83 1 29 1 15-40 15-95c0-56 16-97 71-98 29-1 48 16 59 35 1-10 0-23 2-32h30zM94-22c36 0 50-32 50-73 0-42-14-75-50-75-39 0-46 34-46 75s6 73 46 73" id="bQ" />
      <g id="ac">
        <use transform="matrix(0.05,0,0,0.05,0,0)" xlink:href="#bJ" />
        <use transform="matrix(0.05,0,0,0.05,10,0)" xlink:href="#bO" />
        <use transform="matrix(0.05,0,0,0.05,13.949999999999998,0)" xlink:href="#bI" />
        <use transform="matrix(0.05,0,0,0.05,23.95,0)" xlink:href="#bP" />
        <use transform="matrix(0.05,0,0,0.05,33.95,0)" xlink:href="#bQ" />
      </g>
      <path d="M206 0h-36l-40-164L89 0H53L-1-190h32L70-26l43-164h34l41 164 42-164h31" id="bR" />
      <path d="M24-231v-30h32v30H24zM24 0v-190h32V0H24" id="bS" />
      <path d="M106-169C34-169 62-67 57 0H25v-261h32l-1 103c12-21 28-36 61-36 89 0 53 116 60 194h-32v-121c2-32-8-49-39-48" id="bT" />
      <g id="ad">
        <use transform="matrix(0.05,0,0,0.05,0,0)" xlink:href="#bR" />
        <use transform="matrix(0.05,0,0,0.05,12.950000000000001,0)" xlink:href="#bS" />
        <use transform="matrix(0.05,0,0,0.05,16.900000000000002,0)" xlink:href="#bH" />
        <use transform="matrix(0.05,0,0,0.05,21.900000000000002,0)" xlink:href="#bT" />
      </g>
      <path d="M96-169c-40 0-48 33-48 73s9 75 48 75c24 0 41-14 43-38l32 2c-6 37-31 61-74 61-59 0-76-41-82-99-10-93 101-131 147-64 4 7 5 14 7 22l-32 3c-4-21-16-35-41-35" id="bU" />
      <g id="ae">
        <use transform="matrix(0.05,0,0,0.05,0,0)" xlink:href="#bU" />
        <use transform="matrix(0.05,0,0,0.05,9,0)" xlink:href="#bT" />
        <use transform="matrix(0.05,0,0,0.05,19,0)" xlink:href="#bJ" />
        <use transform="matrix(0.05,0,0,0.05,29,0)" xlink:href="#bP" />
        <use transform="matrix(0.05,0,0,0.05,39,0)" xlink:href="#bQ" />
        <use transform="matrix(0.05,0,0,0.05,49,0)" xlink:href="#bS" />
        <use transform="matrix(0.05,0,0,0.05,52.95,0)" xlink:href="#bP" />
        <use transform="matrix(0.05,0,0,0.05,62.95,0)" xlink:href="#bQ" />
      </g>
      <g id="af">
        <use transform="matrix(0.05,0,0,0.05,0,0)" xlink:href="#bH" />
        <use transform="matrix(0.05,0,0,0.05,5,0)" xlink:href="#bT" />
        <use transform="matrix(0.05,0,0,0.05,15,0)" xlink:href="#bF" />
      </g>
      <g id="ag">
        <use transform="matrix(0.05,0,0,0.05,0,0)" xlink:href="#bP" />
        <use transform="matrix(0.05,0,0,0.05,10,0)" xlink:href="#bJ" />
        <use transform="matrix(0.05,0,0,0.05,20,0)" xlink:href="#bL" />
        <use transform="matrix(0.05,0,0,0.05,34.95,0)" xlink:href="#bF" />
      </g>
      <path d="M101-234c-31-9-42 10-38 44h38v23H63V0H32v-167H5v-23h27c-7-52 17-82 69-68v24" id="bV" />
      <g id="ah">
        <use transform="matrix(0.05,0,0,0.05,0,0)" xlink:href="#bI" />
        <use transform="matrix(0.05,0,0,0.05,10,0)" xlink:href="#bV" />
      </g>
      <g id="ai">
        <use transform="matrix(0.05,0,0,0.05,0,0)" xlink:href="#bO" />
        <use transform="matrix(0.05,0,0,0.05,3.95,0)" xlink:href="#bS" />
        <use transform="matrix(0.05,0,0,0.05,7.9,0)" xlink:href="#bE" />
        <use transform="matrix(0.05,0,0,0.05,16.9,0)" xlink:href="#bH" />
      </g>
      <path d="M76-208v77h127v40H76V0H24v-248h183v40H76" id="bW" />
      <path d="M135-194c87-1 58 113 63 194h-50c-7-57 23-157-34-157-59 0-34 97-39 157H25l-1-190h47c2 12-1 28 3 38 12-26 28-41 61-42" id="bX" />
      <path d="M88-194c31-1 46 15 58 34l-1-101h50l1 261h-48c-2-10 0-23-3-31C134-8 116 4 84 4 32 4 16-41 15-95c0-56 19-97 73-99zm17 164c33 0 40-30 41-66 1-37-9-64-41-64s-38 30-39 65c0 43 13 65 39 65" id="bY" />
      <g id="aj">
        <use transform="matrix(0.05,0,0,0.05,0,0)" xlink:href="#bW" />
        <use transform="matrix(0.05,0,0,0.05,10.950000000000001,0)" xlink:href="#aT" />
        <use transform="matrix(0.05,0,0,0.05,15.950000000000001,0)" xlink:href="#bX" />
        <use transform="matrix(0.05,0,0,0.05,26.900000000000002,0)" xlink:href="#bY" />
        <use transform="matrix(0.05,0,0,0.05,37.85,0)" xlink:href="#am" />
        <use transform="matrix(0.05,0,0,0.05,47.45,0)" xlink:href="#an" />
        <use transform="matrix(0.05,0,0,0.05,57.45,0)" xlink:href="#ao" />
        <use transform="matrix(0.05,0,0,0.05,67.45,0)" xlink:href="#ap" />
      </g>
      <g id="ak">
        <use transform="matrix(0.05,0,0,0.05,0,0)" xlink:href="#aK" />
        <use transform="matrix(0.05,0,0,0.05,10.5,0)" xlink:href="#aH" />
        <use transform="matrix(0.05,0,0,0.05,15.5,0)" xlink:href="#az" />
        <use transform="matrix(0.05,0,0,0.05,19.45,0)" xlink:href="#ar" />
        <use transform="matrix(0.05,0,0,0.05,29.450000000000003,0)" xlink:href="#aB" />
        <use transform="matrix(0.05,0,0,0.05,39.45,0)" xlink:href="#aY" />
        <use transform="matrix(0.05,0,0,0.05,48.400000000000006,0)" xlink:href="#as" />
        <use transform="matrix(0.05,0,0,0.05,58.400000000000006,0)" xlink:href="#aw" />
        <use transform="matrix(0.05,0,0,0.05,67.4,0)" xlink:href="#aV" />
        <use transform="matrix(0.05,0,0,0.05,76.4,0)" xlink:href="#aM" />
        <use transform="matrix(0.05,0,0,0.05,82.35000000000001,0)" xlink:href="#aN" />
        <use transform="matrix(0.05,0,0,0.05,88.30000000000001,0)" xlink:href="#av" />
      </g>
      <g id="al">
        <use transform="matrix(0.05,0,0,0.05,0,0)" xlink:href="#aY" />
        <use transform="matrix(0.05,0,0,0.05,8.950000000000001,0)" xlink:href="#as" />
        <use transform="matrix(0.05,0,0,0.05,18.950000000000003,0)" xlink:href="#aw" />
        <use transform="matrix(0.05,0,0,0.05,27.950000000000003,0)" xlink:href="#aV" />
      </g>
    </defs>
  </g>
</svg>
