

<?xml version="1.0" encoding="UTF-8"?>
<svg xmlns="http://www.w3.org/2000/svg" xmlns:lucid="lucid" xmlns:xlink="http://www.w3.org/1999/xlink" width="1320" height="777">
  <g transform="translate(-60 -270)" lucid:page-tab-id="HWEp-vi-RSFO">
    <path d="M0 0h1760v1360H0z" fill="#fff" />
    <path d="M540 290h360v737H540z" stroke="#333" stroke-width="2" fill="#fff" />
    <path d="M540 327.6h360M540 580.1h360" stroke="#333" stroke-width="2" fill="none" />
    <use xlink:href="#a" transform="matrix(1,0,0,1,548,298) translate(152.2 14.6)" />
    <use xlink:href="#b" transform="matrix(1,0,0,1,552,335.6) translate(0 24.900000000000013)" />
    <use xlink:href="#c" transform="matrix(1,0,0,1,552,335.6) translate(60.9 24.900000000000013)" />
    <use xlink:href="#d" transform="matrix(1,0,0,1,552,335.6) translate(0 46.500000000000014)" />
    <use xlink:href="#c" transform="matrix(1,0,0,1,552,335.6) translate(102.80000000000001 46.500000000000014)" />
    <use xlink:href="#e" transform="matrix(1,0,0,1,552,335.6) translate(0 68.10000000000002)" />
    <use xlink:href="#f" transform="matrix(1,0,0,1,552,335.6) translate(69.75 68.10000000000002)" />
    <use xlink:href="#g" transform="matrix(1,0,0,1,552,335.6) translate(0 89.70000000000003)" />
    <use xlink:href="#c" transform="matrix(1,0,0,1,552,335.6) translate(117.75000000000001 89.70000000000003)" />
    <use xlink:href="#h" transform="matrix(1,0,0,1,552,335.6) translate(0 111.30000000000003)" />
    <use xlink:href="#c" transform="matrix(1,0,0,1,552,335.6) translate(83.9 111.30000000000003)" />
    <use xlink:href="#i" transform="matrix(1,0,0,1,552,335.6) translate(0 132.9)" />
    <use xlink:href="#f" transform="matrix(1,0,0,1,552,335.6) translate(80.85 132.9)" />
    <use xlink:href="#j" transform="matrix(1,0,0,1,552,335.6) translate(0 154.50000000000003)" />
    <use xlink:href="#k" transform="matrix(1,0,0,1,552,335.6) translate(93.85 154.50000000000003)" />
    <use xlink:href="#l" transform="matrix(1,0,0,1,552,335.6) translate(103.85 154.50000000000003)" />
    <use xlink:href="#m" transform="matrix(1,0,0,1,552,335.6) translate(0 176.1)" />
    <use xlink:href="#k" transform="matrix(1,0,0,1,552,335.6) translate(96.80000000000001 176.1)" />
    <use xlink:href="#f" transform="matrix(1,0,0,1,552,335.6) translate(106.80000000000001 176.1)" />
    <use xlink:href="#n" transform="matrix(1,0,0,1,552,335.6) translate(0 197.70000000000002)" />
    <use xlink:href="#o" transform="matrix(1,0,0,1,552,335.6) translate(17 197.70000000000002)" />
    <use xlink:href="#p" transform="matrix(1,0,0,1,552,335.6) translate(44.95 197.70000000000002)" />
    <use xlink:href="#q" transform="matrix(1,0,0,1,552,335.6) translate(72.9 197.70000000000002)" />
    <use xlink:href="#r" transform="matrix(1,0,0,1,552,335.6) translate(117.9 197.70000000000002)" />
    <use xlink:href="#s" transform="matrix(1,0,0,1,552,335.6) translate(177.85000000000002 197.70000000000002)" />
    <use xlink:href="#t" transform="matrix(1,0,0,1,552,335.6) translate(212.85000000000002 197.70000000000002)" />
    <use xlink:href="#u" transform="matrix(1,0,0,1,552,335.6) translate(271.8 197.70000000000002)" />
    <use xlink:href="#v" transform="matrix(1,0,0,1,552,335.6) translate(297.75 197.70000000000002)" />
    <use xlink:href="#w" transform="matrix(1,0,0,1,552,335.6) translate(0 219.29999999999998)" />
    <use xlink:href="#x" transform="matrix(1,0,0,1,552,335.6) translate(32.95 219.29999999999998)" />
    <use xlink:href="#y" transform="matrix(1,0,0,1,552,335.6) translate(65.9 219.29999999999998)" />
    <use xlink:href="#z" transform="matrix(1,0,0,1,552,335.6) translate(152.75 219.29999999999998)" />
    <g>
      <use xlink:href="#A" transform="matrix(1,0,0,1,552,588.1) translate(0 24.699999999999953)" />
      <use xlink:href="#B" transform="matrix(1,0,0,1,552,588.1) translate(148.2 24.699999999999953)" />
      <use xlink:href="#C" transform="matrix(1,0,0,1,552,588.1) translate(0 46.299999999999955)" />
      <use xlink:href="#B" transform="matrix(1,0,0,1,552,588.1) translate(190.09999999999997 46.299999999999955)" />
      <use xlink:href="#D" transform="matrix(1,0,0,1,552,588.1) translate(0 67.89999999999996)" />
      <use xlink:href="#B" transform="matrix(1,0,0,1,552,588.1) translate(131.15000000000003 67.89999999999996)" />
      <use xlink:href="#E" transform="matrix(1,0,0,1,552,588.1) translate(0 89.49999999999997)" />
      <use xlink:href="#B" transform="matrix(1,0,0,1,552,588.1) translate(143.20000000000002 89.49999999999997)" />
      <use xlink:href="#F" transform="matrix(1,0,0,1,552,588.1) translate(0 111.09999999999997)" />
      <use xlink:href="#B" transform="matrix(1,0,0,1,552,588.1) translate(171.2 111.09999999999997)" />
      <use xlink:href="#G" transform="matrix(1,0,0,1,552,588.1) translate(0 132.69999999999996)" />
      <use xlink:href="#B" transform="matrix(1,0,0,1,552,588.1) translate(181.09999999999997 132.69999999999996)" />
      <use xlink:href="#H" transform="matrix(1,0,0,1,552,588.1) translate(0 154.29999999999995)" />
      <use xlink:href="#B" transform="matrix(1,0,0,1,552,588.1) translate(181.14999999999998 154.29999999999995)" />
      <use xlink:href="#I" transform="matrix(1,0,0,1,552,588.1) translate(0 175.89999999999995)" />
      <use xlink:href="#B" transform="matrix(1,0,0,1,552,588.1) translate(147.25 175.89999999999995)" />
      <use xlink:href="#J" transform="matrix(1,0,0,1,552,588.1) translate(0 197.49999999999994)" />
      <use xlink:href="#c" transform="matrix(1,0,0,1,552,588.1) translate(105.30000000000001 197.49999999999994)" />
      <use xlink:href="#K" transform="matrix(1,0,0,1,552,588.1) translate(0 219.09999999999994)" />
      <use xlink:href="#c" transform="matrix(1,0,0,1,552,588.1) translate(147.2 219.09999999999994)" />
      <use xlink:href="#L" transform="matrix(1,0,0,1,552,588.1) translate(0 240.69999999999993)" />
      <use xlink:href="#f" transform="matrix(1,0,0,1,552,588.1) translate(113.20000000000002 240.69999999999993)" />
      <use xlink:href="#M" transform="matrix(1,0,0,1,552,588.1) translate(0 262.2999999999999)" />
      <use xlink:href="#c" transform="matrix(1,0,0,1,552,588.1) translate(163.14999999999998 262.2999999999999)" />
      <use xlink:href="#N" transform="matrix(1,0,0,1,552,588.1) translate(0 283.8999999999999)" />
      <use xlink:href="#f" transform="matrix(1,0,0,1,552,588.1) translate(125.25000000000001 283.8999999999999)" />
      <use xlink:href="#O" transform="matrix(1,0,0,1,552,588.1) translate(0 305.49999999999994)" />
      <use xlink:href="#P" transform="matrix(1,0,0,1,552,588.1) translate(148.2 305.49999999999994)" />
      <use xlink:href="#Q" transform="matrix(1,0,0,1,552,588.1) translate(0 327.09999999999997)" />
      <use xlink:href="#R" transform="matrix(1,0,0,1,552,588.1) translate(129.3 327.09999999999997)" />
      <use xlink:href="#S" transform="matrix(1,0,0,1,552,588.1) translate(0 348.7)" />
      <use xlink:href="#T" transform="matrix(1,0,0,1,552,588.1) translate(67.30000000000001 348.7)" />
      <use xlink:href="#U" transform="matrix(1,0,0,1,552,588.1) translate(0 370.3)" />
      <use xlink:href="#V" transform="matrix(1,0,0,1,552,588.1) translate(61.35000000000001 370.3)" />
      <use xlink:href="#W" transform="matrix(1,0,0,1,552,588.1) translate(99.30000000000001 370.3)" />
      <use xlink:href="#X" transform="matrix(1,0,0,1,552,588.1) translate(116.30000000000001 370.3)" />
      <use xlink:href="#Y" transform="matrix(1,0,0,1,552,588.1) translate(163.25 370.3)" />
      <use xlink:href="#Z" transform="matrix(1,0,0,1,552,588.1) translate(207.25 370.3)" />
      <use xlink:href="#aa" transform="matrix(1,0,0,1,552,588.1) translate(240.2 370.3)" />
      <use xlink:href="#ab" transform="matrix(1,0,0,1,552,588.1) translate(0 391.90000000000003)" />
      <use xlink:href="#ac" transform="matrix(1,0,0,1,552,588.1) translate(65.9 391.90000000000003)" />
      <use xlink:href="#ad" transform="matrix(1,0,0,1,552,588.1) translate(100.9 391.90000000000003)" />
      <use xlink:href="#ae" transform="matrix(1,0,0,1,552,588.1) translate(161.85000000000002 391.90000000000003)" />
      <use xlink:href="#af" transform="matrix(1,0,0,1,552,588.1) translate(175.8 391.90000000000003)" />
      <use xlink:href="#ag" transform="matrix(1,0,0,1,552,588.1) translate(214.8 391.90000000000003)" />
      <use xlink:href="#ah" transform="matrix(1,0,0,1,552,588.1) translate(314.70000000000005 391.90000000000003)" />
      <use xlink:href="#ai" transform="matrix(1,0,0,1,552,588.1) translate(0 413.50000000000006)" />
      <use xlink:href="#aj" transform="matrix(1,0,0,1,552,588.1) translate(81.35000000000001 413.50000000000006)" />
    </g>
    <path d="M80 440h360v307H80z" stroke="#333" stroke-width="2" fill="#fff" />
    <path d="M80 477.6h360M80 558.3h360" stroke="#333" stroke-width="2" fill="none" />
    <g>
      <use xlink:href="#ak" transform="matrix(1,0,0,1,88,448) translate(136.25 14.6)" />
    </g>
    <g>
      <use xlink:href="#al" transform="matrix(1,0,0,1,92,485.6) translate(0 25.299999999999997)" />
      <use xlink:href="#am" transform="matrix(1,0,0,1,92,485.6) translate(85.75 25.299999999999997)" />
      <use xlink:href="#an" transform="matrix(1,0,0,1,92,485.6) translate(0 46.9)" />
      <use xlink:href="#ao" transform="matrix(1,0,0,1,92,485.6) translate(76.9 46.9)" />
    </g>
    <g>
      <use xlink:href="#ap" transform="matrix(1,0,0,1,92,566.3000000000001) translate(0 25.300000000000004)" />
      <use xlink:href="#aq" transform="matrix(1,0,0,1,92,566.3000000000001) translate(127.25000000000001 25.300000000000004)" />
      <use xlink:href="#T" transform="matrix(1,0,0,1,92,566.3000000000001) translate(137.25 25.300000000000004)" />
      <use xlink:href="#ar" transform="matrix(1,0,0,1,92,566.3000000000001) translate(0 46.900000000000006)" />
      <use xlink:href="#aq" transform="matrix(1,0,0,1,92,566.3000000000001) translate(128.25 46.900000000000006)" />
      <use xlink:href="#am" transform="matrix(1,0,0,1,92,566.3000000000001) translate(138.25 46.900000000000006)" />
      <use xlink:href="#S" transform="matrix(1,0,0,1,92,566.3000000000001) translate(0 68.50000000000001)" />
      <use xlink:href="#T" transform="matrix(1,0,0,1,92,566.3000000000001) translate(67.30000000000001 68.50000000000001)" />
      <use xlink:href="#U" transform="matrix(1,0,0,1,92,566.3000000000001) translate(0 90.10000000000002)" />
      <use xlink:href="#V" transform="matrix(1,0,0,1,92,566.3000000000001) translate(61.35000000000001 90.10000000000002)" />
      <use xlink:href="#W" transform="matrix(1,0,0,1,92,566.3000000000001) translate(99.30000000000001 90.10000000000002)" />
      <use xlink:href="#X" transform="matrix(1,0,0,1,92,566.3000000000001) translate(116.30000000000001 90.10000000000002)" />
      <use xlink:href="#Y" transform="matrix(1,0,0,1,92,566.3000000000001) translate(163.25 90.10000000000002)" />
      <use xlink:href="#Z" transform="matrix(1,0,0,1,92,566.3000000000001) translate(207.25 90.10000000000002)" />
      <use xlink:href="#aa" transform="matrix(1,0,0,1,92,566.3000000000001) translate(240.2 90.10000000000002)" />
      <use xlink:href="#ab" transform="matrix(1,0,0,1,92,566.3000000000001) translate(0 111.70000000000002)" />
      <use xlink:href="#ac" transform="matrix(1,0,0,1,92,566.3000000000001) translate(65.9 111.70000000000002)" />
      <use xlink:href="#ad" transform="matrix(1,0,0,1,92,566.3000000000001) translate(100.9 111.70000000000002)" />
      <use xlink:href="#ae" transform="matrix(1,0,0,1,92,566.3000000000001) translate(161.85000000000002 111.70000000000002)" />
      <use xlink:href="#af" transform="matrix(1,0,0,1,92,566.3000000000001) translate(175.8 111.70000000000002)" />
      <use xlink:href="#ag" transform="matrix(1,0,0,1,92,566.3000000000001) translate(214.8 111.70000000000002)" />
      <use xlink:href="#ah" transform="matrix(1,0,0,1,92,566.3000000000001) translate(314.70000000000005 111.70000000000002)" />
      <use xlink:href="#ai" transform="matrix(1,0,0,1,92,566.3000000000001) translate(0 133.3)" />
      <use xlink:href="#T" transform="matrix(1,0,0,1,92,566.3000000000001) translate(81.35000000000001 133.3)" />
      <use xlink:href="#as" transform="matrix(1,0,0,1,92,566.3000000000001) translate(0 154.9)" />
      <use xlink:href="#aq" transform="matrix(1,0,0,1,92,566.3000000000001) translate(93.30000000000001 154.9)" />
      <use xlink:href="#at" transform="matrix(1,0,0,1,92,566.3000000000001) translate(103.30000000000001 154.9)" />
    </g>
    <path d="M200 820h240v77H200z" fill="#fff" />
    <path d="M201 820c0 .55-.45 1-1 1s-1-.45-1-1 .45-1 1-1 1 .45 1 1zm4 0c0 .55-.45 1-1 1s-1-.45-1-1 .45-1 1-1 1 .45 1 1zm4 0c0 .55-.45 1-1 1s-1-.45-1-1 .45-1 1-1 1 .45 1 1zm4 0c0 .55-.45 1-1 1s-1-.45-1-1 .45-1 1-1 1 .45 1 1zm4 0c0 .55-.45 1-1 1s-1-.45-1-1 .45-1 1-1 1 .45 1 1zm4 0c0 .55-.45 1-1 1s-1-.45-1-1 .45-1 1-1 1 .45 1 1zm4 0c0 .55-.45 1-1 1s-1-.45-1-1 .45-1 1-1 1 .45 1 1zm4 0c0 .55-.45 1-1 1s-1-.45-1-1 .45-1 1-1 1 .45 1 1zm4 0c0 .55-.45 1-1 1s-1-.45-1-1 .45-1 1-1 1 .45 1 1zm4 0c0 .55-.45 1-1 1s-1-.45-1-1 .45-1 1-1 1 .45 1 1zm4 0c0 .55-.45 1-1 1s-1-.45-1-1 .45-1 1-1 1 .45 1 1zm4 0c0 .55-.45 1-1 1s-1-.45-1-1 .45-1 1-1 1 .45 1 1zm4 0c0 .55-.45 1-1 1s-1-.45-1-1 .45-1 1-1 1 .45 1 1zm4 0c0 .55-.45 1-1 1s-1-.45-1-1 .45-1 1-1 1 .45 1 1zm4 0c0 .55-.45 1-1 1s-1-.45-1-1 .45-1 1-1 1 .45 1 1zm4 0c0 .55-.45 1-1 1s-1-.45-1-1 .45-1 1-1 1 .45 1 1zm4 0c0 .55-.45 1-1 1s-1-.45-1-1 .45-1 1-1 1 .45 1 1zm4 0c0 .55-.45 1-1 1s-1-.45-1-1 .45-1 1-1 1 .45 1 1zm4 0c0 .55-.45 1-1 1s-1-.45-1-1 .45-1 1-1 1 .45 1 1zm4 0c0 .55-.45 1-1 1s-1-.45-1-1 .45-1 1-1 1 .45 1 1zm4 0c0 .55-.45 1-1 1s-1-.45-1-1 .45-1 1-1 1 .45 1 1zm4 0c0 .55-.45 1-1 1s-1-.45-1-1 .45-1 1-1 1 .45 1 1zm4 0c0 .55-.45 1-1 1s-1-.45-1-1 .45-1 1-1 1 .45 1 1zm4 0c0 .55-.45 1-1 1s-1-.45-1-1 .45-1 1-1 1 .45 1 1zm4 0c0 .55-.45 1-1 1s-1-.45-1-1 .45-1 1-1 1 .45 1 1zm4 0c0 .55-.45 1-1 1s-1-.45-1-1 .45-1 1-1 1 .45 1 1zm4 0c0 .55-.45 1-1 1s-1-.45-1-1 .45-1 1-1 1 .45 1 1zm4 0c0 .55-.45 1-1 1s-1-.45-1-1 .45-1 1-1 1 .45 1 1zm4 0c0 .55-.45 1-1 1s-1-.45-1-1 .45-1 1-1 1 .45 1 1zm4 0c0 .55-.45 1-1 1s-1-.45-1-1 .45-1 1-1 1 .45 1 1zm4 0c0 .55-.45 1-1 1s-1-.45-1-1 .45-1 1-1 1 .45 1 1zm4 0c0 .55-.45 1-1 1s-1-.45-1-1 .45-1 1-1 1 .45 1 1zm4 0c0 .55-.45 1-1 1s-1-.45-1-1 .45-1 1-1 1 .45 1 1zm4 0c0 .55-.45 1-1 1s-1-.45-1-1 .45-1 1-1 1 .45 1 1zm4 0c0 .55-.45 1-1 1s-1-.45-1-1 .45-1 1-1 1 .45 1 1zm4 0c0 .55-.45 1-1 1s-1-.45-1-1 .45-1 1-1 1 .45 1 1zm4 0c0 .55-.45 1-1 1s-1-.45-1-1 .45-1 1-1 1 .45 1 1zm4 0c0 .55-.45 1-1 1s-1-.45-1-1 .45-1 1-1 1 .45 1 1zm4 0c0 .55-.45 1-1 1s-1-.45-1-1 .45-1 1-1 1 .45 1 1zm4 0c0 .55-.45 1-1 1s-1-.45-1-1 .45-1 1-1 1 .45 1 1zm4 0c0 .55-.45 1-1 1s-1-.45-1-1 .45-1 1-1 1 .45 1 1zm4 0c0 .55-.45 1-1 1s-1-.45-1-1 .45-1 1-1 1 .45 1 1zm4 0c0 .55-.45 1-1 1s-1-.45-1-1 .45-1 1-1 1 .45 1 1zm4 0c0 .55-.45 1-1 1s-1-.45-1-1 .45-1 1-1 1 .45 1 1zm4 0c0 .55-.45 1-1 1s-1-.45-1-1 .45-1 1-1 1 .45 1 1zm4 0c0 .55-.45 1-1 1s-1-.45-1-1 .45-1 1-1 1 .45 1 1zm4 0c0 .55-.45 1-1 1s-1-.45-1-1 .45-1 1-1 1 .45 1 1zm4 0c0 .55-.45 1-1 1s-1-.45-1-1 .45-1 1-1 1 .45 1 1zm4 0c0 .55-.45 1-1 1s-1-.45-1-1 .45-1 1-1 1 .45 1 1zm4 0c0 .55-.45 1-1 1s-1-.45-1-1 .45-1 1-1 1 .45 1 1zm4 0c0 .55-.45 1-1 1s-1-.45-1-1 .45-1 1-1 1 .45 1 1zm4 0c0 .55-.45 1-1 1s-1-.45-1-1 .45-1 1-1 1 .45 1 1zm4 0c0 .55-.45 1-1 1s-1-.45-1-1 .45-1 1-1 1 .45 1 1zm4 0c0 .55-.45 1-1 1s-1-.45-1-1 .45-1 1-1 1 .45 1 1zm4 0c0 .55-.45 1-1 1s-1-.45-1-1 .45-1 1-1 1 .45 1 1zm4 0c0 .55-.45 1-1 1s-1-.45-1-1 .45-1 1-1 1 .45 1 1zm4 0c0 .55-.45 1-1 1s-1-.45-1-1 .45-1 1-1 1 .45 1 1zm4 0c0 .55-.45 1-1 1s-1-.45-1-1 .45-1 1-1 1 .45 1 1zm4 0c0 .55-.45 1-1 1s-1-.45-1-1 .45-1 1-1 1 .45 1 1zm4 0c0 .55-.45 1-1 1s-1-.45-1-1 .45-1 1-1 1 .45 1 1zm4 0c0 .55-.45 1-1 1s-1-.45-1-1 .45-1 1-1 1 .45 1 1zm0 4.05c0 .55-.45 1-1 1s-1-.45-1-1 .45-1 1-1 1 .45 1 1zm0 4.06c0 .56-.45 1-1 1s-1-.44-1-1c0-.55.45-1 1-1s1 .45 1 1zm0 4.06c0 .55-.45 1-1 1s-1-.45-1-1 .45-1 1-1 1 .45 1 1zm0 4.05c0 .56-.45 1-1 1s-1-.44-1-1c0-.54.45-1 1-1s1 .46 1 1zm0 4.06c0 .56-.45 1-1 1s-1-.44-1-1c0-.55.45-1 1-1s1 .45 1 1zm0 4.06c0 .55-.45 1-1 1s-1-.45-1-1c0-.56.45-1 1-1s1 .44 1 1zm0 4.05c0 .55-.45 1-1 1s-1-.45-1-1 .45-1 1-1 1 .45 1 1zm0 4.05c0 .55-.45 1-1 1s-1-.45-1-1 .45-1 1-1 1 .45 1 1zm0 4.05c0 .56-.45 1-1 1s-1-.44-1-1c0-.55.45-1 1-1s1 .45 1 1zm0 4.06c0 .55-.45 1-1 1s-1-.45-1-1c0-.56.45-1 1-1s1 .44 1 1zm0 4.05c0 .55-.45 1-1 1s-1-.45-1-1 .45-1 1-1 1 .45 1 1zm0 4.05c0 .55-.45 1-1 1s-1-.45-1-1 .45-1 1-1 1 .45 1 1zm0 4.05c0 .56-.45 1-1 1s-1-.44-1-1c0-.55.45-1 1-1s1 .45 1 1zm0 4.06c0 .55-.45 1-1 1s-1-.45-1-1c0-.56.45-1 1-1s1 .44 1 1zm0 4.05c0 .54-.45 1-1 1s-1-.46-1-1c0-.56.45-1 1-1s1 .44 1 1zm0 4.04c0 .55-.45 1-1 1s-1-.45-1-1 .45-1 1-1 1 .45 1 1zm0 4.05c0 .55-.45 1-1 1s-1-.45-1-1c0-.56.45-1 1-1s1 .44 1 1zm0 4.05c0 .55-.45 1-1 1s-1-.45-1-1 .45-1 1-1 1 .45 1 1zm0 4.05c0 .55-.45 1-1 1s-1-.45-1-1 .45-1 1-1 1 .45 1 1zm-4 0c0 .55-.45 1-1 1s-1-.45-1-1 .45-1 1-1 1 .45 1 1zm-4 0c0 .55-.45 1-1 1s-1-.45-1-1 .45-1 1-1 1 .45 1 1zm-4 0c0 .55-.45 1-1 1s-1-.45-1-1 .45-1 1-1 1 .45 1 1zm-4 0c0 .55-.45 1-1 1s-1-.45-1-1 .45-1 1-1 1 .45 1 1zm-4 0c0 .55-.45 1-1 1s-1-.45-1-1 .45-1 1-1 1 .45 1 1zm-4 0c0 .55-.45 1-1 1s-1-.45-1-1 .45-1 1-1 1 .45 1 1zm-4 0c0 .55-.45 1-1 1s-1-.45-1-1 .45-1 1-1 1 .45 1 1zm-4 0c0 .55-.45 1-1 1s-1-.45-1-1 .45-1 1-1 1 .45 1 1zm-4 0c0 .55-.45 1-1 1s-1-.45-1-1 .45-1 1-1 1 .45 1 1zm-4 0c0 .55-.45 1-1 1s-1-.45-1-1 .45-1 1-1 1 .45 1 1zm-4 0c0 .55-.45 1-1 1s-1-.45-1-1 .45-1 1-1 1 .45 1 1zm-4 0c0 .55-.45 1-1 1s-1-.45-1-1 .45-1 1-1 1 .45 1 1zm-4 0c0 .55-.45 1-1 1s-1-.45-1-1 .45-1 1-1 1 .45 1 1zm-4 0c0 .55-.45 1-1 1s-1-.45-1-1 .45-1 1-1 1 .45 1 1zm-4 0c0 .55-.45 1-1 1s-1-.45-1-1 .45-1 1-1 1 .45 1 1zm-4 0c0 .55-.45 1-1 1s-1-.45-1-1 .45-1 1-1 1 .45 1 1zm-4 0c0 .55-.45 1-1 1s-1-.45-1-1 .45-1 1-1 1 .45 1 1zm-4 0c0 .55-.45 1-1 1s-1-.45-1-1 .45-1 1-1 1 .45 1 1zm-4 0c0 .55-.45 1-1 1s-1-.45-1-1 .45-1 1-1 1 .45 1 1zm-4 0c0 .55-.45 1-1 1s-1-.45-1-1 .45-1 1-1 1 .45 1 1zm-4 0c0 .55-.45 1-1 1s-1-.45-1-1 .45-1 1-1 1 .45 1 1zm-4 0c0 .55-.45 1-1 1s-1-.45-1-1 .45-1 1-1 1 .45 1 1zm-4 0c0 .55-.45 1-1 1s-1-.45-1-1 .45-1 1-1 1 .45 1 1zm-4 0c0 .55-.45 1-1 1s-1-.45-1-1 .45-1 1-1 1 .45 1 1zm-4 0c0 .55-.45 1-1 1s-1-.45-1-1 .45-1 1-1 1 .45 1 1zm-4 0c0 .55-.45 1-1 1s-1-.45-1-1 .45-1 1-1 1 .45 1 1zm-4 0c0 .55-.45 1-1 1s-1-.45-1-1 .45-1 1-1 1 .45 1 1zm-4 0c0 .55-.45 1-1 1s-1-.45-1-1 .45-1 1-1 1 .45 1 1zm-4 0c0 .55-.45 1-1 1s-1-.45-1-1 .45-1 1-1 1 .45 1 1zm-4 0c0 .55-.45 1-1 1s-1-.45-1-1 .45-1 1-1 1 .45 1 1zm-4 0c0 .55-.45 1-1 1s-1-.45-1-1 .45-1 1-1 1 .45 1 1zm-4 0c0 .55-.45 1-1 1s-1-.45-1-1 .45-1 1-1 1 .45 1 1zm-4 0c0 .55-.45 1-1 1s-1-.45-1-1 .45-1 1-1 1 .45 1 1zm-4 0c0 .55-.45 1-1 1s-1-.45-1-1 .45-1 1-1 1 .45 1 1zm-4 0c0 .55-.45 1-1 1s-1-.45-1-1 .45-1 1-1 1 .45 1 1zm-4 0c0 .55-.45 1-1 1s-1-.45-1-1 .45-1 1-1 1 .45 1 1zm-4 0c0 .55-.45 1-1 1s-1-.45-1-1 .45-1 1-1 1 .45 1 1zm-4 0c0 .55-.45 1-1 1s-1-.45-1-1 .45-1 1-1 1 .45 1 1zm-4 0c0 .55-.45 1-1 1s-1-.45-1-1 .45-1 1-1 1 .45 1 1zm-4 0c0 .55-.45 1-1 1s-1-.45-1-1 .45-1 1-1 1 .45 1 1zm-4 0c0 .55-.45 1-1 1s-1-.45-1-1 .45-1 1-1 1 .45 1 1zm-4 0c0 .55-.45 1-1 1s-1-.45-1-1 .45-1 1-1 1 .45 1 1zm-4 0c0 .55-.45 1-1 1s-1-.45-1-1 .45-1 1-1 1 .45 1 1zm-4 0c0 .55-.45 1-1 1s-1-.45-1-1 .45-1 1-1 1 .45 1 1zm-4 0c0 .55-.45 1-1 1s-1-.45-1-1 .45-1 1-1 1 .45 1 1zm-4 0c0 .55-.45 1-1 1s-1-.45-1-1 .45-1 1-1 1 .45 1 1zm-4 0c0 .55-.45 1-1 1s-1-.45-1-1 .45-1 1-1 1 .45 1 1zm-4 0c0 .55-.45 1-1 1s-1-.45-1-1 .45-1 1-1 1 .45 1 1zm-4 0c0 .55-.45 1-1 1s-1-.45-1-1 .45-1 1-1 1 .45 1 1zm-4 0c0 .55-.45 1-1 1s-1-.45-1-1 .45-1 1-1 1 .45 1 1zm-4 0c0 .55-.45 1-1 1s-1-.45-1-1 .45-1 1-1 1 .45 1 1zm-4 0c0 .55-.45 1-1 1s-1-.45-1-1 .45-1 1-1 1 .45 1 1zm-4 0c0 .55-.45 1-1 1s-1-.45-1-1 .45-1 1-1 1 .45 1 1zm-4 0c0 .55-.45 1-1 1s-1-.45-1-1 .45-1 1-1 1 .45 1 1zm-4 0c0 .55-.45 1-1 1s-1-.45-1-1 .45-1 1-1 1 .45 1 1zm-4 0c0 .55-.45 1-1 1s-1-.45-1-1 .45-1 1-1 1 .45 1 1zm-4 0c0 .55-.45 1-1 1s-1-.45-1-1 .45-1 1-1 1 .45 1 1zm-4 0c0 .55-.45 1-1 1s-1-.45-1-1 .45-1 1-1 1 .45 1 1zm-4 0c0 .55-.45 1-1 1s-1-.45-1-1 .45-1 1-1 1 .45 1 1zm-4 0c0 .55-.45 1-1 1s-1-.45-1-1 .45-1 1-1 1 .45 1 1zm0-4.05c0 .55-.45 1-1 1s-1-.45-1-1 .45-1 1-1 1 .45 1 1zm0-4.06c0 .55-.45 1-1 1s-1-.45-1-1c0-.56.45-1 1-1s1 .44 1 1zm0-4.06c0 .55-.45 1-1 1s-1-.45-1-1 .45-1 1-1 1 .45 1 1zm0-4.05c0 .54-.45 1-1 1s-1-.46-1-1c0-.56.45-1 1-1s1 .44 1 1zm0-4.06c0 .55-.45 1-1 1s-1-.45-1-1c0-.56.45-1 1-1s1 .44 1 1zm0-4.06c0 .56-.45 1-1 1s-1-.44-1-1c0-.55.45-1 1-1s1 .45 1 1zm0-4.05c0 .55-.45 1-1 1s-1-.45-1-1 .45-1 1-1 1 .45 1 1zm0-4.05c0 .55-.45 1-1 1s-1-.45-1-1 .45-1 1-1 1 .45 1 1zm0-4.05c0 .55-.45 1-1 1s-1-.45-1-1c0-.56.45-1 1-1s1 .44 1 1zm0-4.06c0 .56-.45 1-1 1s-1-.44-1-1c0-.55.45-1 1-1s1 .45 1 1zm0-4.05c0 .55-.45 1-1 1s-1-.45-1-1 .45-1 1-1 1 .45 1 1zm0-4.05c0 .55-.45 1-1 1s-1-.45-1-1 .45-1 1-1 1 .45 1 1zm0-4.05c0 .55-.45 1-1 1s-1-.45-1-1c0-.56.45-1 1-1s1 .44 1 1zm0-4.06c0 .56-.45 1-1 1s-1-.44-1-1c0-.55.45-1 1-1s1 .45 1 1zm0-4.05c0 .56-.45 1-1 1s-1-.44-1-1c0-.54.45-1 1-1s1 .46 1 1zm0-4.04c0 .55-.45 1-1 1s-1-.45-1-1 .45-1 1-1 1 .45 1 1zm0-4.05c0 .56-.45 1-1 1s-1-.44-1-1c0-.55.45-1 1-1s1 .45 1 1zm0-4.05c0 .55-.45 1-1 1s-1-.45-1-1 .45-1 1-1 1 .45 1 1z" fill="#333" />
    <g>
      <use xlink:href="#au" transform="matrix(1,0,0,1,208,828) translate(58.05 34.1)" />
      <use xlink:href="#av" transform="matrix(1,0,0,1,208,828) translate(94 34.1)" />
    </g>
    <path d="M1000 500h360v156h-360z" stroke="#333" stroke-width="2" fill="#fff" />
    <path d="M1000 537.6h360m-360 59.1h360" stroke="#333" stroke-width="2" fill="none" />
    <g>
      <use xlink:href="#aw" transform="matrix(1,0,0,1,1008,508) translate(156.025 14.6)" />
    </g>
    <path d="M538.5 658.5H502c-6.63 0-12-5.37-12-12v-41c0-6.63-5.37-12-12-12h-6.63" stroke="#333" fill="none" />
    <path d="M539 659h-.5v-1h.5z" stroke="#333" stroke-width=".05" fill="#333" />
    <path d="M441.7 593.5l14.86-14.85 15.15 14.85-15.14 14.85z" stroke="#333" fill="#fff" />
    <g>
      <use xlink:href="#ax" transform="matrix(1,0,0,1,522.157411309727,662.5000000000001) translate(0 14.4)" />
    </g>
    <g>
      <use xlink:href="#ay" transform="matrix(1,0,0,1,456.49999999999994,619.399143841765) translate(0 14.4)" />
    </g>
    <path d="M320 818.5v-23c0-6.63-5.37-12-12-12h-47c-6.63 0-12-5.37-12-12v-23" stroke="#333" fill="none" />
    <path d="M320.5 819h-1v-.5h1zM249.5 748.5h-1v-.5h1z" stroke="#333" stroke-width=".05" fill="#333" />
    <path d="M441.5 858.5H478c6.63 0 12-5.37 12-12v-67.74c0-6.62 5.37-12 12-12h36.5" stroke="#333" fill="none" />
    <path d="M441.5 859h-.5v-1h.5zM539 767.26h-.5v-1h.5z" stroke="#333" stroke-width=".05" fill="#333" />
    <defs>
      <path d="M136-208V0H84v-208H4v-40h212v40h-80" id="az" />
      <path d="M133-34C117-15 103 5 69 4 32 3 11-16 11-54c-1-60 55-63 116-61 1-26-3-47-28-47-18 1-26 9-28 27l-52-2c7-38 36-58 82-57s74 22 75 68l1 82c-1 14 12 18 25 15v27c-30 8-71 5-69-32zm-48 3c29 0 43-24 42-57-32 0-66-3-65 30 0 17 8 27 23 27" id="aA" />
      <path d="M137-138c1-29-70-34-71-4 15 46 118 7 119 86 1 83-164 76-172 9l43-7c4 19 20 25 44 25 33 8 57-30 24-41C81-84 22-81 20-136c-2-80 154-74 161-7" id="aB" />
      <path d="M147 0L96-86 75-71V0H25v-261h50v150l67-79h53l-66 74L201 0h-54" id="aC" />
      <g id="a">
        <use transform="matrix(0.05,0,0,0.05,0,0)" xlink:href="#az" />
        <use transform="matrix(0.05,0,0,0.05,9.600000000000001,0)" xlink:href="#aA" />
        <use transform="matrix(0.05,0,0,0.05,19.6,0)" xlink:href="#aB" />
        <use transform="matrix(0.05,0,0,0.05,29.6,0)" xlink:href="#aC" />
      </g>
      <path fill="#333" d="M16-82v-28h88v28H16" id="aD" />
      <path fill="#333" d="M117-194c89-4 53 116 60 194h-32v-121c0-31-8-49-39-48C34-167 62-67 57 0H25l-1-190h30c1 10-1 24 2 32 11-22 29-35 61-36" id="aE" />
      <path fill="#333" d="M141-36C126-15 110 5 73 4 37 3 15-17 15-53c-1-64 63-63 125-63 3-35-9-54-41-54-24 1-41 7-42 31l-33-3c5-37 33-52 76-52 45 0 72 20 72 64v82c-1 20 7 32 28 27v20c-31 9-61-2-59-35zM48-53c0 20 12 33 32 33 41-3 63-29 60-74-43 2-92-5-92 41" id="aF" />
      <path fill="#333" d="M210-169c-67 3-38 105-44 169h-31v-121c0-29-5-50-35-48C34-165 62-65 56 0H25l-1-190h30c1 10-1 24 2 32 10-44 99-50 107 0 11-21 27-35 58-36 85-2 47 119 55 194h-31v-121c0-29-5-49-35-48" id="aG" />
      <path fill="#333" d="M100-194c63 0 86 42 84 106H49c0 40 14 67 53 68 26 1 43-12 49-29l28 8c-11 28-37 45-77 45C44 4 14-33 15-96c1-61 26-98 85-98zm52 81c6-60-76-77-97-28-3 7-6 17-6 28h103" id="aH" />
      <path fill="#333" d="M33-154v-36h34v36H33zM33 0v-36h34V0H33" id="aI" />
      <g id="b">
        <use transform="matrix(0.05,0,0,0.05,0,0)" xlink:href="#aD" />
        <use transform="matrix(0.05,0,0,0.05,5.95,0)" xlink:href="#aE" />
        <use transform="matrix(0.05,0,0,0.05,15.949999999999998,0)" xlink:href="#aF" />
        <use transform="matrix(0.05,0,0,0.05,25.950000000000003,0)" xlink:href="#aG" />
        <use transform="matrix(0.05,0,0,0.05,40.9,0)" xlink:href="#aH" />
        <use transform="matrix(0.05,0,0,0.05,50.9,0)" xlink:href="#aI" />
      </g>
      <path fill="#333" d="M135-143c-3-34-86-38-87 0 15 53 115 12 119 90S17 21 10-45l28-5c4 36 97 45 98 0-10-56-113-15-118-90-4-57 82-63 122-42 12 7 21 19 24 35" id="aJ" />
      <path fill="#333" d="M59-47c-2 24 18 29 38 22v24C64 9 27 4 27-40v-127H5v-23h24l9-43h21v43h35v23H59v120" id="aK" />
      <path fill="#333" d="M114-163C36-179 61-72 57 0H25l-1-190h30c1 12-1 29 2 39 6-27 23-49 58-41v29" id="aL" />
      <path fill="#333" d="M24-231v-30h32v30H24zM24 0v-190h32V0H24" id="aM" />
      <path fill="#333" d="M177-190C167-65 218 103 67 71c-23-6-38-20-44-43l32-5c15 47 100 32 89-28v-30C133-14 115 1 83 1 29 1 15-40 15-95c0-56 16-97 71-98 29-1 48 16 59 35 1-10 0-23 2-32h30zM94-22c36 0 50-32 50-73 0-42-14-75-50-75-39 0-46 34-46 75s6 73 46 73" id="aN" />
      <g id="c">
        <use transform="matrix(0.05,0,0,0.05,0,0)" xlink:href="#aJ" />
        <use transform="matrix(0.05,0,0,0.05,9,0)" xlink:href="#aK" />
        <use transform="matrix(0.05,0,0,0.05,14,0)" xlink:href="#aL" />
        <use transform="matrix(0.05,0,0,0.05,19.95,0)" xlink:href="#aM" />
        <use transform="matrix(0.05,0,0,0.05,23.9,0)" xlink:href="#aE" />
        <use transform="matrix(0.05,0,0,0.05,33.9,0)" xlink:href="#aN" />
      </g>
      <path fill="#333" d="M85-194c31 0 48 13 60 33l-1-100h32l1 261h-30c-2-10 0-23-3-31C134-8 116 4 85 4 32 4 16-35 15-94c0-66 23-100 70-100zm9 24c-40 0-46 34-46 75 0 40 6 74 45 74 42 0 51-32 51-76 0-42-9-74-50-73" id="aO" />
      <path fill="#333" d="M96-169c-40 0-48 33-48 73s9 75 48 75c24 0 41-14 43-38l32 2c-6 37-31 61-74 61-59 0-76-41-82-99-10-93 101-131 147-64 4 7 5 14 7 22l-32 3c-4-21-16-35-41-35" id="aP" />
      <path fill="#333" d="M115-194c55 1 70 41 70 98S169 2 115 4C84 4 66-9 55-30l1 105H24l-1-265h31l2 30c10-21 28-34 59-34zm-8 174c40 0 45-34 45-75s-6-73-45-74c-42 0-51 32-51 76 0 43 10 73 51 73" id="aQ" />
      <path fill="#333" d="M100-194c62-1 85 37 85 99 1 63-27 99-86 99S16-35 15-95c0-66 28-99 85-99zM99-20c44 1 53-31 53-75 0-43-8-75-51-75s-53 32-53 75 10 74 51 75" id="aR" />
      <g id="d">
        <use transform="matrix(0.05,0,0,0.05,0,0)" xlink:href="#aD" />
        <use transform="matrix(0.05,0,0,0.05,5.95,0)" xlink:href="#aO" />
        <use transform="matrix(0.05,0,0,0.05,15.949999999999998,0)" xlink:href="#aH" />
        <use transform="matrix(0.05,0,0,0.05,25.950000000000003,0)" xlink:href="#aJ" />
        <use transform="matrix(0.05,0,0,0.05,34.95,0)" xlink:href="#aP" />
        <use transform="matrix(0.05,0,0,0.05,43.95,0)" xlink:href="#aL" />
        <use transform="matrix(0.05,0,0,0.05,49.900000000000006,0)" xlink:href="#aM" />
        <use transform="matrix(0.05,0,0,0.05,53.85,0)" xlink:href="#aQ" />
        <use transform="matrix(0.05,0,0,0.05,63.85,0)" xlink:href="#aK" />
        <use transform="matrix(0.05,0,0,0.05,68.85000000000001,0)" xlink:href="#aM" />
        <use transform="matrix(0.05,0,0,0.05,72.80000000000001,0)" xlink:href="#aR" />
        <use transform="matrix(0.05,0,0,0.05,82.80000000000001,0)" xlink:href="#aE" />
        <use transform="matrix(0.05,0,0,0.05,92.80000000000001,0)" xlink:href="#aI" />
      </g>
      <path fill="#333" d="M179-190L93 31C79 59 56 82 12 73V49c39 6 53-20 64-50L1-190h34L92-34l54-156h33" id="aS" />
      <g id="e">
        <use transform="matrix(0.05,0,0,0.05,0,0)" xlink:href="#aD" />
        <use transform="matrix(0.05,0,0,0.05,5.95,0)" xlink:href="#aQ" />
        <use transform="matrix(0.05,0,0,0.05,15.949999999999998,0)" xlink:href="#aL" />
        <use transform="matrix(0.05,0,0,0.05,21.9,0)" xlink:href="#aM" />
        <use transform="matrix(0.05,0,0,0.05,25.849999999999994,0)" xlink:href="#aR" />
        <use transform="matrix(0.05,0,0,0.05,35.849999999999994,0)" xlink:href="#aL" />
        <use transform="matrix(0.05,0,0,0.05,41.8,0)" xlink:href="#aM" />
        <use transform="matrix(0.05,0,0,0.05,45.75,0)" xlink:href="#aK" />
        <use transform="matrix(0.05,0,0,0.05,50.75,0)" xlink:href="#aS" />
        <use transform="matrix(0.05,0,0,0.05,59.75,0)" xlink:href="#aI" />
      </g>
      <g id="f">
        <use transform="matrix(0.05,0,0,0.05,0,0)" xlink:href="#aM" />
        <use transform="matrix(0.05,0,0,0.05,3.95,0)" xlink:href="#aE" />
        <use transform="matrix(0.05,0,0,0.05,13.949999999999998,0)" xlink:href="#aK" />
      </g>
      <path fill="#333" d="M24 0v-261h32V0H24" id="aT" />
      <path fill="#333" d="M101-234c-31-9-42 10-38 44h38v23H63V0H32v-167H5v-23h27c-7-52 17-82 69-68v24" id="aU" />
      <g id="g">
        <use transform="matrix(0.05,0,0,0.05,0,0)" xlink:href="#aD" />
        <use transform="matrix(0.05,0,0,0.05,5.95,0)" xlink:href="#aP" />
        <use transform="matrix(0.05,0,0,0.05,14.949999999999998,0)" xlink:href="#aT" />
        <use transform="matrix(0.05,0,0,0.05,18.9,0)" xlink:href="#aF" />
        <use transform="matrix(0.05,0,0,0.05,28.899999999999995,0)" xlink:href="#aJ" />
        <use transform="matrix(0.05,0,0,0.05,37.9,0)" xlink:href="#aJ" />
        <use transform="matrix(0.05,0,0,0.05,46.9,0)" xlink:href="#aM" />
        <use transform="matrix(0.05,0,0,0.05,50.85,0)" xlink:href="#aU" />
        <use transform="matrix(0.05,0,0,0.05,55.85,0)" xlink:href="#aM" />
        <use transform="matrix(0.05,0,0,0.05,59.800000000000004,0)" xlink:href="#aP" />
        <use transform="matrix(0.05,0,0,0.05,68.80000000000001,0)" xlink:href="#aF" />
        <use transform="matrix(0.05,0,0,0.05,78.80000000000001,0)" xlink:href="#aK" />
        <use transform="matrix(0.05,0,0,0.05,83.80000000000001,0)" xlink:href="#aM" />
        <use transform="matrix(0.05,0,0,0.05,87.75000000000001,0)" xlink:href="#aR" />
        <use transform="matrix(0.05,0,0,0.05,97.75000000000001,0)" xlink:href="#aE" />
        <use transform="matrix(0.05,0,0,0.05,107.75,0)" xlink:href="#aI" />
      </g>
      <path fill="#333" d="M84 4C-5 8 30-112 23-190h32v120c0 31 7 50 39 49 72-2 45-101 50-169h31l1 190h-30c-1-10 1-25-2-33-11 22-28 36-60 37" id="aV" />
      <path fill="#333" d="M30-248c118-7 216 8 213 122C240-48 200 0 122 0H30v-248zM63-27c89 8 146-16 146-99s-60-101-146-95v194" id="aW" />
      <g id="h">
        <use transform="matrix(0.05,0,0,0.05,0,0)" xlink:href="#aD" />
        <use transform="matrix(0.05,0,0,0.05,5.95,0)" xlink:href="#aO" />
        <use transform="matrix(0.05,0,0,0.05,15.949999999999998,0)" xlink:href="#aV" />
        <use transform="matrix(0.05,0,0,0.05,25.950000000000003,0)" xlink:href="#aH" />
        <use transform="matrix(0.05,0,0,0.05,35.95,0)" xlink:href="#aW" />
        <use transform="matrix(0.05,0,0,0.05,48.900000000000006,0)" xlink:href="#aF" />
        <use transform="matrix(0.05,0,0,0.05,58.900000000000006,0)" xlink:href="#aK" />
        <use transform="matrix(0.05,0,0,0.05,63.900000000000006,0)" xlink:href="#aH" />
        <use transform="matrix(0.05,0,0,0.05,73.9,0)" xlink:href="#aI" />
      </g>
      <g id="i">
        <use transform="matrix(0.05,0,0,0.05,0,0)" xlink:href="#aD" />
        <use transform="matrix(0.05,0,0,0.05,5.95,0)" xlink:href="#aO" />
        <use transform="matrix(0.05,0,0,0.05,15.949999999999998,0)" xlink:href="#aV" />
        <use transform="matrix(0.05,0,0,0.05,25.950000000000003,0)" xlink:href="#aL" />
        <use transform="matrix(0.05,0,0,0.05,31.899999999999995,0)" xlink:href="#aF" />
        <use transform="matrix(0.05,0,0,0.05,41.9,0)" xlink:href="#aK" />
        <use transform="matrix(0.05,0,0,0.05,46.9,0)" xlink:href="#aM" />
        <use transform="matrix(0.05,0,0,0.05,50.85,0)" xlink:href="#aR" />
        <use transform="matrix(0.05,0,0,0.05,60.85,0)" xlink:href="#aE" />
        <use transform="matrix(0.05,0,0,0.05,70.85,0)" xlink:href="#aI" />
      </g>
      <g id="j">
        <use transform="matrix(0.05,0,0,0.05,0,0)" xlink:href="#aD" />
        <use transform="matrix(0.05,0,0,0.05,5.95,0)" xlink:href="#aP" />
        <use transform="matrix(0.05,0,0,0.05,14.949999999999998,0)" xlink:href="#aR" />
        <use transform="matrix(0.05,0,0,0.05,24.95,0)" xlink:href="#aG" />
        <use transform="matrix(0.05,0,0,0.05,39.9,0)" xlink:href="#aQ" />
        <use transform="matrix(0.05,0,0,0.05,49.9,0)" xlink:href="#aT" />
        <use transform="matrix(0.05,0,0,0.05,53.85,0)" xlink:href="#aH" />
        <use transform="matrix(0.05,0,0,0.05,63.85,0)" xlink:href="#aK" />
        <use transform="matrix(0.05,0,0,0.05,68.85,0)" xlink:href="#aH" />
        <use transform="matrix(0.05,0,0,0.05,78.85,0)" xlink:href="#aO" />
      </g>
      <use transform="matrix(0.05,0,0,0.05,0,0)" xlink:href="#aI" id="k" />
      <path fill="#333" d="M115-194c53 0 69 39 70 98 0 66-23 100-70 100C84 3 66-7 56-30L54 0H23l1-261h32v101c10-23 28-34 59-34zm-8 174c40 0 45-34 45-75 0-40-5-75-45-74-42 0-51 32-51 76 0 43 10 73 51 73" id="aX" />
      <g id="l">
        <use transform="matrix(0.05,0,0,0.05,0,0)" xlink:href="#aX" />
        <use transform="matrix(0.05,0,0,0.05,10,0)" xlink:href="#aR" />
        <use transform="matrix(0.05,0,0,0.05,20,0)" xlink:href="#aR" />
        <use transform="matrix(0.05,0,0,0.05,30,0)" xlink:href="#aT" />
      </g>
      <path fill="#333" d="M30-248c87 1 191-15 191 75 0 78-77 80-158 76V0H30v-248zm33 125c57 0 124 11 124-50 0-59-68-47-124-48v98" id="aY" />
      <g id="m">
        <use transform="matrix(0.05,0,0,0.05,0,0)" xlink:href="#aD" />
        <use transform="matrix(0.05,0,0,0.05,5.95,0)" xlink:href="#aM" />
        <use transform="matrix(0.05,0,0,0.05,9.9,0)" xlink:href="#aE" />
        <use transform="matrix(0.05,0,0,0.05,19.9,0)" xlink:href="#aY" />
        <use transform="matrix(0.05,0,0,0.05,31.899999999999995,0)" xlink:href="#aL" />
        <use transform="matrix(0.05,0,0,0.05,37.85,0)" xlink:href="#aR" />
        <use transform="matrix(0.05,0,0,0.05,47.85,0)" xlink:href="#aN" />
        <use transform="matrix(0.05,0,0,0.05,57.85,0)" xlink:href="#aL" />
        <use transform="matrix(0.05,0,0,0.05,63.800000000000004,0)" xlink:href="#aH" />
        <use transform="matrix(0.05,0,0,0.05,73.80000000000001,0)" xlink:href="#aJ" />
        <use transform="matrix(0.05,0,0,0.05,82.80000000000001,0)" xlink:href="#aJ" />
      </g>
      <path fill="#e81313" d="M0 4l72-265h28L28 4H0" id="aZ" />
      <path fill="#e81313" d="M80-196l47-18 7 23-49 13 32 44-20 13-27-46-27 45-21-12 33-44-49-13 8-23 47 19-2-53h23" id="ba" />
      <g id="n">
        <use transform="matrix(0.05,0,0,0.05,0,0)" xlink:href="#aZ" />
        <use transform="matrix(0.05,0,0,0.05,5,0)" xlink:href="#ba" />
      </g>
      <path fill="#e81313" d="M30-248c118-7 216 8 213 122C240-48 200 0 122 0H30v-248zM63-27c89 8 146-16 146-99s-60-101-146-95v194" id="bb" />
      <path fill="#e81313" d="M100-194c62-1 85 37 85 99 1 63-27 99-86 99S16-35 15-95c0-66 28-99 85-99zM99-20c44 1 53-31 53-75 0-43-8-75-51-75s-53 32-53 75 10 74 51 75" id="bc" />
      <g id="o">
        <use transform="matrix(0.05,0,0,0.05,0,0)" xlink:href="#bb" />
        <use transform="matrix(0.05,0,0,0.05,12.950000000000001,0)" xlink:href="#bc" />
      </g>
      <path fill="#e81313" d="M206 0h-36l-40-164L89 0H53L-1-190h32L70-26l43-164h34l41 164 42-164h31" id="bd" />
      <path fill="#e81313" d="M100-194c63 0 86 42 84 106H49c0 40 14 67 53 68 26 1 43-12 49-29l28 8c-11 28-37 45-77 45C44 4 14-33 15-96c1-61 26-98 85-98zm52 81c6-60-76-77-97-28-3 7-6 17-6 28h103" id="be" />
      <g id="p">
        <use transform="matrix(0.05,0,0,0.05,0,0)" xlink:href="#bd" />
        <use transform="matrix(0.05,0,0,0.05,12.950000000000001,0)" xlink:href="#be" />
      </g>
      <path fill="#e81313" d="M117-194c89-4 53 116 60 194h-32v-121c0-31-8-49-39-48C34-167 62-67 57 0H25l-1-190h30c1 10-1 24 2 32 11-22 29-35 61-36" id="bf" />
      <path fill="#e81313" d="M85-194c31 0 48 13 60 33l-1-100h32l1 261h-30c-2-10 0-23-3-31C134-8 116 4 85 4 32 4 16-35 15-94c0-66 23-100 70-100zm9 24c-40 0-46 34-46 75 0 40 6 74 45 74 42 0 51-32 51-76 0-42-9-74-50-73" id="bg" />
      <g id="q">
        <use transform="matrix(0.05,0,0,0.05,0,0)" xlink:href="#bf" />
        <use transform="matrix(0.05,0,0,0.05,10,0)" xlink:href="#be" />
        <use transform="matrix(0.05,0,0,0.05,20,0)" xlink:href="#be" />
        <use transform="matrix(0.05,0,0,0.05,30,0)" xlink:href="#bg" />
      </g>
      <path fill="#e81313" d="M177-190C167-65 218 103 67 71c-23-6-38-20-44-43l32-5c15 47 100 32 89-28v-30C133-14 115 1 83 1 29 1 15-40 15-95c0-56 16-97 71-98 29-1 48 16 59 35 1-10 0-23 2-32h30zM94-22c36 0 50-32 50-73 0-42-14-75-50-75-39 0-46 34-46 75s6 73 46 73" id="bh" />
      <path fill="#e81313" d="M59-47c-2 24 18 29 38 22v24C64 9 27 4 27-40v-127H5v-23h24l9-43h21v43h35v23H59v120" id="bi" />
      <path fill="#e81313" d="M114-163C36-179 61-72 57 0H25l-1-190h30c1 12-1 29 2 39 6-27 23-49 58-41v29" id="bj" />
      <path fill="#e81313" d="M135-143c-3-34-86-38-87 0 15 53 115 12 119 90S17 21 10-45l28-5c4 36 97 45 98 0-10-56-113-15-118-90-4-57 82-63 122-42 12 7 21 19 24 35" id="bk" />
      <g id="r">
        <use transform="matrix(0.05,0,0,0.05,0,0)" xlink:href="#bh" />
        <use transform="matrix(0.05,0,0,0.05,10,0)" xlink:href="#be" />
        <use transform="matrix(0.05,0,0,0.05,20,0)" xlink:href="#bi" />
        <use transform="matrix(0.05,0,0,0.05,25,0)" xlink:href="#bi" />
        <use transform="matrix(0.05,0,0,0.05,30,0)" xlink:href="#be" />
        <use transform="matrix(0.05,0,0,0.05,40,0)" xlink:href="#bj" />
        <use transform="matrix(0.05,0,0,0.05,45.95,0)" xlink:href="#bk" />
      </g>
      <path fill="#e81313" d="M141-36C126-15 110 5 73 4 37 3 15-17 15-53c-1-64 63-63 125-63 3-35-9-54-41-54-24 1-41 7-42 31l-33-3c5-37 33-52 76-52 45 0 72 20 72 64v82c-1 20 7 32 28 27v20c-31 9-61-2-59-35zM48-53c0 20 12 33 32 33 41-3 63-29 60-74-43 2-92-5-92 41" id="bl" />
      <g id="s">
        <use transform="matrix(0.05,0,0,0.05,0,0)" xlink:href="#bl" />
        <use transform="matrix(0.05,0,0,0.05,10,0)" xlink:href="#bf" />
        <use transform="matrix(0.05,0,0,0.05,20,0)" xlink:href="#bg" />
      </g>
      <g id="t">
        <use transform="matrix(0.05,0,0,0.05,0,0)" xlink:href="#bk" />
        <use transform="matrix(0.05,0,0,0.05,9,0)" xlink:href="#be" />
        <use transform="matrix(0.05,0,0,0.05,19,0)" xlink:href="#bi" />
        <use transform="matrix(0.05,0,0,0.05,24,0)" xlink:href="#bi" />
        <use transform="matrix(0.05,0,0,0.05,29,0)" xlink:href="#be" />
        <use transform="matrix(0.05,0,0,0.05,39,0)" xlink:href="#bj" />
        <use transform="matrix(0.05,0,0,0.05,44.95,0)" xlink:href="#bk" />
      </g>
      <path fill="#e81313" d="M101-234c-31-9-42 10-38 44h38v23H63V0H32v-167H5v-23h27c-7-52 17-82 69-68v24" id="bm" />
      <g id="u">
        <use transform="matrix(0.05,0,0,0.05,0,0)" xlink:href="#bm" />
        <use transform="matrix(0.05,0,0,0.05,5,0)" xlink:href="#bc" />
        <use transform="matrix(0.05,0,0,0.05,15,0)" xlink:href="#bj" />
      </g>
      <path fill="#e81313" d="M106-169C34-169 62-67 57 0H25v-261h32l-1 103c12-21 28-36 61-36 89 0 53 116 60 194h-32v-121c2-32-8-49-39-48" id="bn" />
      <g id="v">
        <use transform="matrix(0.05,0,0,0.05,0,0)" xlink:href="#bi" />
        <use transform="matrix(0.05,0,0,0.05,5,0)" xlink:href="#bn" />
        <use transform="matrix(0.05,0,0,0.05,15,0)" xlink:href="#be" />
      </g>
      <path fill="#e81313" d="M24 0v-261h32V0H24" id="bo" />
      <g id="w">
        <use transform="matrix(0.05,0,0,0.05,0,0)" xlink:href="#bo" />
        <use transform="matrix(0.05,0,0,0.05,3.95,0)" xlink:href="#bl" />
        <use transform="matrix(0.05,0,0,0.05,13.949999999999998,0)" xlink:href="#bk" />
        <use transform="matrix(0.05,0,0,0.05,22.95,0)" xlink:href="#bi" />
      </g>
      <g id="x">
        <use transform="matrix(0.05,0,0,0.05,0,0)" xlink:href="#bi" />
        <use transform="matrix(0.05,0,0,0.05,5,0)" xlink:href="#bd" />
        <use transform="matrix(0.05,0,0,0.05,17.950000000000003,0)" xlink:href="#bc" />
      </g>
      <path fill="#e81313" d="M108 0H70L1-190h34L89-25l56-165h34" id="bp" />
      <path fill="#e81313" d="M24-231v-30h32v30H24zM24 0v-190h32V0H24" id="bq" />
      <path fill="#e81313" d="M115-194c53 0 69 39 70 98 0 66-23 100-70 100C84 3 66-7 56-30L54 0H23l1-261h32v101c10-23 28-34 59-34zm-8 174c40 0 45-34 45-75 0-40-5-75-45-74-42 0-51 32-51 76 0 43 10 73 51 73" id="br" />
      <path fill="#e81313" d="M103-251c84 0 111 97 45 133-19 10-37 24-39 52H78c0-63 77-55 77-114 0-30-21-42-52-43-32 0-53 17-56 46l-32-2c7-45 34-72 88-72zM77 0v-35h34V0H77" id="bs" />
      <g id="y">
        <use transform="matrix(0.05,0,0,0.05,0,0)" xlink:href="#bp" />
        <use transform="matrix(0.05,0,0,0.05,9,0)" xlink:href="#bl" />
        <use transform="matrix(0.05,0,0,0.05,19,0)" xlink:href="#bj" />
        <use transform="matrix(0.05,0,0,0.05,24.95,0)" xlink:href="#bq" />
        <use transform="matrix(0.05,0,0,0.05,28.899999999999995,0)" xlink:href="#bl" />
        <use transform="matrix(0.05,0,0,0.05,38.9,0)" xlink:href="#br" />
        <use transform="matrix(0.05,0,0,0.05,48.9,0)" xlink:href="#bo" />
        <use transform="matrix(0.05,0,0,0.05,52.85,0)" xlink:href="#be" />
        <use transform="matrix(0.05,0,0,0.05,62.85,0)" xlink:href="#bk" />
        <use transform="matrix(0.05,0,0,0.05,71.85,0)" xlink:href="#bs" />
      </g>
      <g id="z">
        <use transform="matrix(0.05,0,0,0.05,0,0)" xlink:href="#ba" />
        <use transform="matrix(0.05,0,0,0.05,7,0)" xlink:href="#aZ" />
      </g>
      <path fill="#333" d="M118-107v75H92v-75H18v-26h74v-75h26v75h74v26h-74" id="bt" />
      <path fill="#333" d="M190 0L58-211 59 0H30v-248h39L202-35l-2-213h31V0h-41" id="bu" />
      <path fill="#333" d="M87 75C49 33 22-17 22-94c0-76 28-126 65-167h31c-38 41-64 92-64 168S80 34 118 75H87" id="bv" />
      <path fill="#333" d="M33-261c38 41 65 92 65 168S71 34 33 75H2C39 34 66-17 66-93S39-220 2-261h31" id="bw" />
      <g id="A">
        <use transform="matrix(0.05,0,0,0.05,0,0)" xlink:href="#bt" />
        <use transform="matrix(0.05,0,0,0.05,10.5,0)" xlink:href="#aJ" />
        <use transform="matrix(0.05,0,0,0.05,19.5,0)" xlink:href="#aH" />
        <use transform="matrix(0.05,0,0,0.05,29.5,0)" xlink:href="#aK" />
        <use transform="matrix(0.05,0,0,0.05,34.5,0)" xlink:href="#bu" />
        <use transform="matrix(0.05,0,0,0.05,47.45,0)" xlink:href="#aF" />
        <use transform="matrix(0.05,0,0,0.05,57.45,0)" xlink:href="#aG" />
        <use transform="matrix(0.05,0,0,0.05,72.4,0)" xlink:href="#aH" />
        <use transform="matrix(0.05,0,0,0.05,82.4,0)" xlink:href="#bv" />
        <use transform="matrix(0.05,0,0,0.05,88.35000000000001,0)" xlink:href="#aJ" />
        <use transform="matrix(0.05,0,0,0.05,97.35000000000001,0)" xlink:href="#aK" />
        <use transform="matrix(0.05,0,0,0.05,102.35000000000001,0)" xlink:href="#aL" />
        <use transform="matrix(0.05,0,0,0.05,108.30000000000001,0)" xlink:href="#aM" />
        <use transform="matrix(0.05,0,0,0.05,112.25,0)" xlink:href="#aE" />
        <use transform="matrix(0.05,0,0,0.05,122.25,0)" xlink:href="#aN" />
        <use transform="matrix(0.05,0,0,0.05,132.25,0)" xlink:href="#bw" />
        <use transform="matrix(0.05,0,0,0.05,138.2,0)" xlink:href="#aI" />
      </g>
      <path fill="#333" d="M108 0H70L1-190h34L89-25l56-165h34" id="bx" />
      <g id="B">
        <use transform="matrix(0.05,0,0,0.05,0,0)" xlink:href="#bx" />
        <use transform="matrix(0.05,0,0,0.05,9,0)" xlink:href="#aR" />
        <use transform="matrix(0.05,0,0,0.05,19,0)" xlink:href="#aM" />
        <use transform="matrix(0.05,0,0,0.05,22.95,0)" xlink:href="#aO" />
      </g>
      <g id="C">
        <use transform="matrix(0.05,0,0,0.05,0,0)" xlink:href="#bt" />
        <use transform="matrix(0.05,0,0,0.05,10.5,0)" xlink:href="#aJ" />
        <use transform="matrix(0.05,0,0,0.05,19.5,0)" xlink:href="#aH" />
        <use transform="matrix(0.05,0,0,0.05,29.5,0)" xlink:href="#aK" />
        <use transform="matrix(0.05,0,0,0.05,34.5,0)" xlink:href="#aW" />
        <use transform="matrix(0.05,0,0,0.05,47.45,0)" xlink:href="#aH" />
        <use transform="matrix(0.05,0,0,0.05,57.45,0)" xlink:href="#aJ" />
        <use transform="matrix(0.05,0,0,0.05,66.45,0)" xlink:href="#aP" />
        <use transform="matrix(0.05,0,0,0.05,75.45,0)" xlink:href="#aL" />
        <use transform="matrix(0.05,0,0,0.05,81.4,0)" xlink:href="#aM" />
        <use transform="matrix(0.05,0,0,0.05,85.35000000000001,0)" xlink:href="#aQ" />
        <use transform="matrix(0.05,0,0,0.05,95.35000000000001,0)" xlink:href="#aK" />
        <use transform="matrix(0.05,0,0,0.05,100.35000000000001,0)" xlink:href="#aM" />
        <use transform="matrix(0.05,0,0,0.05,104.30000000000001,0)" xlink:href="#aR" />
        <use transform="matrix(0.05,0,0,0.05,114.30000000000001,0)" xlink:href="#aE" />
        <use transform="matrix(0.05,0,0,0.05,124.30000000000001,0)" xlink:href="#bv" />
        <use transform="matrix(0.05,0,0,0.05,130.25,0)" xlink:href="#aJ" />
        <use transform="matrix(0.05,0,0,0.05,139.25,0)" xlink:href="#aK" />
        <use transform="matrix(0.05,0,0,0.05,144.25,0)" xlink:href="#aL" />
        <use transform="matrix(0.05,0,0,0.05,150.2,0)" xlink:href="#aM" />
        <use transform="matrix(0.05,0,0,0.05,154.14999999999998,0)" xlink:href="#aE" />
        <use transform="matrix(0.05,0,0,0.05,164.14999999999998,0)" xlink:href="#aN" />
        <use transform="matrix(0.05,0,0,0.05,174.14999999999998,0)" xlink:href="#bw" />
        <use transform="matrix(0.05,0,0,0.05,180.09999999999997,0)" xlink:href="#aI" />
      </g>
      <g id="D">
        <use transform="matrix(0.05,0,0,0.05,0,0)" xlink:href="#bt" />
        <use transform="matrix(0.05,0,0,0.05,10.5,0)" xlink:href="#aJ" />
        <use transform="matrix(0.05,0,0,0.05,19.5,0)" xlink:href="#aH" />
        <use transform="matrix(0.05,0,0,0.05,29.5,0)" xlink:href="#aK" />
        <use transform="matrix(0.05,0,0,0.05,34.5,0)" xlink:href="#aY" />
        <use transform="matrix(0.05,0,0,0.05,46.5,0)" xlink:href="#aL" />
        <use transform="matrix(0.05,0,0,0.05,52.45,0)" xlink:href="#aM" />
        <use transform="matrix(0.05,0,0,0.05,56.400000000000006,0)" xlink:href="#aR" />
        <use transform="matrix(0.05,0,0,0.05,66.4,0)" xlink:href="#aL" />
        <use transform="matrix(0.05,0,0,0.05,72.35000000000001,0)" xlink:href="#aM" />
        <use transform="matrix(0.05,0,0,0.05,76.30000000000001,0)" xlink:href="#aK" />
        <use transform="matrix(0.05,0,0,0.05,81.30000000000001,0)" xlink:href="#aS" />
        <use transform="matrix(0.05,0,0,0.05,90.30000000000001,0)" xlink:href="#bv" />
        <use transform="matrix(0.05,0,0,0.05,96.25000000000001,0)" xlink:href="#aM" />
        <use transform="matrix(0.05,0,0,0.05,100.20000000000002,0)" xlink:href="#aE" />
        <use transform="matrix(0.05,0,0,0.05,110.2,0)" xlink:href="#aK" />
        <use transform="matrix(0.05,0,0,0.05,115.2,0)" xlink:href="#bw" />
        <use transform="matrix(0.05,0,0,0.05,121.15000000000003,0)" xlink:href="#aI" />
      </g>
      <g id="E">
        <use transform="matrix(0.05,0,0,0.05,0,0)" xlink:href="#bt" />
        <use transform="matrix(0.05,0,0,0.05,10.5,0)" xlink:href="#aJ" />
        <use transform="matrix(0.05,0,0,0.05,19.5,0)" xlink:href="#aH" />
        <use transform="matrix(0.05,0,0,0.05,29.5,0)" xlink:href="#aK" />
        <use transform="matrix(0.05,0,0,0.05,34.5,0)" xlink:href="#aW" />
        <use transform="matrix(0.05,0,0,0.05,47.45,0)" xlink:href="#aV" />
        <use transform="matrix(0.05,0,0,0.05,57.45,0)" xlink:href="#aL" />
        <use transform="matrix(0.05,0,0,0.05,63.400000000000006,0)" xlink:href="#aF" />
        <use transform="matrix(0.05,0,0,0.05,73.4,0)" xlink:href="#aK" />
        <use transform="matrix(0.05,0,0,0.05,78.4,0)" xlink:href="#aM" />
        <use transform="matrix(0.05,0,0,0.05,82.35000000000001,0)" xlink:href="#aR" />
        <use transform="matrix(0.05,0,0,0.05,92.35000000000001,0)" xlink:href="#aE" />
        <use transform="matrix(0.05,0,0,0.05,102.35000000000001,0)" xlink:href="#bv" />
        <use transform="matrix(0.05,0,0,0.05,108.30000000000001,0)" xlink:href="#aM" />
        <use transform="matrix(0.05,0,0,0.05,112.25,0)" xlink:href="#aE" />
        <use transform="matrix(0.05,0,0,0.05,122.25,0)" xlink:href="#aK" />
        <use transform="matrix(0.05,0,0,0.05,127.25,0)" xlink:href="#bw" />
        <use transform="matrix(0.05,0,0,0.05,133.20000000000002,0)" xlink:href="#aI" />
      </g>
      <g id="F">
        <use transform="matrix(0.05,0,0,0.05,0,0)" xlink:href="#bt" />
        <use transform="matrix(0.05,0,0,0.05,10.5,0)" xlink:href="#aJ" />
        <use transform="matrix(0.05,0,0,0.05,19.5,0)" xlink:href="#aH" />
        <use transform="matrix(0.05,0,0,0.05,29.5,0)" xlink:href="#aK" />
        <use transform="matrix(0.05,0,0,0.05,34.5,0)" xlink:href="#aW" />
        <use transform="matrix(0.05,0,0,0.05,47.45,0)" xlink:href="#aV" />
        <use transform="matrix(0.05,0,0,0.05,57.45,0)" xlink:href="#aH" />
        <use transform="matrix(0.05,0,0,0.05,67.45,0)" xlink:href="#aW" />
        <use transform="matrix(0.05,0,0,0.05,80.4,0)" xlink:href="#aF" />
        <use transform="matrix(0.05,0,0,0.05,90.4,0)" xlink:href="#aK" />
        <use transform="matrix(0.05,0,0,0.05,95.4,0)" xlink:href="#aH" />
        <use transform="matrix(0.05,0,0,0.05,105.4,0)" xlink:href="#bv" />
        <use transform="matrix(0.05,0,0,0.05,111.35000000000001,0)" xlink:href="#aJ" />
        <use transform="matrix(0.05,0,0,0.05,120.35000000000001,0)" xlink:href="#aK" />
        <use transform="matrix(0.05,0,0,0.05,125.35000000000001,0)" xlink:href="#aL" />
        <use transform="matrix(0.05,0,0,0.05,131.3,0)" xlink:href="#aM" />
        <use transform="matrix(0.05,0,0,0.05,135.25,0)" xlink:href="#aE" />
        <use transform="matrix(0.05,0,0,0.05,145.25,0)" xlink:href="#aN" />
        <use transform="matrix(0.05,0,0,0.05,155.25,0)" xlink:href="#bw" />
        <use transform="matrix(0.05,0,0,0.05,161.2,0)" xlink:href="#aI" />
      </g>
      <path fill="#333" d="M212-179c-10-28-35-45-73-45-59 0-87 40-87 99 0 60 29 101 89 101 43 0 62-24 78-52l27 14C228-24 195 4 139 4 59 4 22-46 18-125c-6-104 99-153 187-111 19 9 31 26 39 46" id="by" />
      <g id="G">
        <use transform="matrix(0.05,0,0,0.05,0,0)" xlink:href="#bt" />
        <use transform="matrix(0.05,0,0,0.05,10.5,0)" xlink:href="#aJ" />
        <use transform="matrix(0.05,0,0,0.05,19.5,0)" xlink:href="#aH" />
        <use transform="matrix(0.05,0,0,0.05,29.5,0)" xlink:href="#aK" />
        <use transform="matrix(0.05,0,0,0.05,34.5,0)" xlink:href="#by" />
        <use transform="matrix(0.05,0,0,0.05,47.45,0)" xlink:href="#aT" />
        <use transform="matrix(0.05,0,0,0.05,51.400000000000006,0)" xlink:href="#aF" />
        <use transform="matrix(0.05,0,0,0.05,61.400000000000006,0)" xlink:href="#aJ" />
        <use transform="matrix(0.05,0,0,0.05,70.4,0)" xlink:href="#aJ" />
        <use transform="matrix(0.05,0,0,0.05,79.4,0)" xlink:href="#aM" />
        <use transform="matrix(0.05,0,0,0.05,83.35000000000001,0)" xlink:href="#aU" />
        <use transform="matrix(0.05,0,0,0.05,88.35000000000001,0)" xlink:href="#aM" />
        <use transform="matrix(0.05,0,0,0.05,92.30000000000001,0)" xlink:href="#aP" />
        <use transform="matrix(0.05,0,0,0.05,101.30000000000001,0)" xlink:href="#aF" />
        <use transform="matrix(0.05,0,0,0.05,111.30000000000001,0)" xlink:href="#aK" />
        <use transform="matrix(0.05,0,0,0.05,116.30000000000001,0)" xlink:href="#aM" />
        <use transform="matrix(0.05,0,0,0.05,120.25,0)" xlink:href="#aR" />
        <use transform="matrix(0.05,0,0,0.05,130.25,0)" xlink:href="#aE" />
        <use transform="matrix(0.05,0,0,0.05,140.25,0)" xlink:href="#bv" />
        <use transform="matrix(0.05,0,0,0.05,146.2,0)" xlink:href="#aM" />
        <use transform="matrix(0.05,0,0,0.05,150.14999999999998,0)" xlink:href="#aE" />
        <use transform="matrix(0.05,0,0,0.05,160.14999999999998,0)" xlink:href="#aK" />
        <use transform="matrix(0.05,0,0,0.05,165.14999999999998,0)" xlink:href="#bw" />
        <use transform="matrix(0.05,0,0,0.05,171.09999999999997,0)" xlink:href="#aI" />
      </g>
      <g id="H">
        <use transform="matrix(0.05,0,0,0.05,0,0)" xlink:href="#bt" />
        <use transform="matrix(0.05,0,0,0.05,10.5,0)" xlink:href="#aJ" />
        <use transform="matrix(0.05,0,0,0.05,19.5,0)" xlink:href="#aH" />
        <use transform="matrix(0.05,0,0,0.05,29.5,0)" xlink:href="#aK" />
        <use transform="matrix(0.05,0,0,0.05,34.5,0)" xlink:href="#by" />
        <use transform="matrix(0.05,0,0,0.05,47.45,0)" xlink:href="#aR" />
        <use transform="matrix(0.05,0,0,0.05,57.45,0)" xlink:href="#aG" />
        <use transform="matrix(0.05,0,0,0.05,72.4,0)" xlink:href="#aQ" />
        <use transform="matrix(0.05,0,0,0.05,82.4,0)" xlink:href="#aT" />
        <use transform="matrix(0.05,0,0,0.05,86.35000000000001,0)" xlink:href="#aH" />
        <use transform="matrix(0.05,0,0,0.05,96.35000000000001,0)" xlink:href="#aK" />
        <use transform="matrix(0.05,0,0,0.05,101.35000000000001,0)" xlink:href="#aM" />
        <use transform="matrix(0.05,0,0,0.05,105.30000000000001,0)" xlink:href="#aR" />
        <use transform="matrix(0.05,0,0,0.05,115.30000000000001,0)" xlink:href="#aE" />
        <use transform="matrix(0.05,0,0,0.05,125.30000000000001,0)" xlink:href="#bv" />
        <use transform="matrix(0.05,0,0,0.05,131.25,0)" xlink:href="#aX" />
        <use transform="matrix(0.05,0,0,0.05,141.25,0)" xlink:href="#aR" />
        <use transform="matrix(0.05,0,0,0.05,151.25,0)" xlink:href="#aR" />
        <use transform="matrix(0.05,0,0,0.05,161.25,0)" xlink:href="#aT" />
        <use transform="matrix(0.05,0,0,0.05,165.2,0)" xlink:href="#bw" />
        <use transform="matrix(0.05,0,0,0.05,171.14999999999998,0)" xlink:href="#aI" />
      </g>
      <g id="I">
        <use transform="matrix(0.05,0,0,0.05,0,0)" xlink:href="#bt" />
        <use transform="matrix(0.05,0,0,0.05,10.5,0)" xlink:href="#aJ" />
        <use transform="matrix(0.05,0,0,0.05,19.5,0)" xlink:href="#aH" />
        <use transform="matrix(0.05,0,0,0.05,29.5,0)" xlink:href="#aK" />
        <use transform="matrix(0.05,0,0,0.05,34.5,0)" xlink:href="#aY" />
        <use transform="matrix(0.05,0,0,0.05,46.5,0)" xlink:href="#aL" />
        <use transform="matrix(0.05,0,0,0.05,52.45,0)" xlink:href="#aR" />
        <use transform="matrix(0.05,0,0,0.05,62.45,0)" xlink:href="#aN" />
        <use transform="matrix(0.05,0,0,0.05,72.45,0)" xlink:href="#aL" />
        <use transform="matrix(0.05,0,0,0.05,78.4,0)" xlink:href="#aH" />
        <use transform="matrix(0.05,0,0,0.05,88.4,0)" xlink:href="#aJ" />
        <use transform="matrix(0.05,0,0,0.05,97.4,0)" xlink:href="#aJ" />
        <use transform="matrix(0.05,0,0,0.05,106.4,0)" xlink:href="#bv" />
        <use transform="matrix(0.05,0,0,0.05,112.35000000000001,0)" xlink:href="#aM" />
        <use transform="matrix(0.05,0,0,0.05,116.30000000000001,0)" xlink:href="#aE" />
        <use transform="matrix(0.05,0,0,0.05,126.30000000000001,0)" xlink:href="#aK" />
        <use transform="matrix(0.05,0,0,0.05,131.3,0)" xlink:href="#bw" />
        <use transform="matrix(0.05,0,0,0.05,137.25,0)" xlink:href="#aI" />
      </g>
      <g id="J">
        <use transform="matrix(0.05,0,0,0.05,0,0)" xlink:href="#bt" />
        <use transform="matrix(0.05,0,0,0.05,10.5,0)" xlink:href="#aN" />
        <use transform="matrix(0.05,0,0,0.05,20.5,0)" xlink:href="#aH" />
        <use transform="matrix(0.05,0,0,0.05,30.5,0)" xlink:href="#aK" />
        <use transform="matrix(0.05,0,0,0.05,35.5,0)" xlink:href="#bu" />
        <use transform="matrix(0.05,0,0,0.05,48.45,0)" xlink:href="#aF" />
        <use transform="matrix(0.05,0,0,0.05,58.45,0)" xlink:href="#aG" />
        <use transform="matrix(0.05,0,0,0.05,73.4,0)" xlink:href="#aH" />
        <use transform="matrix(0.05,0,0,0.05,83.4,0)" xlink:href="#bv" />
        <use transform="matrix(0.05,0,0,0.05,89.35000000000001,0)" xlink:href="#bw" />
        <use transform="matrix(0.05,0,0,0.05,95.30000000000001,0)" xlink:href="#aI" />
      </g>
      <g id="K">
        <use transform="matrix(0.05,0,0,0.05,0,0)" xlink:href="#bt" />
        <use transform="matrix(0.05,0,0,0.05,10.5,0)" xlink:href="#aN" />
        <use transform="matrix(0.05,0,0,0.05,20.5,0)" xlink:href="#aH" />
        <use transform="matrix(0.05,0,0,0.05,30.5,0)" xlink:href="#aK" />
        <use transform="matrix(0.05,0,0,0.05,35.5,0)" xlink:href="#aW" />
        <use transform="matrix(0.05,0,0,0.05,48.45,0)" xlink:href="#aH" />
        <use transform="matrix(0.05,0,0,0.05,58.45,0)" xlink:href="#aJ" />
        <use transform="matrix(0.05,0,0,0.05,67.45,0)" xlink:href="#aP" />
        <use transform="matrix(0.05,0,0,0.05,76.45,0)" xlink:href="#aL" />
        <use transform="matrix(0.05,0,0,0.05,82.4,0)" xlink:href="#aM" />
        <use transform="matrix(0.05,0,0,0.05,86.35000000000001,0)" xlink:href="#aQ" />
        <use transform="matrix(0.05,0,0,0.05,96.35000000000001,0)" xlink:href="#aK" />
        <use transform="matrix(0.05,0,0,0.05,101.35000000000001,0)" xlink:href="#aM" />
        <use transform="matrix(0.05,0,0,0.05,105.30000000000001,0)" xlink:href="#aR" />
        <use transform="matrix(0.05,0,0,0.05,115.30000000000001,0)" xlink:href="#aE" />
        <use transform="matrix(0.05,0,0,0.05,125.30000000000001,0)" xlink:href="#bv" />
        <use transform="matrix(0.05,0,0,0.05,131.25,0)" xlink:href="#bw" />
        <use transform="matrix(0.05,0,0,0.05,137.2,0)" xlink:href="#aI" />
      </g>
      <g id="L">
        <use transform="matrix(0.05,0,0,0.05,0,0)" xlink:href="#bt" />
        <use transform="matrix(0.05,0,0,0.05,10.5,0)" xlink:href="#aN" />
        <use transform="matrix(0.05,0,0,0.05,20.5,0)" xlink:href="#aH" />
        <use transform="matrix(0.05,0,0,0.05,30.5,0)" xlink:href="#aK" />
        <use transform="matrix(0.05,0,0,0.05,35.5,0)" xlink:href="#aY" />
        <use transform="matrix(0.05,0,0,0.05,47.5,0)" xlink:href="#aL" />
        <use transform="matrix(0.05,0,0,0.05,53.45,0)" xlink:href="#aM" />
        <use transform="matrix(0.05,0,0,0.05,57.400000000000006,0)" xlink:href="#aR" />
        <use transform="matrix(0.05,0,0,0.05,67.4,0)" xlink:href="#aL" />
        <use transform="matrix(0.05,0,0,0.05,73.35000000000001,0)" xlink:href="#aM" />
        <use transform="matrix(0.05,0,0,0.05,77.30000000000001,0)" xlink:href="#aK" />
        <use transform="matrix(0.05,0,0,0.05,82.30000000000001,0)" xlink:href="#aS" />
        <use transform="matrix(0.05,0,0,0.05,91.30000000000001,0)" xlink:href="#bv" />
        <use transform="matrix(0.05,0,0,0.05,97.25000000000001,0)" xlink:href="#bw" />
        <use transform="matrix(0.05,0,0,0.05,103.2,0)" xlink:href="#aI" />
      </g>
      <g id="M">
        <use transform="matrix(0.05,0,0,0.05,0,0)" xlink:href="#bt" />
        <use transform="matrix(0.05,0,0,0.05,10.5,0)" xlink:href="#aN" />
        <use transform="matrix(0.05,0,0,0.05,20.5,0)" xlink:href="#aH" />
        <use transform="matrix(0.05,0,0,0.05,30.5,0)" xlink:href="#aK" />
        <use transform="matrix(0.05,0,0,0.05,35.5,0)" xlink:href="#by" />
        <use transform="matrix(0.05,0,0,0.05,48.45,0)" xlink:href="#aT" />
        <use transform="matrix(0.05,0,0,0.05,52.400000000000006,0)" xlink:href="#aF" />
        <use transform="matrix(0.05,0,0,0.05,62.400000000000006,0)" xlink:href="#aJ" />
        <use transform="matrix(0.05,0,0,0.05,71.4,0)" xlink:href="#aJ" />
        <use transform="matrix(0.05,0,0,0.05,80.4,0)" xlink:href="#aM" />
        <use transform="matrix(0.05,0,0,0.05,84.35000000000001,0)" xlink:href="#aU" />
        <use transform="matrix(0.05,0,0,0.05,89.35000000000001,0)" xlink:href="#aM" />
        <use transform="matrix(0.05,0,0,0.05,93.30000000000001,0)" xlink:href="#aP" />
        <use transform="matrix(0.05,0,0,0.05,102.30000000000001,0)" xlink:href="#aF" />
        <use transform="matrix(0.05,0,0,0.05,112.30000000000001,0)" xlink:href="#aK" />
        <use transform="matrix(0.05,0,0,0.05,117.30000000000001,0)" xlink:href="#aM" />
        <use transform="matrix(0.05,0,0,0.05,121.25,0)" xlink:href="#aR" />
        <use transform="matrix(0.05,0,0,0.05,131.25,0)" xlink:href="#aE" />
        <use transform="matrix(0.05,0,0,0.05,141.25,0)" xlink:href="#bv" />
        <use transform="matrix(0.05,0,0,0.05,147.2,0)" xlink:href="#bw" />
        <use transform="matrix(0.05,0,0,0.05,153.14999999999998,0)" xlink:href="#aI" />
      </g>
      <g id="N">
        <use transform="matrix(0.05,0,0,0.05,0,0)" xlink:href="#bt" />
        <use transform="matrix(0.05,0,0,0.05,10.5,0)" xlink:href="#aN" />
        <use transform="matrix(0.05,0,0,0.05,20.5,0)" xlink:href="#aH" />
        <use transform="matrix(0.05,0,0,0.05,30.5,0)" xlink:href="#aK" />
        <use transform="matrix(0.05,0,0,0.05,35.5,0)" xlink:href="#aW" />
        <use transform="matrix(0.05,0,0,0.05,48.45,0)" xlink:href="#aV" />
        <use transform="matrix(0.05,0,0,0.05,58.45,0)" xlink:href="#aL" />
        <use transform="matrix(0.05,0,0,0.05,64.4,0)" xlink:href="#aF" />
        <use transform="matrix(0.05,0,0,0.05,74.4,0)" xlink:href="#aK" />
        <use transform="matrix(0.05,0,0,0.05,79.4,0)" xlink:href="#aM" />
        <use transform="matrix(0.05,0,0,0.05,83.35000000000001,0)" xlink:href="#aR" />
        <use transform="matrix(0.05,0,0,0.05,93.35000000000001,0)" xlink:href="#aE" />
        <use transform="matrix(0.05,0,0,0.05,103.35000000000001,0)" xlink:href="#bv" />
        <use transform="matrix(0.05,0,0,0.05,109.30000000000001,0)" xlink:href="#bw" />
        <use transform="matrix(0.05,0,0,0.05,115.25,0)" xlink:href="#aI" />
      </g>
      <g id="O">
        <use transform="matrix(0.05,0,0,0.05,0,0)" xlink:href="#bt" />
        <use transform="matrix(0.05,0,0,0.05,10.5,0)" xlink:href="#aN" />
        <use transform="matrix(0.05,0,0,0.05,20.5,0)" xlink:href="#aH" />
        <use transform="matrix(0.05,0,0,0.05,30.5,0)" xlink:href="#aK" />
        <use transform="matrix(0.05,0,0,0.05,35.5,0)" xlink:href="#by" />
        <use transform="matrix(0.05,0,0,0.05,48.45,0)" xlink:href="#aR" />
        <use transform="matrix(0.05,0,0,0.05,58.45,0)" xlink:href="#aG" />
        <use transform="matrix(0.05,0,0,0.05,73.4,0)" xlink:href="#aQ" />
        <use transform="matrix(0.05,0,0,0.05,83.4,0)" xlink:href="#aT" />
        <use transform="matrix(0.05,0,0,0.05,87.35000000000001,0)" xlink:href="#aH" />
        <use transform="matrix(0.05,0,0,0.05,97.35000000000001,0)" xlink:href="#aK" />
        <use transform="matrix(0.05,0,0,0.05,102.35000000000001,0)" xlink:href="#aM" />
        <use transform="matrix(0.05,0,0,0.05,106.30000000000001,0)" xlink:href="#aR" />
        <use transform="matrix(0.05,0,0,0.05,116.30000000000001,0)" xlink:href="#aE" />
        <use transform="matrix(0.05,0,0,0.05,126.30000000000001,0)" xlink:href="#bv" />
        <use transform="matrix(0.05,0,0,0.05,132.25,0)" xlink:href="#bw" />
        <use transform="matrix(0.05,0,0,0.05,138.2,0)" xlink:href="#aI" />
      </g>
      <g id="P">
        <use transform="matrix(0.05,0,0,0.05,0,0)" xlink:href="#aX" />
        <use transform="matrix(0.05,0,0,0.05,10,0)" xlink:href="#aR" />
        <use transform="matrix(0.05,0,0,0.05,20,0)" xlink:href="#aR" />
        <use transform="matrix(0.05,0,0,0.05,30,0)" xlink:href="#aT" />
      </g>
      <g id="Q">
        <use transform="matrix(0.05,0,0,0.05,0,0)" xlink:href="#bt" />
        <use transform="matrix(0.05,0,0,0.05,10.5,0)" xlink:href="#aN" />
        <use transform="matrix(0.05,0,0,0.05,20.5,0)" xlink:href="#aH" />
        <use transform="matrix(0.05,0,0,0.05,30.5,0)" xlink:href="#aK" />
        <use transform="matrix(0.05,0,0,0.05,35.5,0)" xlink:href="#aY" />
        <use transform="matrix(0.05,0,0,0.05,47.5,0)" xlink:href="#aL" />
        <use transform="matrix(0.05,0,0,0.05,53.45,0)" xlink:href="#aR" />
        <use transform="matrix(0.05,0,0,0.05,63.45,0)" xlink:href="#aN" />
        <use transform="matrix(0.05,0,0,0.05,73.45,0)" xlink:href="#aL" />
        <use transform="matrix(0.05,0,0,0.05,79.4,0)" xlink:href="#aH" />
        <use transform="matrix(0.05,0,0,0.05,89.4,0)" xlink:href="#aJ" />
        <use transform="matrix(0.05,0,0,0.05,98.4,0)" xlink:href="#aJ" />
        <use transform="matrix(0.05,0,0,0.05,107.4,0)" xlink:href="#bv" />
        <use transform="matrix(0.05,0,0,0.05,113.35000000000001,0)" xlink:href="#bw" />
        <use transform="matrix(0.05,0,0,0.05,119.30000000000001,0)" xlink:href="#aI" />
      </g>
      <g id="R">
        <use transform="matrix(0.05,0,0,0.05,0,0)" xlink:href="#aM" />
        <use transform="matrix(0.05,0,0,0.05,3.95,0)" xlink:href="#aE" />
        <use transform="matrix(0.05,0,0,0.05,13.949999999999998,0)" xlink:href="#aK" />
      </g>
      <g id="S">
        <use transform="matrix(0.05,0,0,0.05,0,0)" xlink:href="#bt" />
        <use transform="matrix(0.05,0,0,0.05,10.5,0)" xlink:href="#aQ" />
        <use transform="matrix(0.05,0,0,0.05,20.5,0)" xlink:href="#aL" />
        <use transform="matrix(0.05,0,0,0.05,26.450000000000003,0)" xlink:href="#aM" />
        <use transform="matrix(0.05,0,0,0.05,30.399999999999995,0)" xlink:href="#aE" />
        <use transform="matrix(0.05,0,0,0.05,40.4,0)" xlink:href="#aK" />
        <use transform="matrix(0.05,0,0,0.05,45.4,0)" xlink:href="#bv" />
        <use transform="matrix(0.05,0,0,0.05,51.35,0)" xlink:href="#bw" />
        <use transform="matrix(0.05,0,0,0.05,57.300000000000004,0)" xlink:href="#aI" />
      </g>
      <g id="T">
        <use transform="matrix(0.05,0,0,0.05,0,0)" xlink:href="#bx" />
        <use transform="matrix(0.05,0,0,0.05,9,0)" xlink:href="#aR" />
        <use transform="matrix(0.05,0,0,0.05,19,0)" xlink:href="#aM" />
        <use transform="matrix(0.05,0,0,0.05,22.95,0)" xlink:href="#aO" />
      </g>
      <g id="U">
        <use transform="matrix(0.05,0,0,0.05,0,0)" xlink:href="#bt" />
        <use transform="matrix(0.05,0,0,0.05,10.5,0)" xlink:href="#aH" />
        <use transform="matrix(0.05,0,0,0.05,20.5,0)" xlink:href="#aO" />
        <use transform="matrix(0.05,0,0,0.05,30.5,0)" xlink:href="#aM" />
        <use transform="matrix(0.05,0,0,0.05,34.45,0)" xlink:href="#aK" />
        <use transform="matrix(0.05,0,0,0.05,39.45,0)" xlink:href="#bv" />
        <use transform="matrix(0.05,0,0,0.05,45.400000000000006,0)" xlink:href="#bw" />
        <use transform="matrix(0.05,0,0,0.05,51.35,0)" xlink:href="#aI" />
      </g>
      <g id="V">
        <use transform="matrix(0.05,0,0,0.05,0,0)" xlink:href="#bx" />
        <use transform="matrix(0.05,0,0,0.05,9,0)" xlink:href="#aR" />
        <use transform="matrix(0.05,0,0,0.05,19,0)" xlink:href="#aM" />
        <use transform="matrix(0.05,0,0,0.05,22.95,0)" xlink:href="#aO" />
      </g>
      <g id="W">
        <use transform="matrix(0.05,0,0,0.05,0,0)" xlink:href="#aZ" />
        <use transform="matrix(0.05,0,0,0.05,5,0)" xlink:href="#ba" />
      </g>
      <path fill="#e81313" d="M266 0h-40l-56-210L115 0H75L2-248h35L96-30l15-64 43-154h32l59 218 59-218h35" id="bz" />
      <g id="X">
        <use transform="matrix(0.05,0,0,0.05,0,0)" xlink:href="#bz" />
        <use transform="matrix(0.05,0,0,0.05,16.95,0)" xlink:href="#bn" />
        <use transform="matrix(0.05,0,0,0.05,26.950000000000003,0)" xlink:href="#bl" />
        <use transform="matrix(0.05,0,0,0.05,36.95,0)" xlink:href="#bi" />
      </g>
      <g id="Y">
        <use transform="matrix(0.05,0,0,0.05,0,0)" xlink:href="#bg" />
        <use transform="matrix(0.05,0,0,0.05,10,0)" xlink:href="#bc" />
        <use transform="matrix(0.05,0,0,0.05,20,0)" xlink:href="#be" />
        <use transform="matrix(0.05,0,0,0.05,30,0)" xlink:href="#bk" />
      </g>
      <g id="Z">
        <use transform="matrix(0.05,0,0,0.05,0,0)" xlink:href="#bi" />
        <use transform="matrix(0.05,0,0,0.05,5,0)" xlink:href="#bn" />
        <use transform="matrix(0.05,0,0,0.05,15,0)" xlink:href="#bq" />
        <use transform="matrix(0.05,0,0,0.05,18.95,0)" xlink:href="#bk" />
      </g>
      <g id="aa">
        <use transform="matrix(0.05,0,0,0.05,0,0)" xlink:href="#bc" />
        <use transform="matrix(0.05,0,0,0.05,10,0)" xlink:href="#bf" />
        <use transform="matrix(0.05,0,0,0.05,20,0)" xlink:href="#be" />
      </g>
      <path fill="#e81313" d="M96-169c-40 0-48 33-48 73s9 75 48 75c24 0 41-14 43-38l32 2c-6 37-31 61-74 61-59 0-76-41-82-99-10-93 101-131 147-64 4 7 5 14 7 22l-32 3c-4-21-16-35-41-35" id="bA" />
      <path fill="#e81313" d="M84 4C-5 8 30-112 23-190h32v120c0 31 7 50 39 49 72-2 45-101 50-169h31l1 190h-30c-1-10 1-25-2-33-11 22-28 36-60 37" id="bB" />
      <path fill="#e81313" d="M179-190L93 31C79 59 56 82 12 73V49c39 6 53-20 64-50L1-190h34L92-34l54-156h33" id="bC" />
      <g id="ab">
        <use transform="matrix(0.05,0,0,0.05,0,0)" xlink:href="#bl" />
        <use transform="matrix(0.05,0,0,0.05,10,0)" xlink:href="#bA" />
        <use transform="matrix(0.05,0,0,0.05,19,0)" xlink:href="#bi" />
        <use transform="matrix(0.05,0,0,0.05,24,0)" xlink:href="#bB" />
        <use transform="matrix(0.05,0,0,0.05,34,0)" xlink:href="#bl" />
        <use transform="matrix(0.05,0,0,0.05,44,0)" xlink:href="#bo" />
        <use transform="matrix(0.05,0,0,0.05,47.95,0)" xlink:href="#bo" />
        <use transform="matrix(0.05,0,0,0.05,51.900000000000006,0)" xlink:href="#bC" />
      </g>
      <g id="ac">
        <use transform="matrix(0.05,0,0,0.05,0,0)" xlink:href="#bg" />
        <use transform="matrix(0.05,0,0,0.05,10,0)" xlink:href="#bc" />
        <use transform="matrix(0.05,0,0,0.05,20,0)" xlink:href="#bs" />
      </g>
      <path fill="#e81313" d="M185-189c-5-48-123-54-124 2 14 75 158 14 163 119 3 78-121 87-175 55-17-10-28-26-33-46l33-7c5 56 141 63 141-1 0-78-155-14-162-118-5-82 145-84 179-34 5 7 8 16 11 25" id="bD" />
      <g id="ad">
        <use transform="matrix(0.05,0,0,0.05,0,0)" xlink:href="#bD" />
        <use transform="matrix(0.05,0,0,0.05,12,0)" xlink:href="#bn" />
        <use transform="matrix(0.05,0,0,0.05,22,0)" xlink:href="#bc" />
        <use transform="matrix(0.05,0,0,0.05,32,0)" xlink:href="#bB" />
        <use transform="matrix(0.05,0,0,0.05,42,0)" xlink:href="#bo" />
        <use transform="matrix(0.05,0,0,0.05,45.95,0)" xlink:href="#bg" />
      </g>
      <g id="ae">
        <use transform="matrix(0.05,0,0,0.05,0,0)" xlink:href="#bq" />
        <use transform="matrix(0.05,0,0,0.05,3.95,0)" xlink:href="#bi" />
      </g>
      <path fill="#e81313" d="M143 0L79-87 56-68V0H24v-261h32v163l83-92h37l-77 82L181 0h-38" id="bE" />
      <g id="af">
        <use transform="matrix(0.05,0,0,0.05,0,0)" xlink:href="#bi" />
        <use transform="matrix(0.05,0,0,0.05,5,0)" xlink:href="#bl" />
        <use transform="matrix(0.05,0,0,0.05,15,0)" xlink:href="#bE" />
        <use transform="matrix(0.05,0,0,0.05,24,0)" xlink:href="#be" />
      </g>
      <path fill="#e81313" d="M210-169c-67 3-38 105-44 169h-31v-121c0-29-5-50-35-48C34-165 62-65 56 0H25l-1-190h30c1 10-1 24 2 32 10-44 99-50 107 0 11-21 27-35 58-36 85-2 47 119 55 194h-31v-121c0-29-5-49-35-48" id="bF" />
      <g id="ag">
        <use transform="matrix(0.05,0,0,0.05,0,0)" xlink:href="#bl" />
        <use transform="matrix(0.05,0,0,0.05,10,0)" xlink:href="#bj" />
        <use transform="matrix(0.05,0,0,0.05,15.949999999999998,0)" xlink:href="#bh" />
        <use transform="matrix(0.05,0,0,0.05,25.950000000000003,0)" xlink:href="#bB" />
        <use transform="matrix(0.05,0,0,0.05,35.95,0)" xlink:href="#bF" />
        <use transform="matrix(0.05,0,0,0.05,50.900000000000006,0)" xlink:href="#be" />
        <use transform="matrix(0.05,0,0,0.05,60.900000000000006,0)" xlink:href="#bf" />
        <use transform="matrix(0.05,0,0,0.05,70.9,0)" xlink:href="#bi" />
        <use transform="matrix(0.05,0,0,0.05,75.9,0)" xlink:href="#bk" />
        <use transform="matrix(0.05,0,0,0.05,84.9,0)" xlink:href="#bs" />
      </g>
      <g id="ah">
        <use transform="matrix(0.05,0,0,0.05,0,0)" xlink:href="#ba" />
        <use transform="matrix(0.05,0,0,0.05,7,0)" xlink:href="#aZ" />
      </g>
      <g id="ai">
        <use transform="matrix(0.05,0,0,0.05,0,0)" xlink:href="#bt" />
        <use transform="matrix(0.05,0,0,0.05,10.5,0)" xlink:href="#aO" />
        <use transform="matrix(0.05,0,0,0.05,20.5,0)" xlink:href="#aH" />
        <use transform="matrix(0.05,0,0,0.05,30.5,0)" xlink:href="#aT" />
        <use transform="matrix(0.05,0,0,0.05,34.45,0)" xlink:href="#aH" />
        <use transform="matrix(0.05,0,0,0.05,44.45,0)" xlink:href="#aK" />
        <use transform="matrix(0.05,0,0,0.05,49.45,0)" xlink:href="#aH" />
        <use transform="matrix(0.05,0,0,0.05,59.45,0)" xlink:href="#bv" />
        <use transform="matrix(0.05,0,0,0.05,65.4,0)" xlink:href="#bw" />
        <use transform="matrix(0.05,0,0,0.05,71.35000000000001,0)" xlink:href="#aI" />
      </g>
      <g id="aj">
        <use transform="matrix(0.05,0,0,0.05,0,0)" xlink:href="#bx" />
        <use transform="matrix(0.05,0,0,0.05,9,0)" xlink:href="#aR" />
        <use transform="matrix(0.05,0,0,0.05,19,0)" xlink:href="#aM" />
        <use transform="matrix(0.05,0,0,0.05,22.95,0)" xlink:href="#aO" />
      </g>
      <path d="M24 0v-248h52v208h133V0H24" id="bG" />
      <path d="M25-224v-37h50v37H25zM25 0v-190h50V0H25" id="bH" />
      <path d="M115-3C79 11 28 4 28-45v-112H4v-33h27l15-45h31v45h36v33H77v99c-1 23 16 31 38 25v30" id="bI" />
      <g id="ak">
        <use transform="matrix(0.05,0,0,0.05,0,0)" xlink:href="#az" />
        <use transform="matrix(0.05,0,0,0.05,9.600000000000001,0)" xlink:href="#aA" />
        <use transform="matrix(0.05,0,0,0.05,19.6,0)" xlink:href="#aB" />
        <use transform="matrix(0.05,0,0,0.05,29.6,0)" xlink:href="#aC" />
        <use transform="matrix(0.05,0,0,0.05,39.6,0)" xlink:href="#bG" />
        <use transform="matrix(0.05,0,0,0.05,50.550000000000004,0)" xlink:href="#bH" />
        <use transform="matrix(0.05,0,0,0.05,55.550000000000004,0)" xlink:href="#aB" />
        <use transform="matrix(0.05,0,0,0.05,65.55000000000001,0)" xlink:href="#bI" />
      </g>
      <g id="al">
        <use transform="matrix(0.05,0,0,0.05,0,0)" xlink:href="#aD" />
        <use transform="matrix(0.05,0,0,0.05,5.95,0)" xlink:href="#aT" />
        <use transform="matrix(0.05,0,0,0.05,9.9,0)" xlink:href="#aM" />
        <use transform="matrix(0.05,0,0,0.05,13.850000000000001,0)" xlink:href="#aJ" />
        <use transform="matrix(0.05,0,0,0.05,22.85,0)" xlink:href="#aK" />
        <use transform="matrix(0.05,0,0,0.05,27.85,0)" xlink:href="#bu" />
        <use transform="matrix(0.05,0,0,0.05,40.800000000000004,0)" xlink:href="#aF" />
        <use transform="matrix(0.05,0,0,0.05,50.800000000000004,0)" xlink:href="#aG" />
        <use transform="matrix(0.05,0,0,0.05,65.75,0)" xlink:href="#aH" />
        <use transform="matrix(0.05,0,0,0.05,75.75,0)" xlink:href="#aI" />
      </g>
      <g id="am">
        <use transform="matrix(0.05,0,0,0.05,0,0)" xlink:href="#aJ" />
        <use transform="matrix(0.05,0,0,0.05,9,0)" xlink:href="#aK" />
        <use transform="matrix(0.05,0,0,0.05,14,0)" xlink:href="#aL" />
        <use transform="matrix(0.05,0,0,0.05,19.95,0)" xlink:href="#aM" />
        <use transform="matrix(0.05,0,0,0.05,23.9,0)" xlink:href="#aE" />
        <use transform="matrix(0.05,0,0,0.05,33.9,0)" xlink:href="#aN" />
      </g>
      <path fill="#333" d="M143 0L79-87 56-68V0H24v-261h32v163l83-92h37l-77 82L181 0h-38" id="bJ" />
      <path fill="#333" d="M30 0v-248h33v221h125V0H30" id="bK" />
      <g id="an">
        <use transform="matrix(0.05,0,0,0.05,0,0)" xlink:href="#aD" />
        <use transform="matrix(0.05,0,0,0.05,5.95,0)" xlink:href="#aK" />
        <use transform="matrix(0.05,0,0,0.05,10.95,0)" xlink:href="#aF" />
        <use transform="matrix(0.05,0,0,0.05,20.95,0)" xlink:href="#aJ" />
        <use transform="matrix(0.05,0,0,0.05,29.950000000000003,0)" xlink:href="#bJ" />
        <use transform="matrix(0.05,0,0,0.05,38.95,0)" xlink:href="#bK" />
        <use transform="matrix(0.05,0,0,0.05,48.95,0)" xlink:href="#aM" />
        <use transform="matrix(0.05,0,0,0.05,52.900000000000006,0)" xlink:href="#aJ" />
        <use transform="matrix(0.05,0,0,0.05,61.900000000000006,0)" xlink:href="#aK" />
        <use transform="matrix(0.05,0,0,0.05,66.9,0)" xlink:href="#aI" />
      </g>
      <path fill="#333" d="M18-100v-36l175-74v27L42-118l151 64v27" id="bL" />
      <path fill="#333" d="M127-220V0H93v-220H8v-28h204v28h-85" id="bM" />
      <path fill="#333" d="M18-27v-27l151-64-151-65v-27l175 74v36" id="bN" />
      <g id="ao">
        <use transform="matrix(0.05,0,0,0.05,0,0)" xlink:href="#bx" />
        <use transform="matrix(0.05,0,0,0.05,9,0)" xlink:href="#aH" />
        <use transform="matrix(0.05,0,0,0.05,19,0)" xlink:href="#aP" />
        <use transform="matrix(0.05,0,0,0.05,28,0)" xlink:href="#aK" />
        <use transform="matrix(0.05,0,0,0.05,33,0)" xlink:href="#aR" />
        <use transform="matrix(0.05,0,0,0.05,43,0)" xlink:href="#aL" />
        <use transform="matrix(0.05,0,0,0.05,48.95,0)" xlink:href="#bL" />
        <use transform="matrix(0.05,0,0,0.05,59.45,0)" xlink:href="#bM" />
        <use transform="matrix(0.05,0,0,0.05,68.4,0)" xlink:href="#aF" />
        <use transform="matrix(0.05,0,0,0.05,78.4,0)" xlink:href="#aJ" />
        <use transform="matrix(0.05,0,0,0.05,87.4,0)" xlink:href="#bJ" />
        <use transform="matrix(0.05,0,0,0.05,96.4,0)" xlink:href="#bN" />
      </g>
      <g id="ap">
        <use transform="matrix(0.05,0,0,0.05,0,0)" xlink:href="#bt" />
        <use transform="matrix(0.05,0,0,0.05,10.5,0)" xlink:href="#aJ" />
        <use transform="matrix(0.05,0,0,0.05,19.5,0)" xlink:href="#aH" />
        <use transform="matrix(0.05,0,0,0.05,29.5,0)" xlink:href="#aK" />
        <use transform="matrix(0.05,0,0,0.05,34.5,0)" xlink:href="#bK" />
        <use transform="matrix(0.05,0,0,0.05,44.5,0)" xlink:href="#aM" />
        <use transform="matrix(0.05,0,0,0.05,48.45,0)" xlink:href="#aJ" />
        <use transform="matrix(0.05,0,0,0.05,57.45,0)" xlink:href="#aK" />
        <use transform="matrix(0.05,0,0,0.05,62.45,0)" xlink:href="#bu" />
        <use transform="matrix(0.05,0,0,0.05,75.4,0)" xlink:href="#aF" />
        <use transform="matrix(0.05,0,0,0.05,85.4,0)" xlink:href="#aG" />
        <use transform="matrix(0.05,0,0,0.05,100.35000000000001,0)" xlink:href="#aH" />
        <use transform="matrix(0.05,0,0,0.05,110.35000000000001,0)" xlink:href="#bv" />
        <use transform="matrix(0.05,0,0,0.05,116.30000000000001,0)" xlink:href="#bw" />
      </g>
      <use transform="matrix(0.05,0,0,0.05,0,0)" xlink:href="#aI" id="aq" />
      <g id="ar">
        <use transform="matrix(0.05,0,0,0.05,0,0)" xlink:href="#bt" />
        <use transform="matrix(0.05,0,0,0.05,10.5,0)" xlink:href="#aN" />
        <use transform="matrix(0.05,0,0,0.05,20.5,0)" xlink:href="#aH" />
        <use transform="matrix(0.05,0,0,0.05,30.5,0)" xlink:href="#aK" />
        <use transform="matrix(0.05,0,0,0.05,35.5,0)" xlink:href="#bK" />
        <use transform="matrix(0.05,0,0,0.05,45.5,0)" xlink:href="#aM" />
        <use transform="matrix(0.05,0,0,0.05,49.45,0)" xlink:href="#aJ" />
        <use transform="matrix(0.05,0,0,0.05,58.45,0)" xlink:href="#aK" />
        <use transform="matrix(0.05,0,0,0.05,63.45,0)" xlink:href="#bu" />
        <use transform="matrix(0.05,0,0,0.05,76.4,0)" xlink:href="#aF" />
        <use transform="matrix(0.05,0,0,0.05,86.4,0)" xlink:href="#aG" />
        <use transform="matrix(0.05,0,0,0.05,101.35000000000001,0)" xlink:href="#aH" />
        <use transform="matrix(0.05,0,0,0.05,111.35000000000001,0)" xlink:href="#bv" />
        <use transform="matrix(0.05,0,0,0.05,117.30000000000001,0)" xlink:href="#bw" />
      </g>
      <g id="as">
        <use transform="matrix(0.05,0,0,0.05,0,0)" xlink:href="#bt" />
        <use transform="matrix(0.05,0,0,0.05,10.5,0)" xlink:href="#aU" />
        <use transform="matrix(0.05,0,0,0.05,15.5,0)" xlink:href="#aM" />
        <use transform="matrix(0.05,0,0,0.05,19.45,0)" xlink:href="#aE" />
        <use transform="matrix(0.05,0,0,0.05,29.450000000000003,0)" xlink:href="#aO" />
        <use transform="matrix(0.05,0,0,0.05,39.45,0)" xlink:href="#bM" />
        <use transform="matrix(0.05,0,0,0.05,48.400000000000006,0)" xlink:href="#aF" />
        <use transform="matrix(0.05,0,0,0.05,58.400000000000006,0)" xlink:href="#aJ" />
        <use transform="matrix(0.05,0,0,0.05,67.4,0)" xlink:href="#bJ" />
        <use transform="matrix(0.05,0,0,0.05,76.4,0)" xlink:href="#bv" />
        <use transform="matrix(0.05,0,0,0.05,82.35000000000001,0)" xlink:href="#bw" />
      </g>
      <g id="at">
        <use transform="matrix(0.05,0,0,0.05,0,0)" xlink:href="#bM" />
        <use transform="matrix(0.05,0,0,0.05,8.950000000000001,0)" xlink:href="#aF" />
        <use transform="matrix(0.05,0,0,0.05,18.950000000000003,0)" xlink:href="#aJ" />
        <use transform="matrix(0.05,0,0,0.05,27.950000000000003,0)" xlink:href="#bJ" />
      </g>
      <path d="M30 0v-248h187v28H63v79h144v27H63v87h162V0H30" id="bO" />
      <path d="M85-194c31 0 48 13 60 33l-1-100h32l1 261h-30c-2-10 0-23-3-31C134-8 116 4 85 4 32 4 16-35 15-94c0-66 23-100 70-100zm9 24c-40 0-46 34-46 75 0 40 6 74 45 74 42 0 51-32 51-76 0-42-9-74-50-73" id="bP" />
      <path d="M24-231v-30h32v30H24zM24 0v-190h32V0H24" id="bQ" />
      <path d="M59-47c-2 24 18 29 38 22v24C64 9 27 4 27-40v-127H5v-23h24l9-43h21v43h35v23H59v120" id="bR" />
      <g id="au">
        <use transform="matrix(0.05,0,0,0.05,0,0)" xlink:href="#bO" />
        <use transform="matrix(0.05,0,0,0.05,12,0)" xlink:href="#bP" />
        <use transform="matrix(0.05,0,0,0.05,22,0)" xlink:href="#bQ" />
        <use transform="matrix(0.05,0,0,0.05,25.950000000000003,0)" xlink:href="#bR" />
      </g>
      <path d="M101-234c-31-9-42 10-38 44h38v23H63V0H32v-167H5v-23h27c-7-52 17-82 69-68v24" id="bS" />
      <path d="M84 4C-5 8 30-112 23-190h32v120c0 31 7 50 39 49 72-2 45-101 50-169h31l1 190h-30c-1-10 1-25-2-33-11 22-28 36-60 37" id="bT" />
      <path d="M117-194c89-4 53 116 60 194h-32v-121c0-31-8-49-39-48C34-167 62-67 57 0H25l-1-190h30c1 10-1 24 2 32 11-22 29-35 61-36" id="bU" />
      <path d="M96-169c-40 0-48 33-48 73s9 75 48 75c24 0 41-14 43-38l32 2c-6 37-31 61-74 61-59 0-76-41-82-99-10-93 101-131 147-64 4 7 5 14 7 22l-32 3c-4-21-16-35-41-35" id="bV" />
      <path d="M100-194c62-1 85 37 85 99 1 63-27 99-86 99S16-35 15-95c0-66 28-99 85-99zM99-20c44 1 53-31 53-75 0-43-8-75-51-75s-53 32-53 75 10 74 51 75" id="bW" />
      <path d="M135-143c-3-34-86-38-87 0 15 53 115 12 119 90S17 21 10-45l28-5c4 36 97 45 98 0-10-56-113-15-118-90-4-57 82-63 122-42 12 7 21 19 24 35" id="bX" />
      <g id="av">
        <use transform="matrix(0.05,0,0,0.05,0,0)" xlink:href="#bS" />
        <use transform="matrix(0.05,0,0,0.05,5,0)" xlink:href="#bT" />
        <use transform="matrix(0.05,0,0,0.05,15,0)" xlink:href="#bU" />
        <use transform="matrix(0.05,0,0,0.05,25,0)" xlink:href="#bV" />
        <use transform="matrix(0.05,0,0,0.05,34,0)" xlink:href="#bR" />
        <use transform="matrix(0.05,0,0,0.05,39,0)" xlink:href="#bQ" />
        <use transform="matrix(0.05,0,0,0.05,42.95,0)" xlink:href="#bW" />
        <use transform="matrix(0.05,0,0,0.05,52.95,0)" xlink:href="#bU" />
        <use transform="matrix(0.05,0,0,0.05,62.95,0)" xlink:href="#bX" />
      </g>
      <path fill="#333" d="M67-125c0 54 23 88 75 88 28 0 53-7 68-21v-34h-60v-39h108v91C232-14 192 4 140 4 58 4 20-42 15-125 8-236 126-280 215-234c19 10 29 26 37 47l-47 15c-11-23-29-39-63-39-53 1-75 33-75 86" id="bY" />
      <path fill="#333" d="M238-95c0 69-44 99-111 99C63 4 22-25 22-93v-155h51v151c-1 38 19 59 55 60 90 1 49-130 58-211h52v153" id="bZ" />
      <path fill="#333" d="M24 0v-248h52V0H24" id="ca" />
      <g id="aw">
        <use transform="matrix(0.05,0,0,0.05,0,0)" xlink:href="#bY" />
        <use transform="matrix(0.05,0,0,0.05,14,0)" xlink:href="#bZ" />
        <use transform="matrix(0.05,0,0,0.05,26.950000000000003,0)" xlink:href="#ca" />
      </g>
      <path d="M80-196l47-18 7 23-49 13 32 44-20 13-27-46-27 45-21-12 33-44-49-13 8-23 47 19-2-53h23" id="cb" />
      <use transform="matrix(0.05,0,0,0.05,0,0)" xlink:href="#cb" id="ax" />
      <path d="M27 0v-27h64v-190l-56 39v-29l58-41h29v221h61V0H27" id="cc" />
      <use transform="matrix(0.05,0,0,0.05,0,0)" xlink:href="#cc" id="ay" />
    </defs>
  </g>
</svg>
